<svg xmlns="http://www.w3.org/2000/svg" width="512" height="512" viewBox="0 0 512 512" fill="#FFFFFF"><path d="M507.282 229.363L295.556 16.49v127.253c-120.476-1.17-177.505 50.919-179.525 52.826C-14.748 305.379 13.085 457.584 13.382 459.1l4.726 24.337L30.8 462.135c97.492-163.81 231.91-154.132 264.756-148.965v129.067zM29.662 428.798c-1.19-46.111 8.56-142.886 98.866-218.03.533-.502 53.41-48.11 164.322-48.11 3.885 0 7.853.061 11.892.184l9.739.287V62.335l166.116 167.029L314.48 396.381v-98.477l-7.238-1.753c-1.67-.43-161.462-36.7-277.581 132.645z" data-original="#000000" class="active-path" data-old_color="#ffffff"/></svg>