<svg xmlns="http://www.w3.org/2000/svg" xmlns:xlink="http://www.w3.org/1999/xlink" width="640" height="640" preserveAspectRatio="xMidYMid meet" fill="#FFFFFF"><defs><path d="M324.79 249.5l2.38.12 2.38.16 2.36.21 2.36.25 2.35.3 2.33.34 2.32.39 2.32.43 2.3.48 2.28.52 2.28.57 2.26.61 2.24.65 2.23.7 2.22.74 2.2.78 2.18.83 2.16.87 2.15.91 2.13.95 2.11 1 2.09 1.03 2.07 1.08 2.05 1.12 2.03 1.16 2.01 1.2 1.99 1.24 1.97 1.29 1.94 1.32 1.92 1.36 1.89 1.4 1.87 1.44 1.84 1.49 1.82 1.52 1.8 1.56 1.76 1.59 1.74 1.64 1.71 1.67 1.68 1.71 1.65 1.73 1.6 1.76 1.57 1.78 1.52 1.81 1.49 1.84 1.45 1.86 1.41 1.89 1.37 1.91 1.32 1.93 1.29 1.96 1.25 1.98 1.21 2 1.16 2.02 1.13 2.04 1.08 2.06 1.04 2.09 1 2.1.96 2.12.91 2.14.87 2.15.83 2.17.79 2.19.74 2.21.7 2.22.66 2.24.61 2.25.57 2.26.52 2.28.48 2.29.44 2.3.39 2.31.34 2.33.3 2.33.26 2.35.21 2.35.16 2.37.12 2.37.07 2.38.02 2.39-.02 2.39-.07 2.38-.12 2.37-.16 2.37-.21 2.35-.26 2.35-.3 2.33-.35 2.33-.39 2.31-.43 2.3-.48 2.29-.53 2.27-.57 2.27-.61 2.25-.66 2.23-.7 2.22-.75 2.2-.78 2.19-.83 2.17-.88 2.16-.91 2.14-.96 2.12-1 2.1-1.04 2.08-1.09 2.06-1.12 2.04-1.17 2.02-1.2 2.01-1.25 1.97-1.29 1.96-1.32 1.94-1.37 1.91-1.41 1.88-1.44 1.87-1.49 1.84-1.52 1.81-1.57 1.79-1.6 1.76-1.64 1.73-1.68 1.71-1.71 1.67-1.74 1.64-1.76 1.6-1.8 1.56-1.82 1.52-1.84 1.48-1.87 1.44-1.89 1.4-1.92 1.36-1.94 1.33-1.97 1.28-1.99 1.24-2.01 1.2-2.03 1.16-2.05 1.12-2.07 1.08-2.09 1.04-2.11.99-2.13.95-2.15.92-2.16.86-2.18.83-2.2.78-2.22.74-2.23.7-2.24.65-2.26.61-2.28.57-2.28.52-2.3.48-2.32.43-2.32.39-2.33.35-2.35.29-2.36.26-2.36.21-2.38.16-2.38.11-2.39.07-2.4.03-2.4-.03-2.39-.07-2.38-.11-2.38-.17-2.36-.2-2.36-.26-2.34-.3-2.34-.34-2.32-.39-2.31-.44-2.3-.48-2.28-.52-2.28-.57-2.25-.61-2.25-.65-2.23-.7-2.21-.74-2.2-.79-2.18-.82-2.16-.87-2.15-.91-2.13-.96-2.11-.99-2.09-1.04-2.07-1.08-2.05-1.12-2.03-1.16-2.01-1.2-1.99-1.24-1.97-1.28-1.94-1.32-1.92-1.37-1.89-1.4-1.87-1.44-1.85-1.48-1.82-1.51-1.8-1.56-1.77-1.6-1.74-1.63-1.71-1.67-1.68-1.7-1.65-1.74-1.6-1.75-1.57-1.79-1.52-1.81-1.49-1.84-1.45-1.86-1.41-1.88-1.37-1.91-1.32-1.94-1.29-1.95-1.25-1.98-1.21-2-1.16-2.03-1.13-2.04-1.08-2.06-1.04-2.08-1-2.1-.96-2.12-.91-2.14-.87-2.16-.83-2.17-.79-2.19-.74-2.21-.7-2.22-.66-2.23-.61-2.25-.57-2.27-.52-2.27-.48-2.29-.44-2.3-.39-2.32-.34-2.32-.3-2.34-.26-2.35-.21-2.35-.16-2.37-.12-2.37-.07-2.38-.02-2.39.02-2.39.07-2.38.12-2.37.16-2.36.21-2.36.26-2.34.3-2.34.35-2.32.39-2.32.43-2.3.48-2.29.53-2.27.57-2.26.61-2.25.66-2.24.7-2.22.75-2.2.78-2.19.83-2.17.88-2.16.91-2.13.96-2.12 1-2.1 1.04-2.08 1.09-2.07 1.12-2.04 1.17-2.02 1.2-2 1.25-1.98 1.29-1.96 1.32-1.93 1.37-1.91 1.41-1.89 1.44-1.86 1.49-1.84 1.52-1.82 1.57-1.78 1.6-1.76 1.64-1.74 1.68-1.71 1.71-1.67 1.74-1.64 1.76-1.59 1.8-1.56 1.82-1.52 1.84-1.49 1.87-1.44 1.89-1.4 1.92-1.36 1.94-1.32 1.97-1.29 1.99-1.24 2.01-1.2 2.03-1.16 2.05-1.12 2.07-1.08 2.09-1.03 2.11-1 2.13-.95 2.15-.91 2.16-.87 2.18-.83 2.2-.78 2.22-.74 2.23-.7 2.24-.65 2.26-.61 2.28-.57 2.28-.52 2.3-.48 2.32-.43 2.32-.39 2.33-.34 2.35-.3 2.36-.25 2.36-.21 2.38-.16 2.38-.12 2.39-.07 2.4-.02 2.4.02 2.39.07zm1.8 226.2l1.16-.34 1.15-.39 1.14-.45 1.13-.51 1.13-.56 1.13-.61 1.11-.66 1.11-.72 1.1-.77 1.1-.83 1.08-.87 1.08-.93 1.07-.98 1.05-1.03 1.05-1.08 1.04-1.13 1.03-1.19 1.01-1.23 1.01-1.28.99-1.33.98-1.38.97-1.43.96-1.47.94-1.53.94-1.57.91-1.62.91-1.66.89-1.72.23-.46.23-.46.23-.46.22-.47.23-.47.22-.47.22-.47.22-.47.22-.48.22-.48.22-.48.21-.48.21-.49.21-.49.21-.49.21-.49.2-.49.21-.5.2-.49.2-.5.2-.51.2-.5.2-.51.19-.5.2-.52.19-.51.19-.51.19-.52.19-.52-1.19-.48-1.19-.47-1.2-.45-1.21-.44-1.21-.43-1.22-.41-1.22-.39-1.23-.38-1.23-.37-1.23-.35-1.25-.34-1.24-.33-1.25-.3-1.26-.3-1.26-.28-1.26-.26-1.27-.26-1.27-.23-1.27-.22-1.28-.21-1.28-.19-1.29-.18-1.29-.16-1.29-.15-1.3-.13-1.29-.12-1.3-.1-1.31-.09-1.3-.07v51.84l1.15-.29zm-14.54-51.4l-1.3.1-1.3.11-1.29.13-1.29.15-1.29.16-1.29.18-1.28.19-1.28.21-1.27.22-1.27.23-1.27.26-1.27.26-1.25.28-1.26.3-1.25.31-1.25.33-1.24.34-1.23.35-1.24.37-1.22.38-1.22.4-1.22.41-1.21.43-1.21.44-1.2.45-1.19.47-1.19.48.19.52.19.52.19.51.19.51.19.52.2.5.2.51.19.5.2.51.21.5.2.49.2.5.21.49.21.49.21.49.21.49.21.49.21.48.22.48.21.48.22.48.22.47.23.47.22.47.22.47.23.47.23.46.23.46.23.46.61 1.16.63 1.14.67 1.13.7 1.13.73 1.11.76 1.11.79 1.09.83 1.09.85 1.07.89 1.07.92 1.06.95 1.04.98 1.04 1.01 1.03 1.05 1.02 1.08 1.01 1.11 1 1.14.99 1.17.98 1.2.97 1.24.96 1.26.96 1.3.94 1.33.93 1.36.93 1.39.91 1.43.91 1.45.89 1.49.89v-51.84l-1.3.07-1.31.08zm-45.4 13.55l-.92.53-.93.53-.92.55-.91.55-.91.56-.9.58-.9.58-.89.59-.89.6-.89.61-.87.62-.88.62-.86.64-.87.65-.85.65-.85.66-.85.68-.83.68-.84.69-.82.7-.83.7 1.59 1.36 1.61 1.32 1.64 1.29 1.66 1.27 1.69 1.23 1.71 1.2 1.73 1.16 1.76 1.14 1.78 1.1 1.81 1.07 1.82 1.04 1.85 1 1.87.97 1.89.93 1.91.9 1.93.86 1.95.82 1.97.79 1.98.75 2.01.72 2.02.67 2.04.64 2.05.6-.75-.77-.75-.78-.75-.81-.74-.82-.73-.85-.73-.86-.71-.88-.72-.91-.7-.92-.7-.94-.7-.95-.68-.98-.68-1-.68-1.02-.66-1.03-.66-1.06-.66-1.07-.64-1.09-.64-1.11-.63-1.13-.63-1.15-.62-1.17-.61-1.18-.3-.59-.29-.59-.3-.6-.29-.6-.28-.6-.29-.6-.28-.61-.28-.61-.28-.62-.27-.62-.28-.62-.27-.63-.26-.62-.27-.63-.26-.64-.26-.63-.26-.64-.26-.65-.25-.64-.25-.65-.25-.65-.24-.65-.25-.65-.93.5-.94.52zm104.44.23l-.25.65-.25.65-.26.65-.25.64-.26.64-.26.63-.26.64-.27.63-.26.63-.27.62-.28.62-.27.62-.28.62-.28.61-.28.61-.29.6-.29.61-.29.59-.29.6-.3.59-.29.59-.62 1.18-.61 1.17-.63 1.15-.63 1.13-.64 1.12-.64 1.09-.66 1.08-.66 1.05-.66 1.04-.68 1.02-.68 1-.68.98-.7.96-.7.94-.7.92-.72.9-.72.88-.72.86-.73.84-.74.83-.75.8-.75.78-.76.76 2.06-.59 2.04-.63 2.02-.68 2-.7 1.99-.75 1.97-.79 1.95-.82 1.93-.86 1.91-.89 1.89-.94 1.87-.96 1.84-1 1.83-1.04 1.8-1.07 1.79-1.11 1.75-1.13 1.74-1.17 1.71-1.21 1.69-1.23 1.66-1.27 1.64-1.3 1.61-1.33 1.58-1.35-.82-.71-.82-.7-.84-.69-.84-.68-.84-.68-.85-.66-.86-.65-.86-.65-.87-.64-.87-.62-.88-.62-.88-.61-.89-.6-.89-.59-.9-.58-.9-.57-.91-.57-.92-.55-.91-.55-.93-.53-.93-.53-.93-.51-.93-.51-.25.65-.24.65zm-160.05-61.83l.15 1.99.19 1.97.23 1.97.25 1.95.3 1.95.33 1.93.36 1.92.39 1.91.43 1.9.46 1.88.5 1.87.53 1.86.55 1.84.6 1.83.62 1.82.65 1.8.69 1.79.71 1.77.75 1.75.77 1.75.81 1.72.83 1.71.86 1.69.9 1.67.92 1.66.95 1.64.97 1.62 1 1.61 1.04 1.58 1.05 1.57 1.09 1.54 1.11 1.53 1.13 1.51 1.17 1.49 1.18 1.46 1.21 1.45 1.24 1.43 1.26 1.4 1.29 1.38.56-.5.57-.5.58-.49.57-.49.58-.49.58-.48.58-.48.59-.47.59-.47.59-.47.59-.46.6-.45.6-.46.6-.44.6-.45.61-.44.61-.43.61-.44.61-.42.62-.43.62-.42.62-.41.62-.41.62-.41.63-.4.63-.4.63-.4.64-.39.64-.39.63-.38.65-.38.64-.37.64-.37.65-.37.65-.36.65-.36.66-.35.65-.35.66-.35.66-.34-.34-1.19-.33-1.2-.33-1.21-.32-1.21-.31-1.22-.31-1.23-.29-1.24-.29-1.24-.28-1.24-.28-1.26-.27-1.26-.26-1.26-.25-1.27-.24-1.28-.24-1.28-.23-1.29-.22-1.3-.21-1.3-.21-1.3-.19-1.31-.19-1.32-.19-1.32-.17-1.33-.17-1.33-.15-1.33-.15-1.34-.15-1.34-.13-1.35-.13-1.36-.12-1.35-.11-1.36-.1-1.37-.09-1.37-.09-1.37-.08-1.37-.07-1.38-.06-1.39-.05-1.38-.05-1.39-.04-1.39h-46.53l.12 1.99zm171.62-.61l-.05 1.39-.05 1.38-.06 1.38-.07 1.38-.08 1.38-.09 1.37-.09 1.36-.11 1.37-.11 1.36-.11 1.35-.13 1.36-.14 1.34-.14 1.35-.15 1.34-.16 1.33-.16 1.33-.18 1.33-.18 1.32-.19 1.32-.2 1.31-.2 1.31-.22 1.3-.22 1.29-.23 1.29-.23 1.29-.25 1.28-.25 1.27-.26 1.27-.26 1.26-.28 1.25-.28 1.25-.29 1.24-.3 1.24-.3 1.22-.31 1.22-.32 1.22-.33 1.21-.33 1.2-.35 1.19.66.34.66.35.66.35.65.35.65.36.65.36.65.37.65.37.64.38.64.38.64.38.64.39.63.39.63.4.63.4.63.4.63.41.62.41.62.42.62.42.62.43.61.42.61.44.61.43.61.44.6.45.6.45.6.45.6.45.59.46.59.47.59.47.58.47.59.48.58.47.58.49.57.49.57.49.57.49.57.5 1.28-1.38 1.26-1.4 1.23-1.43 1.21-1.45 1.19-1.46 1.15-1.49 1.14-1.51 1.11-1.53 1.08-1.54 1.05-1.57 1.03-1.58 1-1.61.98-1.62.95-1.64.92-1.66.89-1.67.86-1.69.83-1.71.81-1.72.77-1.75.75-1.75.71-1.77.69-1.79.65-1.8.63-1.82.59-1.83.56-1.84.53-1.86.49-1.87.47-1.88.43-1.9.4-1.91.36-1.92.33-1.93.3-1.95.26-1.95.23-1.97.19-1.97.15-1.99.12-1.99h-46.53l-.03 1.38zm-114.44.11l.05 1.49.06 1.49.07 1.48.08 1.48.09 1.48.1 1.47.11 1.46.12 1.46.13 1.46.14 1.45.15 1.44.15 1.44.17 1.43.18 1.43.19 1.42.2 1.41.2 1.41.22 1.4.22 1.4.24 1.39.24 1.38.26 1.37.26 1.37.27 1.36.29 1.35.29 1.35.3 1.33.31 1.33.31 1.32.33 1.32.34 1.3.34 1.29.36 1.29 1.11-.44 1.11-.43 1.12-.42 1.12-.41 1.12-.4 1.13-.38 1.13-.38 1.14-.36 1.14-.35 1.15-.34 1.14-.33 1.16-.32 1.15-.3 1.16-.3 1.16-.28 1.17-.27 1.17-.26 1.17-.25 1.17-.24 1.18-.22 1.18-.21 1.18-.21 1.19-.19 1.19-.17 1.19-.17 1.2-.15 1.19-.14 1.2-.13 1.21-.12 1.2-.11 1.21-.09 1.21-.08 1.21-.07 1.21-.06v-39.16h-46.48l.04 1.49zm58.38 37.73l1.21.07 1.21.09 1.21.1 1.2.11 1.21.12 1.19.13 1.2.14 1.2.16 1.19.17 1.19.18 1.18.19 1.19.2 1.18.21 1.18.23 1.17.24 1.17.24 1.17.26 1.17.27 1.16.29 1.16.29 1.15.3 1.15.32 1.15.33 1.15.34 1.14.35 1.13.36 1.14.37 1.13.38 1.12.4 1.12.4 1.12.42 1.11.42 1.11.44.36-1.29.34-1.29.34-1.3.32-1.32.32-1.32.31-1.33.3-1.33.29-1.35.28-1.35.28-1.36.26-1.37.25-1.37.25-1.38.23-1.39.23-1.4.22-1.4.2-1.41.2-1.41.19-1.42.18-1.43.16-1.43.16-1.44.15-1.44.14-1.45.13-1.46.12-1.46.11-1.46.1-1.47.09-1.48.08-1.48.07-1.48.06-1.49.05-1.49.04-1.49h-46.48v39.16l1.21.06zm36.29-96.49l-1.12.42-1.12.4-1.12.4-1.13.38-1.14.37-1.13.37-1.14.35-1.15.34-1.15.33-1.15.31-1.16.31-1.16.3-1.16.28-1.16.27-1.17.27-1.18.25-1.17.23-1.18.23-1.18.22-1.19.2-1.19.2-1.19.18-1.19.17-1.2.15-1.2.15-1.2.13-1.21.12-1.21.12-1.21.09-1.21.09-1.21.07-1.22.07v38.82h46.43l-.04-1.49-.05-1.48-.06-1.48-.07-1.48-.08-1.47-.08-1.46-.1-1.46-.11-1.46-.12-1.45-.13-1.45-.13-1.44-.15-1.43-.16-1.43-.16-1.43-.18-1.42-.18-1.41-.2-1.4-.2-1.4-.21-1.4-.22-1.38-.24-1.38-.24-1.38-.25-1.36-.26-1.36-.26-1.35-.28-1.35-.29-1.33-.29-1.33-.31-1.32-.31-1.31-.33-1.31-.33-1.29-.34-1.29-.35-1.28-1.11.44-1.11.43zm-88.74 1.65l-.33 1.3-.33 1.3-.31 1.31-.3 1.32-.3 1.33-.29 1.34-.27 1.34-.27 1.35-.26 1.36-.25 1.36-.24 1.38-.23 1.38-.23 1.38-.21 1.4-.2 1.4-.2 1.4-.18 1.41-.18 1.42-.16 1.43-.16 1.43-.15 1.43-.13 1.44-.13 1.45-.12 1.45-.11 1.46-.09 1.46-.09 1.46-.08 1.47-.07 1.48-.06 1.48-.05 1.48-.04 1.49h46.43v-38.87l-1.21-.06-1.21-.07-1.21-.08-1.21-.1-1.2-.1-1.21-.12-1.2-.13-1.2-.14-1.19-.16-1.2-.16-1.19-.18-1.19-.19-1.18-.2-1.19-.21-1.18-.23-1.17-.23-1.18-.25-1.17-.26-1.17-.27-1.16-.28-1.16-.3-1.16-.31-1.15-.31-1.15-.33-1.15-.34-1.14-.35-1.14-.37-1.13-.37-1.13-.39-1.13-.39-1.12-.41-1.12-.42-1.11-.43-1.11-.45-.35 1.28-.34 1.29zm124.44-23.02l-.57.49-.58.49-.58.49-.58.49-.59.47-.59.48-.59.47-.59.47-.6.46-.6.46-.6.46-.6.45-.61.45-.6.44-.61.44-.62.44-.61.43-.62.43-.62.42-.62.42-.63.41-.63.41-.63.41-.63.4-.63.4-.64.39-.64.39-.64.39-.64.38-.65.38-.65.37-.65.37-.65.36-.65.36-.66.36-.66.35-.66.35-.67.34.34 1.18.33 1.2.33 1.2.31 1.2.31 1.22.3 1.22.29 1.22.29 1.24.28 1.24.27 1.25.26 1.25.26 1.26.25 1.26.24 1.28.23 1.27.23 1.29.22 1.28.21 1.3.2 1.3.19 1.3.19 1.31.18 1.31.17 1.32.17 1.33.15 1.33.15 1.33.14 1.33.13 1.35.13 1.34.11 1.35.11 1.35.1 1.36.1 1.36.08 1.36.08 1.37.07 1.37.06 1.37.05 1.38.05 1.38.04 1.38h46.53l-.12-1.99-.15-1.98-.19-1.97-.22-1.96-.26-1.95-.3-1.93-.32-1.93-.36-1.91-.4-1.91-.42-1.89-.46-1.88-.49-1.86-.53-1.85-.56-1.84-.58-1.83-.62-1.81-.65-1.8-.68-1.78-.71-1.76-.74-1.76-.78-1.73-.8-1.72-.82-1.71-.86-1.68-.89-1.67-.91-1.66-.94-1.63-.97-1.62-1-1.6-1.02-1.58-1.05-1.56-1.08-1.54-1.1-1.53-1.13-1.5-1.15-1.49-1.18-1.46-1.2-1.44-1.23-1.42-1.25-1.4-1.27-1.38-.57.5-.58.5zm-160.8 1.78l-1.23 1.42-1.2 1.44-1.18 1.46-1.15 1.49-1.13 1.5-1.1 1.53-1.08 1.54-1.05 1.56-1.02 1.58-1 1.6-.97 1.62-.94 1.63-.91 1.66-.89 1.67-.86 1.68-.83 1.71-.8 1.72-.77 1.73-.74 1.76-.71 1.76-.68 1.78-.65 1.8-.62 1.81-.59 1.83-.55 1.84-.53 1.85-.49 1.86-.46 1.88-.43 1.89-.39 1.91-.36 1.91-.33 1.93-.29 1.93-.26 1.95-.22 1.96-.19 1.97-.15 1.98-.12 1.99h46.53l.04-1.38.04-1.38.05-1.38.06-1.37.06-1.37.08-1.37.08-1.36.1-1.36.1-1.35.1-1.35.12-1.35.12-1.35.14-1.33.14-1.34.15-1.33.15-1.33.17-1.32.17-1.32.18-1.31.19-1.31.19-1.3.21-1.3.21-1.29.22-1.29.22-1.29.24-1.27.24-1.27.25-1.27.26-1.26.26-1.25.27-1.25.28-1.24.29-1.24.3-1.23.3-1.22.31-1.22.31-1.21.33-1.2.33-1.19.33-1.19-.66-.35-.66-.35-.66-.35-.66-.36-.65-.36-.65-.37-.65-.37-.65-.37-.65-.38-.64-.38-.64-.39-.64-.39-.64-.39-.63-.4-.64-.4-.63-.41-.62-.41-.63-.41-.62-.42-.62-.42-.62-.43-.61-.43-.62-.43-.61-.44-.6-.44-.61-.45-.6-.45-.6-.46-.6-.45-.6-.47-.59-.46-.59-.47-.59-.48-.59-.48-.58-.48-.58-.49-.58-.49-.58-.49-.57-.5-.57-.5-1.27 1.38-1.25 1.4zm88.91 16.5l1.31-.08 1.3-.11 1.3-.12 1.3-.13 1.3-.15 1.29-.16 1.29-.18 1.28-.2 1.29-.21 1.27-.22 1.28-.24 1.27-.25 1.26-.27 1.26-.28 1.26-.3 1.25-.31 1.25-.33 1.25-.34 1.24-.35 1.23-.37 1.23-.38 1.23-.4 1.22-.41 1.21-.43 1.21-.44 1.21-.46 1.19-.46 1.2-.49-.19-.53-.19-.52-.19-.53-.2-.52-.19-.52-.2-.52-.2-.51-.2-.52-.2-.51-.2-.51-.21-.51-.21-.5-.21-.51-.21-.5-.21-.5-.22-.5-.21-.49-.22-.49-.22-.49-.22-.49-.22-.49-.23-.49-.23-.48-.23-.48-.23-.48-.23-.47-.23-.48-.24-.47-.23-.47-.61-1.15-.63-1.15-.67-1.13-.7-1.12-.73-1.12-.76-1.1-.79-1.1-.83-1.08-.85-1.08-.89-1.07-.92-1.05-.95-1.05-.98-1.04-1.02-1.03-1.04-1.02-1.08-1.01-1.11-1-1.14-.99-1.17-.98-1.2-.97-1.24-.96-1.26-.95-1.3-.95-1.33-.93-1.36-.92-1.39-.92-1.43-.9-1.45-.9-1.49-.89v52.19l1.31-.08zm-14.35-51.48l-1.15.4-1.14.45-1.14.5-1.13.56-1.12.61-1.12.67-1.11.72-1.1.77-1.09.82-1.08.88-1.08.92-1.07.98-1.06 1.03-1.04 1.09-1.04 1.13-1.03 1.18-1.02 1.23-1 1.28-.99 1.33-.99 1.38-.97 1.43-.95 1.48-.95 1.52-.93 1.57-.91 1.62-.91 1.67-.89 1.71-.23.47-.24.47-.23.48-.24.47-.23.48-.22.48-.23.48-.23.49-.22.49-.22.49-.22.49-.22.49-.22.49-.21.5-.21.5-.21.5-.21.51-.21.5-.21.51-.2.51-.2.51-.2.52-.2.51-.2.52-.19.52-.2.52-.19.53-.19.52-.19.53 1.19.49 1.2.46 1.2.46 1.2.44 1.22.43 1.21.41 1.23.4 1.23.38 1.23.37 1.24.35 1.24.34 1.25.33 1.26.31 1.26.3 1.26.28 1.27.27 1.27.25 1.27.24 1.28.22 1.29.21 1.28.2 1.29.18 1.3.16 1.29.15 1.3.13 1.31.12 1.3.11 1.31.08 1.31.08v-52.19l-1.16.29-1.15.34zm-25.95 3l-2.04.68-2.01.71-2 .76-1.98.79-1.96.83-1.94.86-1.91.9-1.9.94-1.88.98-1.86 1-1.83 1.05-1.81 1.07-1.79 1.11-1.77 1.15-1.74 1.18-1.72 1.21-1.69 1.24-1.67 1.27-1.64 1.3-1.62 1.34-1.59 1.36.83.72.83.7.84.7.84.68.85.68.85.67.86.66.87.65.87.64.87.63.89.62.88.61.89.6.9.6.9.58.91.58.91.57.92.55.92.55.93.54.93.53.94.53.94.51.25-.67.26-.67.25-.67.26-.66.26-.66.26-.66.26-.65.27-.65.27-.65.27-.64.27-.64.27-.63.28-.64.28-.63.28-.62.29-.62.28-.62.29-.62.29-.61.29-.61.3-.61.29-.6.3-.6.61-1.18.62-1.17.63-1.14.63-1.13.64-1.11.64-1.09.66-1.07.66-1.05.66-1.04.68-1.01.68-1 .68-.98.7-.96.7-.94.7-.92.72-.9.71-.88.73-.86.73-.84.74-.82.75-.8.75-.78.75-.77-2.06.6-2.05.64zm64.64.31l.75.8.74.82.73.84.72.85.72.88.72.9.7.92.7.94.7.96.68.97.68 1 .68 1.01.66 1.04.66 1.05.66 1.07.64 1.09.64 1.12.63 1.13.63 1.14.62 1.17.61 1.19.3.6.3.6.3.61.3.61.29.61.3.62.28.62.29.62.28.62.28.63.28.64.28.63.27.64.27.64.26.65.27.65.26.65.26.66.25.66.25.66.25.67.25.67.24.67.95-.51.94-.53.93-.53.93-.54.92-.55.92-.55.92-.57.91-.58.9-.58.9-.6.89-.6.89-.61.89-.62.87-.63.87-.64.87-.65.86-.66.85-.67.85-.68.84-.68.83-.7.83-.7.82-.72-1.59-1.36-1.62-1.34-1.64-1.3-1.67-1.27-1.69-1.24-1.72-1.21-1.74-1.18-1.77-1.15-1.79-1.11-1.81-1.07-1.83-1.05-1.86-1-1.88-.98-1.9-.94-1.92-.9-1.93-.86-1.96-.83-1.98-.79-2-.76-2.01-.71-2.04-.68-2.05-.64-2.07-.6.76.76.75.79z" id="a"/><path d="M99.81 91.39l1.67.16 1.66.25 1.63.3 1.61.36 1.59.43 1.57.49 1.53.54 1.51.61 1.48.66 1.45.72 1.42.77 1.37.83 1.35.88 1.31.92 1.28.97 1.24 1.03 1.19 1.06 1.16 1.11 1.1 1.16 1.07 1.19 1.03 1.24.96 1.27.93 1.31.88 1.36.82 1.37.78 1.42.71 1.45.66 1.48.61 1.5.55 1.54.49 1.57.43 1.59.36 1.61.3 1.63.24 1.65.17 1.68.11 1.7.03 1.7-.03 1.72-.11 1.69-.17 1.67-.24 1.66-.3 1.64-.36 1.61-.43 1.58-.49 1.57-.55 1.53-.61 1.52-.66 1.47-.71 1.45-.78 1.41-.82 1.39-.88 1.34-.93 1.32-.96 1.27-1.03 1.23-1.07 1.21-1.1 1.15-1.16 1.1-1.19 1.08-1.24 1.02-1.28.97-1.31.93-1.35.87-1.37.82-1.42.78-1.45.72-1.48.66-1.51.6-1.53.55-1.57.5-1.59.41-1.61.37-1.63.31-1.66.24-1.67.17-1.7.1-1.71.04-1.71-.04-1.69-.1-1.68-.17-1.65-.24-1.64-.31-1.61-.37-1.59-.41-1.56-.5-1.53-.55-1.52-.6-1.47-.66-1.45-.72-1.42-.78-1.38-.82-1.34-.87-1.33-.93-1.26-.97-1.24-1.02-1.2-1.07-1.15-1.11-1.12-1.15-1.06-1.21-1.02-1.23-.98-1.27-.92-1.32-.87-1.34-.83-1.39-.77-1.41-.72-1.45-.67-1.47-.6-1.52-.54-1.53-.5-1.57-.43-1.58-.36-1.62-.3-1.63-.24-1.66-.17-1.67-.11-1.7-.03-1.71.03-1.7.11-1.7.17-1.68.24-1.65.3-1.63.36-1.61.43-1.59.5-1.57.54-1.54.6-1.5.67-1.48.72-1.45.77-1.42.83-1.38.87-1.35.92-1.31.98-1.27 1.02-1.24 1.06-1.19 1.12-1.16 1.15-1.11 1.2-1.07 1.24-1.02 1.26-.97 1.33-.93 1.34-.87 1.38-.83 1.42-.77 1.45-.72 1.47-.66 1.52-.61 1.53-.54 1.57-.49 1.58-.43 1.62-.36 1.63-.3 1.65-.25 1.68-.16 1.7-.11 1.7-.03 1.71.03 1.7.11zm-6.22 20.87l-1.37.24-1.34.32-1.31.41-1.25.48-1.23.57-1.18.65-1.14.72-1.08.78-1.03.85-.97.91-.91.98-.86 1.03-.78 1.07-.71 1.14-.65 1.18-.57 1.23-.49 1.26-.41 1.3-.32 1.34-.23 1.37-.15 1.4-.04 1.41.04 1.42.15 1.4.23 1.37.32 1.33.41 1.31.49 1.26.57 1.22.65 1.18.71 1.14.78 1.09.86 1.03.91.96.97.92 1.03.85 1.08.79 1.14.71 1.18.64 1.23.57 1.25.49 1.31.4 1.34.33 1.37.23 1.4.14 1.41.06 1.42-.06 1.4-.14 1.37-.23 1.33-.33 1.3-.4 1.27-.49 1.22-.57 1.19-.64 1.12-.71 1.09-.79 1.03-.85.98-.92.91-.96.85-1.03.78-1.09.72-1.14.64-1.18.57-1.22.49-1.26.4-1.31.33-1.33.23-1.36.14-1.4.06-1.43-.06-1.41-.14-1.4-.23-1.36-.33-1.35-.4-1.3-.49-1.26-.57-1.23-.64-1.18-.72-1.13-.78-1.08-.85-1.03-.91-.98-.98-.91-1.03-.85-1.09-.78-1.12-.72-1.19-.65-1.22-.57-1.27-.48-1.3-.41-1.33-.32-1.37-.24-1.4-.14-1.42-.05-1.41.05-1.4.14z" id="b"/><path d="M593.12 60.02l1.12.08 1.09.13 1.1.17 1.08.21 1.07.27 1.05.31 1.04.35 1.03.39 1 .44 1 .49.97.51.94.56.93.6.92.64.88.66.86.71.83.74.81.76.78.81.77.84.72.87.69.89.67.92.63.96.59.97.57 1 .53 1.03.49 1.06.45 1.07.42 1.08.38 1.12.34 1.14.29 1.15.26 1.17.2 1.19.17 1.2.11 1.22.08 1.23.02 1.25v406.17l-.01 1.05-.01 1.07-.02 1.1-.04 1.13-.03 1.14-.04 1.16-.05 1.18-.07 1.19-.06 1.21-.08 1.22-.08 1.23-.1 1.24-.11 1.23-.12 1.25-.12 1.24-.13 1.26-.15 1.24-.17 1.24-.16 1.24-.18 1.23-.19 1.22-.21 1.22-.22 1.2-.23 1.18-.24 1.17-.26 1.16-.27 1.13-.29 1.11-.3 1.09-.31 1.06-.34 1.04-.34 1.01-.35.98-.38.95-.4.9-.4.88-.43.84-.44.79-.47.75-.69 1.07-.72.99-.73.95-.76.9-.77.85-.77.8-.8.77-.79.71-.81.67-.8.62-.82.6-.8.54-.82.52-.8.47-.8.44-.79.41-.79.38-.77.34-.76.31-.74.29-.73.26-.71.22-.69.22-.66.18-.64.16-.61.15-.58.12-.55.11-.53.09-.48.08-.44.06-.41.05-.36.04-.34.03-.27.02-.24.01-.18.02H52l-.03.01h-.67l-.3-.01-.33-.02-.39-.02-.43-.03-.47-.04-.5-.06-.55-.07-.57-.09-.61-.1-.65-.12-.66-.14-.69-.17-.72-.19-.74-.21-.76-.25-.78-.27-.79-.3-.8-.33-.81-.37-.83-.39-.84-.44-.83-.48-.84-.51-.84-.56-.84-.6-.83-.64-.83-.69-.83-.73-.8-.79-.81-.83-.78-.9-.78-.94-.75-1-.74-1.05-.71-1.12-.43-.73-.4-.78-.4-.84-.38-.86-.35-.91-.35-.95-.33-.98-.31-1.01-.3-1.05-.28-1.07-.27-1.11-.26-1.12-.23-1.15-.23-1.17-.21-1.18-.21-1.21-.19-1.22-.17-1.22-.32-2.5-.28-2.51-.12-1.27-.11-1.25-.11-1.27-.09-1.25-.09-1.25-.07-1.24-.13-2.44-.06-1.21-.04-1.18-.04-1.17-.03-1.14-.03-1.13-.02-1.09-.02-1.06-.01-1.05V90.21l.02-1.25.08-1.23.11-1.22.17-1.2.2-1.19.26-1.17.3-1.15.33-1.14.39-1.12.42-1.09.46-1.06.49-1.06.54-1.03.58-1 .6-.97.64-.96.68-.92.71-.89.74-.87.77-.84.81-.81.83-.77.86-.73.89-.71.91-.66.93-.64.97-.6.99-.56 1.01-.51 1.03-.49 1.04-.44 1.07-.39 1.1-.36 1.11-.3 1.11-.27 1.14-.21 1.16-.17 1.17-.13 1.18-.08 1.19-.02H592l1.12.02zM39.99 518.26l.02.69.04.67.07.67.09.66.13.65.14.64.17.63.19.62.22.61.23.61.27.59.28.57.31.57.33.54.34.54.38.52.37.5.41.49.43.48.44.46.45.44.47.42.5.41.5.38.53.37.52.34.56.33.56.3.58.29.58.26.6.24.61.22.63.2.63.16.64.15.65.12.66.09.67.07.68.04.67.01h526.92l.67-.01.68-.04.67-.07.66-.09.65-.12.64-.15.63-.16.63-.2.61-.22.6-.24.58-.26.58-.29.56-.3.56-.33.52-.34.53-.37.5-.38.5-.41.47-.42.45-.44.44-.46.43-.48.41-.49.37-.5.38-.52.34-.54.33-.54.31-.57.28-.57.27-.59.23-.61.22-.61.19-.62.17-.63.14-.64.13-.65.09-.66.07-.67.04-.67.02-.69V200.67H39.99v317.59zm8.56-437.42l-.36.02-.37.05-.35.05-.36.07-.34.08-.34.1-.34.11-.33.12-.32.13-.32.15-.31.16-.61.37-.29.19-.27.22-.27.21-.27.23-.26.25-.25.24-.23.26-.23.27-.22.28-.21.29-.19.29-.19.3-.18.31-.32.64-.14.34-.13.34-.21.69-.09.36-.08.36-.07.37-.04.37-.03.37-.02.39-.02.39v94.77h560.02V90.12l-.02-.39-.02-.37-.04-.38-.05-.37-.07-.37-.07-.36-.1-.36-.11-.34-.12-.34-.12-.35-.15-.33-.16-.32-.34-.63-.19-.3-.2-.29-.21-.29-.21-.28-.48-.51-.24-.25-.26-.23-.27-.24-.28-.22-.28-.2-.29-.19-.3-.19-.3-.17-.32-.16-.31-.14-.34-.14-.32-.12-.34-.1-.35-.1-.34-.07-.35-.07-.36-.05-.36-.05-.37-.02H48.92l-.37.01z" id="c"/><path d="M196.45 91.39l1.68.16 1.65.25 1.64.3 1.61.36 1.59.43 1.56.49 1.54.54 1.5.61 1.48.66 1.45.72 1.42.77 1.39.83 1.34.88 1.31.92 1.28.97 1.23 1.03 1.19 1.06 1.16 1.11 1.11 1.16 1.07 1.19 1.02 1.24.97 1.27.92 1.31.88 1.36.83 1.37.77 1.42.71 1.45.67 1.48.61 1.5.55 1.54.48 1.57.43 1.59.37 1.61.3 1.63.23 1.65.17 1.68.11 1.7.03 1.7-.03 1.72-.11 1.69-.17 1.67-.23 1.66-.3 1.64-.37 1.61-.43 1.58-.48 1.57-.55 1.53-.61 1.52-.67 1.47-.71 1.45-.77 1.41-.83 1.39-.88 1.34-.92 1.32-.97 1.27-1.03 1.23-1.06 1.21-1.11 1.15-1.16 1.1-1.19 1.08-1.23 1.02-1.28.97-1.31.93-1.35.87-1.38.82-1.42.78-1.45.72-1.48.66-1.5.6-1.54.55-1.56.5-1.59.41-1.61.37-1.64.31-1.65.24-1.68.17-1.69.1-1.71.04-1.71-.04-1.69-.1-1.68-.17-1.65-.24-1.65-.31-1.61-.37-1.59-.41-1.55-.5-1.54-.55-1.51-.6-1.47-.66-1.45-.72-1.42-.78-1.39-.82-1.34-.87-1.32-.93-1.27-.97-1.23-1.02-1.2-1.07-1.15-1.11-1.12-1.15-1.06-1.21-1.02-1.23-.98-1.27-.92-1.32-.87-1.34-.83-1.39-.77-1.41-.72-1.45-.67-1.47-.6-1.52-.55-1.53-.49-1.57-.43-1.58-.37-1.62-.3-1.63-.23-1.66-.18-1.67-.1-1.7-.04-1.71.04-1.7.1-1.7.18-1.68.23-1.65.3-1.63.37-1.61.43-1.59.49-1.57.55-1.54.6-1.5.67-1.48.72-1.45.77-1.42.83-1.38.87-1.35.92-1.31.98-1.27 1.02-1.24 1.06-1.19 1.12-1.16 1.15-1.11 1.2-1.07 1.23-1.02 1.27-.97 1.32-.93 1.34-.87 1.39-.83 1.42-.77 1.45-.72 1.47-.66 1.51-.61 1.54-.54 1.56-.49 1.58-.43 1.62-.36 1.64-.3 1.65-.25 1.68-.16 1.69-.11 1.71-.03 1.71.03 1.69.11zm-6.21 20.87l-1.38.24-1.33.32-1.31.41-1.26.48-1.22.57-1.18.65-1.14.72-1.08.78-1.04.85-.96.91-.91.98-.85 1.03-.8 1.07-.71 1.14-.64 1.18-.57 1.23-.49 1.26-.4 1.3-.32 1.34-.24 1.37-.15 1.4-.04 1.41.04 1.42.15 1.4.24 1.37.32 1.33.4 1.31.49 1.26.57 1.22.64 1.18.71 1.14.79 1.09.86 1.03.91.96.96.92 1.04.85 1.08.79 1.14.71 1.18.64 1.22.57 1.26.49 1.31.4 1.33.33 1.38.23 1.39.14 1.42.06 1.42-.06 1.39-.14 1.38-.23 1.33-.33 1.3-.4 1.27-.49 1.22-.57 1.18-.64 1.14-.71 1.07-.79 1.03-.85.98-.92.91-.96.85-1.03.79-1.09.72-1.14.64-1.18.57-1.22.48-1.26.41-1.31.32-1.33.24-1.36.14-1.4.05-1.43-.05-1.41-.14-1.4-.24-1.36-.32-1.35-.41-1.3-.48-1.26-.57-1.23-.64-1.18-.72-1.13-.79-1.08-.85-1.03-.91-.98-.98-.91-1.03-.85-1.07-.78-1.14-.72-1.18-.65-1.22-.57-1.27-.48-1.3-.41-1.33-.32-1.38-.24-1.39-.14-1.42-.05-1.42.05-1.39.14z" id="d"/><path d="M294.2 91.39l1.67.16 1.65.25 1.65.3 1.61.36 1.59.43 1.55.49 1.54.54 1.51.61 1.48.66 1.45.72 1.41.77 1.39.83 1.34.88 1.32.92 1.27.97 1.23 1.03 1.21 1.06 1.14 1.11 1.12 1.16 1.06 1.19 1.02 1.24.98 1.27.93 1.31.87 1.36.82 1.37.78 1.42.71 1.45.67 1.48.6 1.5.55 1.54.49 1.57.42 1.59.38 1.61.3 1.63.24 1.65.17 1.68.09 1.7.05 1.7-.05 1.72-.09 1.69-.17 1.67-.24 1.66-.3 1.64-.38 1.61-.42 1.58-.49 1.57-.55 1.53-.6 1.52-.67 1.47-.71 1.45-.78 1.41-.82 1.39-.87 1.34-.93 1.32-.98 1.27-1.02 1.23-1.06 1.21-1.12 1.15-1.14 1.1-1.21 1.08-1.23 1.02-1.27.97-1.32.93-1.34.87-1.39.82-1.41.78-1.45.72-1.48.66-1.51.6-1.54.55-1.55.5-1.59.41-1.61.37-1.65.31-1.65.24-1.67.17-1.7.1-1.71.04-1.71-.04-1.69-.1-1.68-.17-1.65-.24-1.63-.31-1.61-.37-1.59-.41-1.57-.5-1.54-.55-1.5-.6-1.48-.66-1.45-.72-1.42-.78-1.37-.82-1.36-.87-1.31-.93-1.28-.97-1.23-1.02-1.19-1.07-1.16-1.11-1.11-1.15-1.07-1.21-1.02-1.23-.97-1.27-.92-1.32-.88-1.34-.83-1.39-.77-1.41-.72-1.45-.66-1.47-.61-1.52-.55-1.53-.48-1.57-.43-1.58-.36-1.62-.31-1.63-.23-1.66-.17-1.67-.11-1.7-.03-1.71.03-1.7.11-1.7.17-1.68.23-1.65.31-1.63.36-1.61.43-1.59.48-1.57.55-1.54.61-1.5.66-1.48.72-1.45.77-1.42.83-1.38.88-1.35.92-1.31.97-1.27 1.02-1.24 1.07-1.19 1.11-1.16 1.16-1.11 1.19-1.07 1.23-1.02 1.28-.97 1.31-.93 1.36-.87 1.37-.83 1.42-.77 1.45-.72 1.48-.66 1.5-.61 1.54-.54 1.57-.49 1.59-.43 1.61-.36 1.63-.3 1.65-.25 1.68-.16 1.69-.11 1.71-.03 1.72.03 1.69.11zm-6.22 20.87l-1.37.24-1.34.32-1.3.41-1.26.48-1.23.57-1.18.65-1.13.72-1.08.78-1.03.85-.98.91-.91.98-.85 1.03-.79 1.07-.71 1.14-.65 1.18-.57 1.23-.48 1.26-.41 1.3-.32 1.34-.24 1.37-.14 1.4-.05 1.41.05 1.42.14 1.4.24 1.37.32 1.33.41 1.31.48 1.26.57 1.22.65 1.18.71 1.14.79 1.09.85 1.03.91.96.98.92 1.03.85 1.08.79 1.13.71 1.18.64 1.23.57 1.26.49 1.3.4 1.34.33 1.37.23 1.39.14 1.42.06 1.43-.06 1.4-.14 1.36-.23 1.33-.33 1.31-.4 1.26-.49 1.22-.57 1.18-.64 1.14-.71 1.09-.79 1.03-.85.96-.92.92-.96.85-1.03.79-1.09.71-1.14.64-1.18.57-1.22.48-1.26.41-1.31.32-1.33.24-1.36.15-1.4.04-1.43-.04-1.41-.15-1.4-.24-1.36-.32-1.35-.41-1.3-.48-1.26-.57-1.23-.64-1.18-.71-1.13-.79-1.08-.85-1.03-.92-.98-.96-.91-1.03-.85-1.09-.78-1.14-.72-1.18-.65-1.22-.57-1.26-.48-1.31-.41-1.33-.32-1.36-.24-1.4-.14-1.43-.05-1.42.05-1.39.14z" id="e"/></defs><use xlink:href="#a"/><use xlink:href="#a" fill-opacity="0" stroke="#000" stroke-opacity="0"/><g><use xlink:href="#b"/><use xlink:href="#b" fill-opacity="0" stroke="#000" stroke-opacity="0"/><use xlink:href="#c"/><use xlink:href="#c" fill-opacity="0" stroke="#000" stroke-opacity="0"/><g><use xlink:href="#d"/><use xlink:href="#d" fill-opacity="0" stroke="#000" stroke-opacity="0"/></g><g><use xlink:href="#e"/><use xlink:href="#e" fill-opacity="0" stroke="#000" stroke-opacity="0"/></g></g></svg>
