<svg xmlns="http://www.w3.org/2000/svg" width="512" height="512" viewBox="0 0 512 512" preserveAspectRatio="xMidYMid meet" fill="#FFFFFF"><path data-old_color="#000000" class="active-path" data-original="#000000" d="M5.03 230.17a9.026 9.026 0 0 1 1.95-9.844l108.197-108.178a9.017 9.017 0 1 1 12.77 12.733l-92.832 92.832H175.66V19.326a9.016 9.016 0 0 1 9.017-9.017h306.591c.286 0 .543.138.82.166.505.046.947.166 1.425.285a8.759 8.759 0 0 1 2.337.975c.23.148.516.148.736.304.276.212.497.47.746.7.156.146.322.275.46.422a8.995 8.995 0 0 1 1.656 2.466c.092.184.129.359.202.534.377 1.012.635 2.07.635 3.165v414.797a8.897 8.897 0 0 1-.644 3.202c-.129.331-.322.616-.488.92a8.676 8.676 0 0 1-3.735 3.763c-.34.184-.644.368-1.012.497-.147.055-.267.165-.414.22L295.613 505.84a9.035 9.035 0 0 1-11.74-8.602v-54.099h-99.206a9.016 9.016 0 0 1-9.017-9.016V235.745H35.115l92.822 92.813a9.017 9.017 0 1 1-12.751 12.752L6.99 233.114a9.072 9.072 0 0 1-1.96-2.944zm296.876 254.748l180.345-57.392V31.654L301.906 89.046zm-108.214-59.811h90.173V82.449a9.016 9.016 0 0 1 6.293-8.593l143.028-45.514H193.7v396.765z"/><path data-old_color="#000000" class="active-path" data-original="#000000" d="M316.59 290.487l45.082-18.032a9.017 9.017 0 1 1 6.698 16.744l-45.082 18.042a9.022 9.022 0 0 1-6.698-16.754z"/></svg>