<svg xmlns="http://www.w3.org/2000/svg" width="512" height="512" viewBox="0 0 512 512" preserveAspectRatio="xMidYMid meet" fill="#FFFFFF"><path d="M443.55 422.316c39.13-44.103 62.966-102.07 62.966-165.52 0-66.014-25.795-126.09-67.78-170.79-.036-.053-.089-.07-.115-.114-43.734-46.493-105.013-76.25-173.163-78.578l-.009-.009-4.867-.132a107.857 107.857 0 0 0-3.777-.088c-1.266 0-2.522.044-3.778.088l-4.85.132h-.009C180.01 9.642 118.74 39.4 75.005 85.892c-.035.044-.087.061-.114.114v.017C32.888 130.707 7.084 190.783 7.084 256.797c0 63.449 23.836 121.416 62.966 165.52.044.07.044.157.106.236.158.211.378.317.545.519 43.962 49.146 107.051 80.81 177.45 83.216l.009.01 4.85.131c1.264.035 2.52.08 3.786.08 1.265 0 2.521-.045 3.778-.089l4.85-.131h.008c70.478-2.425 133.628-34.15 177.6-83.402.105-.149.29-.184.395-.351.07-.061.07-.15.114-.228zM24.533 265.406h103.353a318.212 318.212 0 0 0 20.795 105.199 317.51 317.51 0 0 0-69.845 35.572 231.411 231.411 0 0 1-54.303-140.77zm59.003-163.41a316.727 316.727 0 0 0 68.027 33.429 317.966 317.966 0 0 0-23.677 112.762H24.533a231.472 231.472 0 0 1 59.003-146.191zm405.54 146.19H385.723a317.966 317.966 0 0 0-23.677-112.761 316.727 316.727 0 0 0 68.027-33.42 231.472 231.472 0 0 1 59.003 146.182zm-240.881-112.26a301.019 301.019 0 0 1-72.947-11.044 301.265 301.265 0 0 1 72.947-95.033zm0 17.219v95.042h-103.09a300.729 300.729 0 0 1 22.966-107.42 318.15 318.15 0 0 0 80.124 12.387zm17.22 0a317.887 317.887 0 0 0 80.141-12.379 300.729 300.729 0 0 1 22.957 107.42H265.414v-95.032zm0-17.22V29.85a301.265 301.265 0 0 1 72.946 95.033 301.019 301.019 0 0 1-72.947 11.043zm89.63-16.28a317.992 317.992 0 0 0-67.922-93.302 231.815 231.815 0 0 1 130.73 63.019 299.499 299.499 0 0 1-62.809 30.284zm-196.48 0a299.235 299.235 0 0 1-62.808-30.283 231.789 231.789 0 0 1 130.737-63.01 317.86 317.86 0 0 0-67.93 93.294zm-13.46 145.762h103.09v86.432a317.597 317.597 0 0 0-83.19 13.266 300.729 300.729 0 0 1-19.9-99.698zm103.09 103.669v114.677a301.115 301.115 0 0 1-76.496-102.615 300.228 300.228 0 0 1 76.496-12.062zm17.22 114.677V369.067c26.171.73 51.808 4.78 76.495 12.054a301.071 301.071 0 0 1-76.496 102.615zm0-131.906v-86.44h103.089a300.606 300.606 0 0 1-19.908 99.715 317.123 317.123 0 0 0-83.182-13.283zm120.308-86.432h103.353a231.367 231.367 0 0 1-54.303 140.77 317.51 317.51 0 0 0-69.845-35.572 318.001 318.001 0 0 0 20.795-105.198zM90.538 419.075a300.087 300.087 0 0 1 64.732-32.56 317.738 317.738 0 0 0 71.216 100.726 231.99 231.99 0 0 1-135.948-68.167zm196.585 68.175a317.544 317.544 0 0 0 71.216-100.735 300.29 300.29 0 0 1 64.732 32.56 231.99 231.99 0 0 1-135.948 68.175z" data-original="#000000" class="active-path" data-old_color="#000000"/></svg>