<svg xmlns="http://www.w3.org/2000/svg" width="512" height="512" viewBox="0 0 512 512" preserveAspectRatio="xMidYMid meet" fill="#FFFFFF"><path d="M257.656 141.823c36.536 0 66.276-29.731 66.276-66.267 0-36.537-29.748-66.276-66.276-66.276-36.528 0-66.276 29.74-66.276 66.276s29.74 66.275 66.276 66.275zm0-115.966c27.415 0 49.707 22.292 49.707 49.707s-22.292 49.698-49.707 49.698-49.707-22.292-49.707-49.706c0-27.415 22.292-49.707 49.707-49.707zm0 347.913c-36.536 0-66.276 29.732-66.276 66.268s29.74 66.275 66.276 66.275 66.276-29.74 66.276-66.275c0-36.536-29.74-66.276-66.276-66.276zm0 115.966c-27.415 0-49.707-22.292-49.707-49.707s22.292-49.698 49.707-49.698 49.707 22.292 49.707 49.707c0 27.414-22.292 49.706-49.707 49.706zm0-298.215c-36.536 0-66.276 29.74-66.276 66.276s29.74 66.275 66.276 66.275 66.276-29.74 66.276-66.275c0-36.537-29.74-66.276-66.276-66.276zm0 115.982c-27.415 0-49.707-22.292-49.707-49.706 0-27.415 22.292-49.707 49.707-49.707s49.707 22.292 49.707 49.707c0 27.414-22.292 49.706-49.707 49.706z" data-original="#000000" class="active-path" data-old_color="#ffffff"/></svg>