<svg xmlns="http://www.w3.org/2000/svg" xmlns:xlink="http://www.w3.org/1999/xlink" width="640" height="640" preserveAspectRatio="xMidYMid meet" fill="#FFFFFF"><defs><path d="M333.13 356.98v-91.89c0-7.25-5.91-13.13-13.13-13.13-7.25 0-13.13 5.88-13.13 13.13v91.89h-91.89c-7.24 0-13.12 5.88-13.12 13.12 0 7.22 5.88 13.13 13.12 13.13h91.89v91.89c0 7.22 5.88 13.13 13.13 13.13 7.22 0 13.13-5.91 13.13-13.13v-91.89h91.89c7.22 0 13.12-5.91 13.12-13.13 0-7.24-5.9-13.12-13.12-13.12h-91.89z" id="a"/><path d="M99.81 91.39l1.67.16 1.66.25 1.63.3 1.61.36 1.59.43 1.57.49 1.53.54 1.51.61 1.48.66 1.45.72 1.42.77 1.37.83 1.35.88 1.31.92 1.28.97 1.24 1.03 1.19 1.06 1.16 1.11 1.1 1.16 1.07 1.19 1.03 1.24.96 1.27.93 1.31.88 1.36.82 1.37.78 1.42.71 1.45.66 1.48.61 1.5.55 1.54.49 1.57.43 1.59.36 1.61.3 1.63.24 1.65.17 1.68.11 1.7.03 1.7-.03 1.72-.11 1.69-.17 1.67-.24 1.66-.3 1.64-.36 1.61-.43 1.58-.49 1.57-.55 1.53-.61 1.52-.66 1.47-.71 1.45-.78 1.41-.82 1.39-.88 1.34-.93 1.32-.96 1.27-1.03 1.23-1.07 1.21-1.1 1.15-1.16 1.1-1.19 1.08-1.24 1.02-1.28.97-1.31.93-1.35.87-1.37.82-1.42.78-1.45.72-1.48.66-1.51.6-1.53.55-1.57.5-1.59.41-1.61.37-1.63.31-1.66.24-1.67.17-1.7.1-1.71.04-1.71-.04-1.69-.1-1.68-.17-1.65-.24-1.64-.31-1.61-.37-1.59-.41-1.56-.5-1.53-.55-1.52-.6-1.47-.66-1.45-.72-1.42-.78-1.38-.82-1.34-.87-1.33-.93-1.26-.97-1.24-1.02-1.2-1.07-1.15-1.11-1.12-1.15-1.06-1.21-1.02-1.23-.98-1.27-.92-1.32-.87-1.34-.83-1.39-.77-1.41-.72-1.45-.67-1.47-.6-1.52-.54-1.53-.5-1.57-.43-1.58-.36-1.62-.3-1.63-.24-1.66-.17-1.67-.11-1.7-.03-1.71.03-1.7.11-1.7.17-1.68.24-1.65.3-1.63.36-1.61.43-1.59.5-1.57.54-1.54.6-1.5.67-1.48.72-1.45.77-1.42.83-1.38.87-1.35.92-1.31.98-1.27 1.02-1.24 1.06-1.19 1.12-1.16 1.15-1.11 1.2-1.07 1.24-1.02 1.26-.97 1.33-.93 1.34-.87 1.38-.83 1.42-.77 1.45-.72 1.47-.66 1.52-.61 1.53-.54 1.57-.49 1.58-.43 1.62-.36 1.63-.3 1.65-.25 1.68-.16 1.7-.11 1.7-.03 1.71.03 1.7.11zm-6.22 20.87l-1.37.24-1.34.32-1.31.41-1.25.48-1.23.57-1.18.65-1.14.72-1.08.78-1.03.85-.97.91-.91.98-.86 1.03-.78 1.07-.71 1.14-.65 1.18-.57 1.23-.49 1.26-.41 1.3-.32 1.34-.23 1.37-.15 1.4-.04 1.41.04 1.42.15 1.4.23 1.37.32 1.33.41 1.31.49 1.26.57 1.22.65 1.18.71 1.14.78 1.09.86 1.03.91.96.97.92 1.03.85 1.08.79 1.14.71 1.18.64 1.23.57 1.25.49 1.31.4 1.34.33 1.37.23 1.4.14 1.41.06 1.42-.06 1.4-.14 1.37-.23 1.33-.33 1.3-.4 1.27-.49 1.22-.57 1.19-.64 1.12-.71 1.09-.79 1.03-.85.98-.92.91-.96.85-1.03.78-1.09.72-1.14.64-1.18.57-1.22.49-1.26.4-1.31.33-1.33.23-1.36.14-1.4.06-1.43-.06-1.41-.14-1.4-.23-1.36-.33-1.35-.4-1.3-.49-1.26-.57-1.23-.64-1.18-.72-1.13-.78-1.08-.85-1.03-.91-.98-.98-.91-1.03-.85-1.09-.78-1.12-.72-1.19-.65-1.22-.57-1.27-.48-1.3-.41-1.33-.32-1.37-.24-1.4-.14-1.42-.05-1.41.05-1.4.14z" id="b"/><path d="M593.12 60.02l1.12.08 1.09.13 1.1.17 1.08.21 1.07.27 1.05.31 1.04.35 1.03.39 1 .44 1 .49.97.51.94.56.93.6.92.64.88.66.86.71.83.74.81.76.78.81.77.84.72.87.69.89.67.92.63.96.59.97.57 1 .53 1.03.49 1.06.45 1.07.42 1.08.38 1.12.34 1.14.29 1.15.26 1.17.2 1.19.17 1.2.11 1.22.08 1.23.02 1.25v406.17l-.01 1.05-.01 1.07-.02 1.1-.04 1.13-.03 1.14-.04 1.16-.05 1.18-.07 1.19-.06 1.21-.08 1.22-.08 1.23-.1 1.24-.11 1.23-.12 1.25-.12 1.24-.13 1.26-.15 1.24-.17 1.24-.16 1.24-.18 1.23-.19 1.22-.21 1.22-.22 1.2-.23 1.18-.24 1.17-.26 1.16-.27 1.13-.29 1.11-.3 1.09-.31 1.06-.34 1.04-.34 1.01-.35.98-.38.95-.4.9-.4.88-.43.84-.44.79-.47.75-.69 1.07-.72.99-.73.95-.76.9-.77.85-.77.8-.8.77-.79.71-.81.67-.8.62-.82.6-.8.54-.82.52-.8.47-.8.44-.79.41-.79.38-.77.34-.76.31-.74.29-.73.26-.71.22-.69.22-.66.18-.64.16-.61.15-.58.12-.55.11-.53.09-.48.08-.44.06-.41.05-.36.04-.34.03-.27.02-.24.01-.18.02H52l-.03.01h-.67l-.3-.01-.33-.02-.39-.02-.43-.03-.47-.04-.5-.06-.55-.07-.57-.09-.61-.1-.65-.12-.66-.14-.69-.17-.72-.19-.74-.21-.76-.25-.78-.27-.79-.3-.8-.33-.81-.37-.83-.39-.84-.44-.83-.48-.84-.51-.84-.56-.84-.6-.83-.64-.83-.69-.83-.73-.8-.79-.81-.83-.78-.9-.78-.94-.75-1-.74-1.05-.71-1.12-.43-.73-.4-.78-.4-.84-.38-.86-.35-.91-.35-.95-.33-.98-.31-1.01-.3-1.05-.28-1.07-.27-1.11-.26-1.12-.23-1.15-.23-1.17-.21-1.18-.21-1.21-.19-1.22-.17-1.22-.32-2.5-.28-2.51-.12-1.27-.11-1.25-.11-1.27-.09-1.25-.09-1.25-.07-1.24-.13-2.44-.06-1.21-.04-1.18-.04-1.17-.03-1.14-.03-1.13-.02-1.09-.02-1.06-.01-1.05V90.21l.02-1.25.08-1.23.11-1.22.17-1.2.2-1.19.26-1.17.3-1.15.33-1.14.39-1.12.42-1.09.46-1.06.49-1.06.54-1.03.58-1 .6-.97.64-.96.68-.92.71-.89.74-.87.77-.84.81-.81.83-.77.86-.73.89-.71.91-.66.93-.64.97-.6.99-.56 1.01-.51 1.03-.49 1.04-.44 1.07-.39 1.1-.36 1.11-.3 1.11-.27 1.14-.21 1.16-.17 1.17-.13 1.18-.08 1.19-.02H592l1.12.02zM39.99 518.26l.02.69.04.67.07.67.09.66.13.65.14.64.17.63.19.62.22.61.23.61.27.59.28.57.31.57.33.54.34.54.38.52.37.5.41.49.43.48.44.46.45.44.47.42.5.41.5.38.53.37.52.34.56.33.56.3.58.29.58.26.6.24.61.22.63.2.63.16.64.15.65.12.66.09.67.07.68.04.67.01h526.92l.67-.01.68-.04.67-.07.66-.09.65-.12.64-.15.63-.16.63-.2.61-.22.6-.24.58-.26.58-.29.56-.3.56-.33.52-.34.53-.37.5-.38.5-.41.47-.42.45-.44.44-.46.43-.48.41-.49.37-.5.38-.52.34-.54.33-.54.31-.57.28-.57.27-.59.23-.61.22-.61.19-.62.17-.63.14-.64.13-.65.09-.66.07-.67.04-.67.02-.69V200.67H39.99v317.59zm8.56-437.42l-.36.02-.37.05-.35.05-.36.07-.34.08-.34.1-.34.11-.33.12-.32.13-.32.15-.31.16-.61.37-.29.19-.27.22-.27.21-.27.23-.26.25-.25.24-.23.26-.23.27-.22.28-.21.29-.19.29-.19.3-.18.31-.32.64-.14.34-.13.34-.21.69-.09.36-.08.36-.07.37-.04.37-.03.37-.02.39-.02.39v94.77h560.02V90.12l-.02-.39-.02-.37-.04-.38-.05-.37-.07-.37-.07-.36-.1-.36-.11-.34-.12-.34-.12-.35-.15-.33-.16-.32-.34-.63-.19-.3-.2-.29-.21-.29-.21-.28-.48-.51-.24-.25-.26-.23-.27-.24-.28-.22-.28-.2-.29-.19-.3-.19-.3-.17-.32-.16-.31-.14-.34-.14-.32-.12-.34-.1-.35-.1-.34-.07-.35-.07-.36-.05-.36-.05-.37-.02H48.92l-.37.01z" id="c"/><path d="M196.45 91.39l1.68.16 1.65.25 1.64.3 1.61.36 1.59.43 1.56.49 1.54.54 1.5.61 1.48.66 1.45.72 1.42.77 1.39.83 1.34.88 1.31.92 1.28.97 1.23 1.03 1.19 1.06 1.16 1.11 1.11 1.16 1.07 1.19 1.02 1.24.97 1.27.92 1.31.88 1.36.83 1.37.77 1.42.71 1.45.67 1.48.61 1.5.55 1.54.48 1.57.43 1.59.37 1.61.3 1.63.23 1.65.17 1.68.11 1.7.03 1.7-.03 1.72-.11 1.69-.17 1.67-.23 1.66-.3 1.64-.37 1.61-.43 1.58-.48 1.57-.55 1.53-.61 1.52-.67 1.47-.71 1.45-.77 1.41-.83 1.39-.88 1.34-.92 1.32-.97 1.27-1.03 1.23-1.06 1.21-1.11 1.15-1.16 1.1-1.19 1.08-1.23 1.02-1.28.97-1.31.93-1.35.87-1.38.82-1.42.78-1.45.72-1.48.66-1.5.6-1.54.55-1.56.5-1.59.41-1.61.37-1.64.31-1.65.24-1.68.17-1.69.1-1.71.04-1.71-.04-1.69-.1-1.68-.17-1.65-.24-1.65-.31-1.61-.37-1.59-.41-1.55-.5-1.54-.55-1.51-.6-1.47-.66-1.45-.72-1.42-.78-1.39-.82-1.34-.87-1.32-.93-1.27-.97-1.23-1.02-1.2-1.07-1.15-1.11-1.12-1.15-1.06-1.21-1.02-1.23-.98-1.27-.92-1.32-.87-1.34-.83-1.39-.77-1.41-.72-1.45-.67-1.47-.6-1.52-.55-1.53-.49-1.57-.43-1.58-.37-1.62-.3-1.63-.23-1.66-.18-1.67-.1-1.7-.04-1.71.04-1.7.1-1.7.18-1.68.23-1.65.3-1.63.37-1.61.43-1.59.49-1.57.55-1.54.6-1.5.67-1.48.72-1.45.77-1.42.83-1.38.87-1.35.92-1.31.98-1.27 1.02-1.24 1.06-1.19 1.12-1.16 1.15-1.11 1.2-1.07 1.23-1.02 1.27-.97 1.32-.93 1.34-.87 1.39-.83 1.42-.77 1.45-.72 1.47-.66 1.51-.61 1.54-.54 1.56-.49 1.58-.43 1.62-.36 1.64-.3 1.65-.25 1.68-.16 1.69-.11 1.71-.03 1.71.03 1.69.11zm-6.21 20.87l-1.38.24-1.33.32-1.31.41-1.26.48-1.22.57-1.18.65-1.14.72-1.08.78-1.04.85-.96.91-.91.98-.85 1.03-.8 1.07-.71 1.14-.64 1.18-.57 1.23-.49 1.26-.4 1.3-.32 1.34-.24 1.37-.15 1.4-.04 1.41.04 1.42.15 1.4.24 1.37.32 1.33.4 1.31.49 1.26.57 1.22.64 1.18.71 1.14.79 1.09.86 1.03.91.96.96.92 1.04.85 1.08.79 1.14.71 1.18.64 1.22.57 1.26.49 1.31.4 1.33.33 1.38.23 1.39.14 1.42.06 1.42-.06 1.39-.14 1.38-.23 1.33-.33 1.3-.4 1.27-.49 1.22-.57 1.18-.64 1.14-.71 1.07-.79 1.03-.85.98-.92.91-.96.85-1.03.79-1.09.72-1.14.64-1.18.57-1.22.48-1.26.41-1.31.32-1.33.24-1.36.14-1.4.05-1.43-.05-1.41-.14-1.4-.24-1.36-.32-1.35-.41-1.3-.48-1.26-.57-1.23-.64-1.18-.72-1.13-.79-1.08-.85-1.03-.91-.98-.98-.91-1.03-.85-1.07-.78-1.14-.72-1.18-.65-1.22-.57-1.27-.48-1.3-.41-1.33-.32-1.38-.24-1.39-.14-1.42-.05-1.42.05-1.39.14z" id="d"/><path d="M294.2 91.39l1.67.16 1.65.25 1.65.3 1.61.36 1.59.43 1.55.49 1.54.54 1.51.61 1.48.66 1.45.72 1.41.77 1.39.83 1.34.88 1.32.92 1.27.97 1.23 1.03 1.21 1.06 1.14 1.11 1.12 1.16 1.06 1.19 1.02 1.24.98 1.27.93 1.31.87 1.36.82 1.37.78 1.42.71 1.45.67 1.48.6 1.5.55 1.54.49 1.57.42 1.59.38 1.61.3 1.63.24 1.65.17 1.68.09 1.7.05 1.7-.05 1.72-.09 1.69-.17 1.67-.24 1.66-.3 1.64-.38 1.61-.42 1.58-.49 1.57-.55 1.53-.6 1.52-.67 1.47-.71 1.45-.78 1.41-.82 1.39-.87 1.34-.93 1.32-.98 1.27-1.02 1.23-1.06 1.21-1.12 1.15-1.14 1.1-1.21 1.08-1.23 1.02-1.27.97-1.32.93-1.34.87-1.39.82-1.41.78-1.45.72-1.48.66-1.51.6-1.54.55-1.55.5-1.59.41-1.61.37-1.65.31-1.65.24-1.67.17-1.7.1-1.71.04-1.71-.04-1.69-.1-1.68-.17-1.65-.24-1.63-.31-1.61-.37-1.59-.41-1.57-.5-1.54-.55-1.5-.6-1.48-.66-1.45-.72-1.42-.78-1.37-.82-1.36-.87-1.31-.93-1.28-.97-1.23-1.02-1.19-1.07-1.16-1.11-1.11-1.15-1.07-1.21-1.02-1.23-.97-1.27-.92-1.32-.88-1.34-.83-1.39-.77-1.41-.72-1.45-.66-1.47-.61-1.52-.55-1.53-.48-1.57-.43-1.58-.36-1.62-.31-1.63-.23-1.66-.17-1.67-.11-1.7-.03-1.71.03-1.7.11-1.7.17-1.68.23-1.65.31-1.63.36-1.61.43-1.59.48-1.57.55-1.54.61-1.5.66-1.48.72-1.45.77-1.42.83-1.38.88-1.35.92-1.31.97-1.27 1.02-1.24 1.07-1.19 1.11-1.16 1.16-1.11 1.19-1.07 1.23-1.02 1.28-.97 1.31-.93 1.36-.87 1.37-.83 1.42-.77 1.45-.72 1.48-.66 1.5-.61 1.54-.54 1.57-.49 1.59-.43 1.61-.36 1.63-.3 1.65-.25 1.68-.16 1.69-.11 1.71-.03 1.72.03 1.69.11zm-6.22 20.87l-1.37.24-1.34.32-1.3.41-1.26.48-1.23.57-1.18.65-1.13.72-1.08.78-1.03.85-.98.91-.91.98-.85 1.03-.79 1.07-.71 1.14-.65 1.18-.57 1.23-.48 1.26-.41 1.3-.32 1.34-.24 1.37-.14 1.4-.05 1.41.05 1.42.14 1.4.24 1.37.32 1.33.41 1.31.48 1.26.57 1.22.65 1.18.71 1.14.79 1.09.85 1.03.91.96.98.92 1.03.85 1.08.79 1.13.71 1.18.64 1.23.57 1.26.49 1.3.4 1.34.33 1.37.23 1.39.14 1.42.06 1.43-.06 1.4-.14 1.36-.23 1.33-.33 1.31-.4 1.26-.49 1.22-.57 1.18-.64 1.14-.71 1.09-.79 1.03-.85.96-.92.92-.96.85-1.03.79-1.09.71-1.14.64-1.18.57-1.22.48-1.26.41-1.31.32-1.33.24-1.36.15-1.4.04-1.43-.04-1.41-.15-1.4-.24-1.36-.32-1.35-.41-1.3-.48-1.26-.57-1.23-.64-1.18-.71-1.13-.79-1.08-.85-1.03-.92-.98-.96-.91-1.03-.85-1.09-.78-1.14-.72-1.18-.65-1.22-.57-1.26-.48-1.31-.41-1.33-.32-1.36-.24-1.4-.14-1.43-.05-1.42.05-1.39.14z" id="e"/></defs><use xlink:href="#a"/><use xlink:href="#b"/><use xlink:href="#b" fill-opacity="0" stroke="#000" stroke-opacity="0"/><use xlink:href="#c"/><use xlink:href="#c" fill-opacity="0" stroke="#000" stroke-opacity="0"/><g><use xlink:href="#d"/><use xlink:href="#d" fill-opacity="0" stroke="#000" stroke-opacity="0"/></g><g><use xlink:href="#e"/><use xlink:href="#e" fill-opacity="0" stroke="#000" stroke-opacity="0"/></g></svg>
