<svg xmlns="http://www.w3.org/2000/svg" width="512" height="512" viewBox="0 0 512 512" preserveAspectRatio="xMidYMid meet" fill="#FFFFFF"><path d="M502.522 209.13a9.93 9.93 0 0 0-9.757-8.077H261.296c-5.484 0-9.93 4.445-9.93 9.93v95.33c0 5.485 4.446 9.93 9.93 9.93h113.66c-11.518 22.69-29.467 41.851-51.623 54.845-20.317 11.926-43.6 18.23-67.333 18.23-55.294 0-105.473-34.774-124.869-86.54-5.606-14.91-8.448-30.648-8.448-46.779 0-14.833 2.422-29.412 7.194-43.326 18.495-53.826 69.181-89.991 126.124-89.991 25.02 0 49.395 6.968 70.485 20.152a9.928 9.928 0 0 0 11.553-.737l78.065-63.912a9.928 9.928 0 0 0 .053-15.323C371.291 25.611 314.413 5.094 256 5.094 117.65 5.094 5.094 117.65 5.094 256c0 41.502 10.342 82.621 29.91 118.912C78.902 456.329 163.583 506.906 256 506.906c57.83 0 114.266-20.147 158.912-56.728 44.028-36.074 74.752-86.435 86.505-141.798 3.641-17.101 5.489-34.725 5.489-52.381 0-15.773-1.475-31.542-4.384-46.868zM256 24.956c49.736 0 98.262 16.15 137.952 45.7l-63.118 51.675c-22.778-12.783-48.498-19.508-74.834-19.508-60.702 0-115.191 35.785-139.718 90.35l-61.598-50.43C94.36 72.492 169.729 24.955 256 24.955zM24.955 256c0-33.897 7.34-66.11 20.508-95.14l63.529 52.012a153.209 153.209 0 0 0-6.17 43.128c0 16.103 2.475 31.876 7.353 46.986l-63.13 51.678c-14.468-30.655-22.09-64.51-22.09-98.664zM256 487.045c-82.377 0-158.081-43.646-199.514-114.444l61.428-50.284c11.275 23.508 28.312 43.709 49.876 58.925 25.901 18.276 56.404 27.937 88.209 27.937 24.918 0 49.408-6.074 71.272-17.583l63.563 52.036c-39.089 28.085-86.429 43.413-134.834 43.413zM481.992 304.25c-10.418 49.071-37.035 93.87-75.187 126.788l-61.665-50.483c24.618-17.657 43.666-42.348 54.311-70.758a9.932 9.932 0 0 0-1.137-9.142 9.932 9.932 0 0 0-8.16-4.272H271.226v-75.47h213.165a232.916 232.916 0 0 1 2.653 35.086c0 16.27-1.7 32.502-5.053 48.251z" data-original="#000000" class="active-path" data-old_color="#ffffff"/></svg>