<svg xmlns="http://www.w3.org/2000/svg" viewBox="0 0 54 54" width="512" height="512" fill="#FFFFFF"><path d="M50.266 21.236h-4.853c-.78 0-1.423-.429-1.722-1.15s-.147-1.479.404-2.03l3.431-3.43a2.654 2.654 0 0 0 .782-1.889c0-.714-.278-1.384-.782-1.89l-4.374-4.373c-1.008-1.009-2.767-1.01-3.778 0l-3.43 3.43a1.812 1.812 0 0 1-2.03.405 1.811 1.811 0 0 1-1.15-1.722V3.734a2.673 2.673 0 0 0-2.67-2.67h-6.187a2.673 2.673 0 0 0-2.67 2.67v4.853c0 .78-.43 1.423-1.15 1.722-.719.3-1.48.146-2.031-.405l-3.43-3.43c-1.01-1.01-2.77-1.009-3.778 0l-4.374 4.374a2.655 2.655 0 0 0-.782 1.89c0 .712.278 1.382.782 1.888l3.431 3.43c.55.551.701 1.31.404 2.03s-.942 1.15-1.722 1.15H3.734a2.673 2.673 0 0 0-2.67 2.67v6.186a2.674 2.674 0 0 0 2.67 2.672h4.853c.78 0 1.423.429 1.722 1.15s.147 1.479-.404 2.03l-3.431 3.43a2.654 2.654 0 0 0-.782 1.889c0 .714.278 1.384.782 1.89l4.374 4.373c1.01 1.01 2.767 1.012 3.778 0l3.43-3.431a1.812 1.812 0 0 1 2.03-.404c.721.3 1.15.942 1.15 1.722v4.853a2.673 2.673 0 0 0 2.67 2.67h6.186a2.673 2.673 0 0 0 2.67-2.67v-4.853c0-.78.43-1.423 1.15-1.722a1.81 1.81 0 0 1 2.031.404l3.43 3.431c1.011 1.01 2.77 1.009 3.778 0l4.374-4.374a2.655 2.655 0 0 0 .782-1.89c0-.712-.278-1.382-.782-1.888l-3.431-3.43c-.55-.551-.701-1.31-.404-2.03s.943-1.15 1.723-1.15h4.853a2.673 2.673 0 0 0 2.67-2.67v-6.187a2.673 2.673 0 0 0-2.67-2.67zm.749 8.857a.75.75 0 0 1-.75.75h-4.852c-1.56 0-2.9.895-3.497 2.336a3.724 3.724 0 0 0 .82 4.124l3.432 3.43a.75.75 0 0 1 0 1.061l-4.374 4.374a.75.75 0 0 1-1.06 0l-3.43-3.432a3.728 3.728 0 0 0-4.125-.82 3.726 3.726 0 0 0-2.337 3.497v4.853a.75.75 0 0 1-.749.749h-6.186a.75.75 0 0 1-.75-.75v-4.852c0-1.56-.895-2.9-2.336-3.497-.483-.2-.98-.299-1.472-.299-.974 0-1.918.385-2.652 1.119l-3.43 3.43a.75.75 0 0 1-1.061 0l-4.374-4.373a.75.75 0 0 1 0-1.06l3.432-3.43a3.726 3.726 0 0 0 .82-4.125 3.726 3.726 0 0 0-3.497-2.336H3.734a.75.75 0 0 1-.749-.749v-6.186a.75.75 0 0 1 .75-.75h4.852c1.56 0 2.9-.895 3.497-2.336a3.724 3.724 0 0 0-.82-4.124l-3.432-3.43a.75.75 0 0 1 0-1.061l4.374-4.374a.75.75 0 0 1 1.06 0l3.43 3.43a3.727 3.727 0 0 0 4.125.82 3.723 3.723 0 0 0 2.337-3.495V3.734a.75.75 0 0 1 .749-.749h6.185a.75.75 0 0 1 .75.75v4.852c0 1.56.896 2.9 2.337 3.497a3.725 3.725 0 0 0 4.124-.82l3.43-3.43a.75.75 0 0 1 1.061 0l4.374 4.373a.75.75 0 0 1 0 1.06l-3.432 3.43a3.726 3.726 0 0 0-.82 4.125 3.726 3.726 0 0 0 3.497 2.337h4.853a.749.749 0 0 1 .749.748v6.186z" data-original="#000000" class="active-path" data-old_color="#EFEEEE"/><path d="M27 18.355c-4.767 0-8.645 3.878-8.645 8.645s3.878 8.645 8.645 8.645 8.645-3.878 8.645-8.645-3.878-8.645-8.645-8.645zm0 15.37c-3.707 0-6.724-3.018-6.724-6.725s3.017-6.724 6.724-6.724 6.724 3.017 6.724 6.724-3.017 6.724-6.724 6.724z" data-original="#000000" class="active-path" data-old_color="#EFEEEE"/></svg>
