<svg xmlns="http://www.w3.org/2000/svg" viewBox="0 0 58.995 58.995" width="512" height="512" fill="#FFFFFF"><path d="M39.516 41.44a9.738 9.738 0 0 0-1.311 1.64l-16.6-10.075a9.538 9.538 0 0 0 .689-3.547 9.557 9.557 0 0 0-.687-3.548l16.603-9.999c1.705 2.678 4.694 4.463 8.098 4.463 5.297 0 9.606-4.309 9.606-9.606s-4.309-9.606-9.606-9.606-9.606 4.31-9.606 9.606a9.55 9.55 0 0 0 .641 3.422L20.718 24.202c-1.717-2.616-4.674-4.35-8.031-4.35-5.297 0-9.606 4.309-9.606 9.606s4.309 9.606 9.606 9.606c3.357 0 6.313-1.734 8.03-4.35L37.34 44.801a9.593 9.593 0 0 0-.638 3.43 9.54 9.54 0 0 0 2.814 6.792c1.872 1.872 4.332 2.809 6.792 2.809s4.92-.937 6.793-2.81c1.814-1.814 2.813-4.226 2.813-6.791s-.999-4.98-2.813-6.793c-3.746-3.746-9.839-3.746-13.584 0zm6.792-38.356c4.238 0 7.685 3.447 7.685 7.684s-3.447 7.685-7.685 7.685-7.684-3.448-7.684-7.685 3.446-7.684 7.684-7.684zm-33.62 34.058c-4.238 0-7.685-3.447-7.685-7.684s3.447-7.685 7.685-7.685 7.684 3.447 7.684 7.685-3.447 7.684-7.684 7.684zm39.054 16.524c-2.997 2.996-7.872 2.996-10.868 0-1.451-1.452-2.25-3.383-2.25-5.434s.799-3.983 2.25-5.435c1.499-1.498 3.466-2.246 5.434-2.246s3.936.748 5.435 2.246c1.451 1.452 2.25 3.383 2.25 5.435s-.799 3.982-2.251 5.434z" data-original="#000000" class="active-path" data-old_color="#FFFfFF"/></svg>
