<svg xmlns="http://www.w3.org/2000/svg" width="512" height="512" viewBox="0 0 512 512" preserveAspectRatio="xMidYMid meet" fill="#FFFFFF"><path d="M498.417 45.509H13.573a8.657 8.657 0 0 0-8.657 8.657v380.942c0 4.788 3.887 8.657 8.657 8.657h484.844a8.657 8.657 0 0 0 8.657-8.657V54.166a8.657 8.657 0 0 0-8.657-8.657zM489.76 426.45H22.23V62.823h467.53z" data-original="#000000" class="active-path" data-old_color="#000000"/><path d="M143.445 237.173a48.267 48.267 0 0 0 48.214-48.206c0-26.589-21.624-48.231-48.214-48.231-26.589 0-48.214 21.642-48.214 48.223a48.267 48.267 0 0 0 48.214 48.214zm0-79.115c17.04 0 30.9 13.87 30.9 30.9 0 17.032-13.868 30.9-30.9 30.9-17.031 0-30.9-13.868-30.9-30.89 0-17.023 13.86-30.91 30.9-30.91zM65.524 391.823a8.626 8.626 0 0 0 5.715-2.155l141.232-124.36 89.194 89.193a8.654 8.654 0 1 0 12.243-12.234l-41.615-41.625 79.485-87.046 97.497 89.378a8.66 8.66 0 0 0 11.696-12.773l-103.893-95.227a8.922 8.922 0 0 0-6.236-2.279 8.675 8.675 0 0 0-6.007 2.818l-84.803 92.868-41.059-41.059a8.666 8.666 0 0 0-11.837-.38L59.799 376.666a8.657 8.657 0 0 0 5.725 15.158z" data-original="#000000" class="active-path" data-old_color="#000000"/></svg>