<svg xmlns="http://www.w3.org/2000/svg" width="512" height="512" viewBox="0 0 512 512" preserveAspectRatio="xMidYMid meet" fill="#FFFFFF"><path d="M63.639 91.547c-18.4 0-33.454 15.054-33.454 33.454s15.054 33.453 33.454 33.453 33.453-15.054 33.453-33.452c0-18.398-15.052-33.455-33.452-33.455zm0 50.181c-9.2 0-16.728-7.527-16.728-16.727s7.529-16.729 16.729-16.729 16.726 7.53 16.726 16.73-7.526 16.726-16.726 16.726zm75.271-50.18c-18.399 0-33.453 15.053-33.453 33.453 0 18.4 15.054 33.453 33.453 33.453 18.4 0 33.454-15.054 33.454-33.453s-15.053-33.454-33.454-33.454zm0 50.18c-9.2 0-16.727-7.527-16.727-16.727s7.527-16.729 16.727-16.729S155.638 115.8 155.638 125c0 9.2-7.527 16.727-16.728 16.727zm75.272-50.18c-18.4 0-33.454 15.053-33.454 33.453 0 18.4 15.055 33.453 33.454 33.453 18.4 0 33.454-15.054 33.454-33.453s-15.054-33.454-33.454-33.454zm0 50.18c-9.2 0-16.727-7.527-16.727-16.727s7.527-16.728 16.727-16.728 16.728 7.53 16.728 16.73-7.527 16.726-16.727 16.726z" data-original="#000000" class="active-path" data-old_color="#000000"/><path d="M483.488 66.456H29.348c-13.381 0-24.254 10.873-24.254 24.255v325.341c0 15.054 26.764 26.763 26.764 26.763h448.286s26.764-11.71 26.764-26.764V90.712c-.002-13.382-10.875-24.255-23.42-24.255zm6.69 349.595l-10.036 10.036H31.856L21.82 416.051V183.546h468.357v232.505zM21.822 166.82V90.711a7.495 7.495 0 0 1 7.527-7.527h453.303a7.495 7.495 0 0 1 7.527 7.527v76.108z" data-original="#000000" class="active-path" data-old_color="#000000"/></svg>