<svg xmlns="http://www.w3.org/2000/svg" height="512" width="512" viewBox="0 0 512 512" fill="#FFFFFF"><g><path data-old_color="#AAAAAA" class="active-path" data-original="#000000" d="M298.314 136.144H87.854a6.575 6.575 0 0 0-6.577 6.577v59.192a6.581 6.581 0 0 0 4.058 6.077 6.577 6.577 0 0 0 7.169-1.427l23.256-23.25c4.966-4.971 11.568-7.707 18.599-7.707h32.418a6.583 6.583 0 0 1 6.576 6.576v171h-52.615a6.575 6.575 0 0 0-6.577 6.576v26.307a6.575 6.575 0 0 0 6.577 6.577h144.691c3.63 0 6.577-2.94 6.577-6.577v-26.307a6.575 6.575 0 0 0-6.577-6.577h-52.614V182.182a6.583 6.583 0 0 1 6.577-6.576h32.417c7.031 0 13.635 2.736 18.6 7.708l23.256 23.249a6.557 6.557 0 0 0 7.168 1.427 6.58 6.58 0 0 0 4.058-6.077V142.72a6.575 6.575 0 0 0-6.577-6.577zm-6.576 49.893l-12.023-12.023c-7.452-7.458-17.363-11.562-27.906-11.562h-32.417c-10.878 0-19.73 8.852-19.73 19.73v177.576a6.575 6.575 0 0 0 6.576 6.577h52.615v13.154H127.315v-13.154h52.616c3.63 0 6.576-2.94 6.576-6.577V182.182c0-10.878-8.852-19.73-19.73-19.73h-32.418c-10.543 0-20.454 4.104-27.899 11.562l-12.029 12.023v-36.739h197.307z"/><path data-old_color="#AAAAAA" class="active-path" data-original="#000000" d="M465.088 407.253V104.747c23.704-3.994 41.818-24.647 41.818-49.471 0-27.676-22.507-50.182-50.182-50.182-24.824 0-45.477 18.114-49.471 41.818H104.747C100.753 23.208 80.1 5.094 55.276 5.094 27.6 5.094 5.094 27.6 5.094 55.276c0 24.824 18.114 45.477 41.818 49.471v302.507c-23.704 3.993-41.818 24.646-41.818 49.47 0 27.676 22.507 50.182 50.182 50.182 24.823 0 45.477-18.114 49.471-41.818h302.506c3.994 23.704 24.647 41.818 49.471 41.818 27.676 0 50.182-22.506 50.182-50.182 0-24.823-18.114-45.477-41.818-49.471zm-57.835 41.108H104.747c-3.535-20.983-20.125-37.573-41.107-41.107V104.747c20.983-3.535 37.573-20.125 41.107-41.107h302.506c3.535 20.983 20.125 37.573 41.107 41.107v302.507c-20.982 3.534-37.572 20.124-41.107 41.107zm49.471-426.54c18.45 0 33.454 15.005 33.454 33.455s-15.004 33.453-33.454 33.453c-18.45 0-33.453-15.004-33.453-33.453s15.003-33.454 33.453-33.454zM21.822 55.277c0-18.45 15.004-33.454 33.454-33.454 18.446 0 33.447 14.998 33.453 33.443V55.286C88.723 73.732 73.722 88.73 55.276 88.73c-18.45 0-33.454-15.003-33.454-33.453zm33.454 434.902c-18.45 0-33.454-15.004-33.454-33.454 0-18.45 15.004-33.453 33.454-33.453 18.446 0 33.447 14.998 33.453 33.443V456.735c-.006 18.446-15.007 33.443-33.453 33.443zm401.448 0c-18.45 0-33.453-15.004-33.453-33.454 0-18.45 15.004-33.453 33.453-33.453 18.45 0 33.454 15.004 33.454 33.453 0 18.45-15.004 33.454-33.454 33.454z"/></g><path data-old_color="#AAAAAA" class="active-path" data-original="#000000" d="M422.486 236.608H297.785a3.896 3.896 0 0 0-3.897 3.897v35.072a3.897 3.897 0 0 0 6.652 2.755l13.78-13.775a15.469 15.469 0 0 1 11.02-4.567h19.208a3.9 3.9 0 0 1 3.897 3.897v101.32h-31.176a3.896 3.896 0 0 0-3.897 3.896v15.588a3.896 3.896 0 0 0 3.897 3.897h85.732a3.896 3.896 0 0 0 3.897-3.897v-15.588a3.896 3.896 0 0 0-3.897-3.896h-31.174v-101.32a3.9 3.9 0 0 1 3.896-3.897h19.208c4.166 0 8.079 1.621 11.02 4.567l13.78 13.776a3.885 3.885 0 0 0 4.248.845 3.899 3.899 0 0 0 2.404-3.6v-35.073a3.896 3.896 0 0 0-3.897-3.896zm-3.896 29.563l-7.124-7.124c-4.416-4.42-10.288-6.851-16.535-6.851h-19.208c-6.445 0-11.69 5.245-11.69 11.69v105.217a3.896 3.896 0 0 0 3.896 3.897h31.176v7.794h-77.939V373h31.176a3.896 3.896 0 0 0 3.897-3.897V263.887c0-6.446-5.246-11.691-11.691-11.691H325.34c-6.247 0-12.12 2.432-16.53 6.851l-7.128 7.124v-21.769H418.59z"/></svg>