<svg xmlns="http://www.w3.org/2000/svg" width="512" height="512" viewBox="0 0 512 512" preserveAspectRatio="xMidYMid meet" fill="#FFFFFF"><path d="M373.687 248.112a8.685 8.685 0 0 0-8.685 8.685v52.109c0 67.06-54.546 121.606-121.597 121.606-67.051 0-121.598-54.546-121.598-121.597v-52.118a8.685 8.685 0 1 0-17.37 0v52.109c0 73.706 57.702 134.022 130.274 138.533v43.867h-43.424a8.685 8.685 0 1 0 0 17.37h104.236a8.685 8.685 0 1 0 0-17.37h-43.424V447.44c72.572-4.52 130.273-64.836 130.273-138.524v-52.118a8.685 8.685 0 0 0-8.685-8.685z" data-original="#000000" class="active-path" data-old_color="#ffffff"/><path d="M243.405 404.458c52.676 0 95.542-42.867 95.542-95.543V100.45c0-52.677-42.866-95.534-95.542-95.534-52.677 0-95.543 42.857-95.543 95.534v208.464c0 52.676 42.866 95.534 95.543 95.534zM165.24 100.45c0-43.106 35.067-78.164 78.164-78.164 43.096 0 78.164 35.058 78.164 78.164v208.464c0 43.105-35.068 78.164-78.164 78.164-43.097 0-78.164-35.059-78.164-78.164z" data-original="#000000" class="active-path" data-old_color="#ffffff"/></svg>