<svg xmlns="http://www.w3.org/2000/svg" width="512" height="512" viewBox="0 0 512 512" fill="#FFFFFF"><g ><path d="M255.966 9.195c-136.075 0-246.77 110.696-246.77 246.771s110.695 246.77 246.77 246.77c136.075 0 246.77-110.695 246.77-246.77 0-136.075-110.695-246.77-246.77-246.77zm0 474.56c-125.597 0-227.788-102.192-227.788-227.789S130.369 28.178 255.966 28.178c125.597 0 227.788 102.191 227.788 227.788 0 125.597-102.191 227.788-227.788 227.788z" data-original="#000000" class="active-path" data-old_color="#000000"/><path d="M255.966 360.37a9.483 9.483 0 0 0-9.491 9.49v18.983a9.483 9.483 0 0 0 9.491 9.49 9.483 9.483 0 0 0 9.491-9.49V369.86a9.483 9.483 0 0 0-9.49-9.49zM257.039 94.625c-.361 0-.722-.009-1.092-.009-20.083 0-38.97 7.735-53.293 21.868-14.578 14.379-22.617 33.58-22.617 54.061a9.483 9.483 0 0 0 9.49 9.492 9.483 9.483 0 0 0 9.492-9.492c0-15.356 6.027-29.764 16.96-40.546 10.944-10.791 25.513-16.752 40.803-16.391 30.002.417 55.704 26.12 56.122 56.121.275 19.78-9.482 37.984-26.11 48.709-25.247 16.287-40.32 45.064-40.32 76.992v26.974a9.483 9.483 0 0 0 9.492 9.492 9.483 9.483 0 0 0 9.491-9.492V295.43c0-25.075 12.111-48.452 31.625-61.047 22.162-14.294 35.174-38.563 34.804-64.92-.57-40.688-34.15-74.268-74.847-74.838z" data-original="#000000" class="active-path" data-old_color="#000000"/></g></svg>