<?xml version="1.0" encoding="UTF-8" standalone="no"?>
<!DOCTYPE svg PUBLIC "-//W3C//DTD SVG 1.1//EN" "http://www.w3.org/Graphics/SVG/1.1/DTD/svg11.dtd">
<svg version="1.1" xmlns="http://www.w3.org/2000/svg" xmlns:xlink="http://www.w3.org/1999/xlink" preserveAspectRatio="xMidYMid meet" viewBox="0 0 640 640" width="640" height="640"><defs><path d="M535.1 214.4C535.1 214.4 523.92 154.43 523.92 154.43C522.97 150.66 520.59 141.23 516.78 126.14C513.05 130.47 483.2 165.14 479.47 169.47C477.65 207.22 476.52 230.83 476.06 240.26C475.24 257.28 465.95 272.66 451.45 280.99C449.73 281.96 448.08 282.86 446.49 283.68C445.9 283.98 444.36 284.29 441.89 284.63C428.85 286.36 416.3 278.84 411.39 266.33C407.83 257.26 398.93 234.6 384.71 198.34C381.05 200.32 351.85 216.16 348.2 218.14C355.56 244.33 360.16 260.71 362 267.26C365.07 278.17 364.97 289.76 361.7 300.6C360.71 303.9 361.99 299.62 360.82 303.54C358.15 312.42 353.21 320.39 346.53 326.66C343.16 329.82 347.84 325.43 345.62 327.51C335.25 337.22 322.27 343.52 308.36 345.57C300.26 346.76 307 345.77 301.32 346.6C280.56 349.67 259.75 341.36 246.46 324.72C245.14 323.06 241.84 318.92 236.56 312.3C232.01 306.13 195.62 256.7 191.07 250.52C190.08 252.1 189.46 253.1 189.21 253.49C175.48 275.53 167.77 300.94 166.9 327.08C166.9 327.11 166.9 327.15 166.89 327.23C171.75 340.91 174.79 349.47 176.01 352.88C178.73 360.52 179.52 368.74 178.31 376.77C177.84 379.9 178.6 374.87 178.21 377.46C176.86 386.47 170.24 393.7 161.56 395.66C148.88 398.53 132.14 402.33 121.18 404.8C108.38 407.7 100.17 420.53 102.68 433.71C103.69 439.06 106.24 452.45 110.32 473.86C115.79 472.64 143.16 466.52 192.44 455.51C234.41 446.21 257.73 441.04 262.39 440C271.12 437.91 276.57 436.61 278.75 436.08C278.75 436.08 321.09 427.67 321.09 427.67C329.01 426.42 319.37 427.94 324.27 427.16C348.47 423.33 372.18 416.74 394.95 407.5C401.32 404.93 391.04 409.09 398.63 406.01C417.36 398.42 435.55 389.46 453.05 379.21C455.16 377.97 460.47 374.87 468.95 369.9C477.04 362.92 482.11 358.56 484.13 356.81C499.55 343.51 512.87 327.84 523.59 310.35C526.09 306.27 522.05 312.86 525.71 306.88C532.51 295.79 536.3 283.05 536.71 269.95C536.85 265.46 537.21 254.23 537.77 236.26C536.34 224.6 535.45 217.31 535.1 214.4Z" id="avBBjK6Wb"></path></defs><g><g><g><use xlink:href="#avBBjK6Wb" opacity="1" fill="#ffffff" fill-opacity="1"></use></g></g></g></svg>