<?xml version="1.0" encoding="UTF-8" standalone="no"?>
<!DOCTYPE svg PUBLIC "-//W3C//DTD SVG 1.1//EN" "http://www.w3.org/Graphics/SVG/1.1/DTD/svg11.dtd">
<svg version="1.1" xmlns="http://www.w3.org/2000/svg" xmlns:xlink="http://www.w3.org/1999/xlink" preserveAspectRatio="xMidYMid meet" viewBox="0 0 640 640" width="512" height="512"><defs><path d="M589.43 247.24C587.95 233.37 587.03 224.7 586.66 221.23C586.66 221.23 574.4 149.81 574.4 149.81C573.33 145.31 570.64 134.06 566.35 116.07L520 166.7C516.95 211.47 515.05 239.46 514.28 250.65C512.91 270.83 501.26 288.89 483.44 298.46C481.33 299.58 479.3 300.61 477.35 301.55C476.62 301.89 474.75 302.23 471.74 302.57C455.84 304.35 440.74 295.15 435.04 280.19C430.92 269.35 420.6 242.26 404.1 198.91L359.26 221.62C367.63 252.87 372.86 272.41 374.95 280.22C378.44 293.24 378.06 306.99 373.85 319.79C372.57 323.69 374.22 318.64 372.71 323.26C369.26 333.74 363.08 343.1 354.81 350.4C350.65 354.07 356.44 348.96 353.69 351.39C340.86 362.69 324.93 369.88 307.97 372.01C298.09 373.25 306.31 372.22 299.38 373.09C274.07 376.28 248.94 365.96 233.15 345.92C231.58 343.92 227.66 338.94 221.38 330.97L167.42 256.64C166.18 258.5 165.41 259.67 165.1 260.13C147.91 285.99 137.97 315.99 136.32 347C136.32 347.03 136.32 347.08 136.31 347.17C141.92 363.52 145.43 373.74 146.83 377.82C149.97 386.95 150.75 396.72 149.1 406.23C148.46 409.93 149.49 403.98 148.96 407.05C147.12 417.71 138.91 426.15 128.31 428.29C112.82 431.42 92.37 435.56 78.99 438.26C63.35 441.42 53.09 456.47 55.84 472.18C56.96 478.55 59.76 494.5 64.24 520L164.53 500L249.96 483.11C260.62 480.82 267.28 479.39 269.94 478.81C269.94 478.81 321.63 469.74 321.63 469.74C331.29 468.43 319.53 470.03 325.51 469.21C355.03 465.19 384.01 457.88 411.91 447.41C419.71 444.49 407.12 449.21 416.42 445.72C439.37 437.11 461.69 426.87 483.2 415.09C485.8 413.66 492.32 410.09 502.75 404.38C512.75 396.27 519.01 391.2 521.51 389.17C540.56 373.72 557.1 355.41 570.53 334.88C573.66 330.09 568.6 337.82 573.19 330.81C581.7 317.79 586.6 302.75 587.39 287.21C587.66 281.88 588.34 268.56 589.43 247.24Z" id="ccfDUsSv8"></path></defs><g><g><g><use xlink:href="#ccfDUsSv8" opacity="1" fill="#e1e1e1" fill-opacity="1"></use></g></g></g></svg>