<?xml version="1.0" encoding="UTF-8" standalone="no"?>
<!DOCTYPE svg PUBLIC "-//W3C//DTD SVG 1.1//EN" "http://www.w3.org/Graphics/SVG/1.1/DTD/svg11.dtd">
<svg version="1.1" xmlns="http://www.w3.org/2000/svg" xmlns:xlink="http://www.w3.org/1999/xlink" preserveAspectRatio="xMidYMid meet" viewBox="0 0 640 640" width="640" height="640"><defs><path d="M619.95 458.49C622.9 440.32 615.76 421.97 601.28 410.59C600.53 410 598.66 408.53 595.66 406.17C595.66 406.17 595.66 406.17 595.66 406.17C573.74 413.74 550.07 414.67 527.62 408.82C526.67 408.58 524.3 407.96 520.51 406.97C520.51 406.97 520.51 406.97 520.51 406.97C499.89 402.73 485.28 384.31 485.84 363.26C486.22 348.93 487.17 313.11 488.7 255.8C484 255.8 481.06 255.8 479.88 255.8C470.2 255.8 462.34 263.65 462.34 273.34C462.34 283.81 462.34 310 462.34 351.91C460.88 367.68 459.97 377.53 459.6 381.48C458.07 398 440.66 408.04 425.59 401.1C423.48 400.13 423.6 400.18 415.38 396.4C415.16 396.29 414.95 396.15 414.77 395.97C411.88 393.05 414.83 396.02 414.77 395.97C405.42 386.51 399.52 374.18 398.02 360.96C396.53 347.87 395.56 339.33 394.37 328.83C392.21 309.83 376.14 295.48 357.03 295.48C356.33 295.48 354.57 295.48 351.76 295.48C349.52 295.99 348.12 296.31 347.56 296.43C328.36 300.78 311.49 312.2 300.32 328.41C300.05 328.81 299.37 329.79 298.28 331.37L301.12 264.48C301.57 255.23 301.84 249.45 301.95 247.13C302.36 238.78 297.94 230.94 290.6 226.94C289.32 226.24 286.11 224.49 280.97 221.69L282.38 339.3C282.75 343.01 282.98 345.33 283.07 346.26C286.25 378.4 306.78 406.23 336.55 418.75C336.91 418.9 326.89 414.69 336.55 418.75C336.55 418.75 340.19 420.01 340.19 420.01C344.47 421.17 340.17 420 340.63 420.13C354.5 423.91 368.9 425.34 383.24 424.36C383.66 424.34 384.71 424.26 386.38 424.15C380.3 413.3 376.49 406.52 374.97 403.81C371.59 397.78 364.79 394.53 357.98 395.67C353.65 396.4 361.75 395.04 359.85 395.36C345.38 397.79 330.75 392.03 321.82 380.38C316.72 373.73 323.16 382.13 319.87 377.84C307.01 361.08 310.66 336.99 327.91 324.79C329.99 323.32 325.48 326.51 332.77 321.35C336.45 318.76 340.56 316.86 344.92 315.76C349.8 314.52 342.28 316.43 343.27 316.18C357.87 312.47 372.81 320.87 377.23 335.27C377.39 335.78 377.78 337.05 378.4 339.08C384.29 364.85 387.98 380.96 389.45 387.4C395.53 414 421.54 431.03 448.35 425.97C455.2 424.67 443.93 426.8 454.83 424.74C473.09 421.29 491.9 422.06 509.81 426.98C516.98 428.95 505.68 425.85 511.45 427.44C534.04 433.64 557.6 435.48 580.87 432.85C581.49 432.78 573.83 433.65 580.87 432.85C582.9 432.62 584.96 432.77 586.93 433.28C593.02 434.87 584.92 432.76 585.16 432.82C601.73 437.13 610.09 455.63 602.38 470.91C600.62 474.4 599.69 476.25 595.27 485.01C594.78 485.98 595.86 487 596.8 486.44C600.92 484.03 608.24 479.73 611.91 477.58C615.36 475.55 617.74 472.09 618.38 468.13C619.65 460.31 619.43 461.67 619.95 458.49Z" id="c1q6RAEaCu"></path><path d="M384.44 222.45C384.8 241.04 385.03 252.66 385.12 257.3C385.69 286.37 411.43 308.46 440.25 304.61C440.25 304.61 440.25 304.61 440.25 304.61L444.9 331.58L409.27 324.68C409.27 324.68 409.27 324.68 409.27 324.68C404.85 309.46 393.71 297.08 379.03 291.09C376.08 289.89 378.83 291.01 372.97 288.62C367.81 286.51 364.63 281.29 365.13 275.74C366.1 264.92 367.24 252.19 367.97 243.97C367.97 243.97 370.86 199.27 370.86 199.27C371.05 194.46 371.52 182.44 372.28 163.2C377.13 166.46 380.16 168.5 381.38 169.31C385.19 171.88 387.36 176.28 387.07 180.88C386.72 186.42 385.84 200.28 384.44 222.45Z" id="behSv1ey1"></path><path d="M568.34 391.94C579.04 392.97 589.82 393.11 600.55 392.36C604.3 392.1 597.33 392.59 600.55 392.36C611.21 391.62 619.58 382.95 619.95 372.27C619.95 372.27 619.95 372.27 619.95 372.27C593.77 373.67 574.87 374.06 563.24 373.44C555.33 373.02 533 371.25 521.03 351.81C518.13 347.1 516.2 339.84 515.26 332.09C514.48 325.69 516.09 317.16 520.1 306.49C520.59 305.19 519.28 303.93 518 304.47C515.76 305.4 510.18 307.72 501.23 311.43C501.23 326.14 501.23 335.33 501.23 339.01C501.23 348.92 504.22 358.6 509.8 366.78C512.65 370.96 508.09 364.27 509.8 366.78C518.83 380.02 533.27 388.56 549.22 390.1C556.26 390.78 559.48 391.09 568.34 391.94Z" id="b3M9NHCzPN"></path><path d="M274.83 392.67C255.05 403.86 233.41 411.4 210.95 414.93C207.74 415.43 209.81 415.11 201.04 416.49C200.21 416.62 200.26 417.83 201.1 417.89C211.79 418.66 214.19 418.83 219.01 419.17C242.6 420.86 266.31 419.36 289.5 414.73C289.89 414.65 280.81 416.47 287.38 415.16C289.49 414.73 290.72 412.51 289.96 410.5C288.31 406.15 285.16 397.85 283.6 393.72C282.62 391.12 279.54 390.01 277.12 391.38C270.68 395.02 276.21 391.89 274.83 392.67Z" id="bhq4Bm7fR"></path><path d="M180.44 290.88C179.5 280.55 176.63 270.5 171.98 261.23C171.31 259.9 169.64 256.56 166.96 251.23C162.75 256.51 160.12 259.81 159.07 261.13C155.51 265.6 154.34 271.52 155.93 277.01C157.48 282.36 161.37 295.72 167.58 317.11C173.15 309.51 176.64 304.76 178.03 302.86C180.04 300.12 180.98 296.74 180.67 293.36C180.34 289.74 180.58 292.42 180.44 290.88Z" id="b7OKp5p7bt"></path><path d="M136.56 228.3L118.83 184.35C117.93 181.64 117.37 179.94 117.15 179.27C115.28 173.61 117.89 167.45 123.24 164.85C123.91 164.53 125.58 163.72 128.26 162.42C138.21 187.38 144.44 202.98 146.93 209.22C148.3 212.65 147.56 216.56 145.03 219.26C143.9 220.46 141.08 223.48 136.56 228.3Z" id="f2LK1uNGAh"></path><path d="M230.57 258.87L179.41 165.85L172.7 172.43C170.55 175.18 169.2 176.91 168.67 177.6C167.87 178.62 167.75 180.03 168.38 181.17C177.47 197.84 202.19 243.12 210.9 259.08C212.61 262.21 216.32 263.67 219.71 262.53C221.16 262.04 224.78 260.82 230.57 258.87Z" id="aeOq5980P"></path><path d="M51.38 233.55C47.83 241.83 45.15 250.47 43.38 259.3C41.76 267.44 43.91 256.64 43.38 259.3C38.12 285.63 41.98 312.96 54.3 336.81C55.25 338.64 50.49 329.45 54.3 336.81C57.44 342.9 61.15 348.67 65.37 354.06C68.65 358.25 64.24 352.61 65.54 354.27C76.21 367.9 90.01 378.75 105.77 385.91C106.42 386.2 108.04 386.94 110.63 388.12C111.16 388.33 111.49 388.46 111.63 388.52C121.5 392.51 132.22 393.96 142.8 392.75C143.54 392.67 145.39 392.46 148.35 392.12C148.76 393.01 149.01 393.57 149.11 393.79C152.35 400.9 157.03 407.27 162.85 412.48C163.67 413.21 163.75 413.28 166.18 415.46C166.41 415.66 166.23 416.03 165.93 415.98C160.4 415.08 156.31 414.42 153.65 413.99C153.65 413.99 122.86 409.26 122.86 409.26C120.88 408.97 130.27 410.33 128.26 410.04C118.08 408.56 108.06 406.11 98.35 402.71C94.98 401.53 97.41 402.38 93.52 401.02C85.55 398.23 77.99 394.36 71.07 389.52C66.43 386.27 73.15 390.98 71.07 389.52C55.82 378.85 43.33 364.7 34.64 348.25C33.66 346.41 37.29 353.26 34.64 348.25C31.39 342.11 28.73 335.68 26.67 329.05C24.14 320.89 24.42 321.79 23.09 317.48C17.19 298.45 17.21 278.07 23.15 259.05C24.03 256.23 26.24 249.17 29.76 237.87C31.26 234.79 32.2 232.87 32.58 232.1C45.08 206.52 61.01 182.77 79.93 161.49C80.53 160.82 74.71 167.36 80.53 160.81C82.01 159.15 84.28 158.44 86.44 158.96C87.27 159.15 89.33 159.65 92.62 160.44C84.3 173.53 79.1 181.71 77.02 184.99C67.18 200.46 58.61 216.7 51.38 233.55C50.31 236.04 53.55 228.49 51.38 233.55Z" id="c25gmknMw"></path><path d="" id="a15XRUihI3"></path><path d="M176.25 237.87C174.47 238.88 173.36 239.5 172.91 239.76C158.46 247.9 145.19 257.99 133.48 269.75C130.64 272.59 133.92 269.3 129.62 273.62C122.75 280.51 116.69 288.16 111.54 296.41C108.65 301.05 108.59 301.14 105.92 305.42C100.56 314.02 100.82 324.97 106.59 333.3C106.94 333.8 107.81 335.07 109.21 337.08C109.51 337.43 109.7 337.64 109.77 337.73C116.45 345.37 126.08 349.78 136.22 349.86C136.55 349.86 137.36 349.86 138.66 349.87L141.27 373.7L128.04 372.9C128.04 372.9 128.04 372.9 128.04 372.9C114.09 371.91 101.05 365.58 91.64 355.22C91.64 355.22 91.64 355.22 91.64 355.22C91.24 354.77 90.99 354.48 90.89 354.37C76.12 337.53 74.4 312.91 86.68 294.18C86.68 294.18 86.68 294.18 86.68 294.18C89.68 290.07 91.56 287.5 92.32 286.47C105.73 268.13 122.37 252.38 141.43 240.01C141.63 239.88 142.13 239.55 142.93 239.03L158.04 228.57C158.62 228.33 158.99 228.19 159.14 228.13C164.24 226.06 170.09 227.76 173.3 232.24C173.3 232.24 173.3 232.24 173.3 232.24L176.25 237.87Z" id="dLWGpkKQB"></path><path d="M246.7 382.97C249.36 379.95 251.43 376.46 252.8 372.68C254.39 368.33 253.96 369.49 254.77 367.26C258.67 356.56 259.7 345.03 257.76 333.8C257.26 330.92 258.35 337.23 257.76 333.8C256.12 324.27 252.97 315.05 248.44 306.51C247.66 305.05 245.73 301.41 242.64 295.58L228.3 307.59C229.23 309.53 229.81 310.74 230.04 311.22C235.26 322.13 239.15 333.63 241.62 345.47C241.93 346.94 240.36 339.41 240.97 342.35C242.41 349.21 242.07 356.32 240 363.02C239.32 365.24 241.53 358.08 241.12 359.39C238.24 368.7 231.32 376.22 222.27 379.85C220.85 380.42 226.66 378.09 224.18 379.08C218.3 381.44 211.85 382.03 205.64 380.77C199.34 379.49 206.96 381.04 204.91 380.62C188.36 377.27 178.22 360.47 182.96 344.26C183.17 343.56 183.69 341.8 184.51 338.98C184.6 338.83 184.66 338.74 184.68 338.7C192.47 326.08 202.09 314.69 213.22 304.9C213.22 304.9 213.22 304.9 213.22 304.9C218.86 299.63 222.39 296.34 223.8 295.02C237.25 282.46 252.55 272.03 269.16 264.09C269.24 264.05 269.44 263.95 269.77 263.8C269.77 263.8 269.77 263.8 269.77 263.8C271.77 255.58 272.81 247.16 272.86 238.7C272.86 238.54 272.87 238.12 272.87 237.45L231.79 269.22C219.16 280.11 211.27 286.91 208.11 289.63C208.11 289.63 188.76 308.3 188.76 308.3C184.54 312.86 190.16 306.79 188.23 308.88C174.71 323.49 164.97 341.17 159.86 360.4C159.48 361.82 161.81 353.06 160.36 358.54C158.77 364.49 157.97 370.62 157.95 376.78C157.94 380.79 157.96 372.8 157.96 374.13C157.92 387.39 167.17 398.87 180.14 401.65C181.23 401.89 183.97 402.47 188.36 403.42C191.3 403.69 193.13 403.87 193.87 403.94C213.82 405.82 233.47 398.03 246.7 382.97C247.51 382.06 242.49 387.77 246.7 382.97Z" id="a1cVngx6Pp"></path></defs><g><g><g><g><use xlink:href="#c1q6RAEaCu" opacity="1" fill="#383636" fill-opacity="1"></use></g><g><use xlink:href="#behSv1ey1" opacity="1" fill="#383636" fill-opacity="1"></use></g><g><use xlink:href="#b3M9NHCzPN" opacity="1" fill="#383636" fill-opacity="1"></use></g><g><use xlink:href="#bhq4Bm7fR" opacity="1" fill="#383636" fill-opacity="1"></use></g><g><use xlink:href="#b7OKp5p7bt" opacity="1" fill="#383636" fill-opacity="1"></use></g><g><use xlink:href="#f2LK1uNGAh" opacity="1" fill="#383636" fill-opacity="1"></use></g><g><use xlink:href="#aeOq5980P" opacity="1" fill="#383636" fill-opacity="1"></use></g><g><use xlink:href="#c25gmknMw" opacity="1" fill="#383636" fill-opacity="1"></use></g><g><use xlink:href="#a15XRUihI3" opacity="1" fill="#383636" fill-opacity="1"></use></g><g><use xlink:href="#dLWGpkKQB" opacity="1" fill="#383636" fill-opacity="1"></use></g><g><use xlink:href="#a1cVngx6Pp" opacity="1" fill="#383636" fill-opacity="1"></use></g></g></g></g></svg>