<?xml version="1.0" encoding="UTF-8" standalone="no"?>
<!DOCTYPE svg PUBLIC "-//W3C//DTD SVG 1.1//EN" "http://www.w3.org/Graphics/SVG/1.1/DTD/svg11.dtd">
<svg version="1.1" xmlns="http://www.w3.org/2000/svg" xmlns:xlink="http://www.w3.org/1999/xlink" preserveAspectRatio="xMidYMid meet" viewBox="0 0 640 640" width="640" height="640"><defs><path d="M497.57 253.58C497.57 253.58 487.45 199.75 487.45 199.75C486.58 196.36 484.42 187.89 480.98 174.35C477.59 178.24 450.5 209.37 447.11 213.26C445.46 247.15 444.43 268.34 444.01 276.81C443.26 292.08 434.83 305.89 421.67 313.37C420.11 314.25 418.61 315.05 417.17 315.79C416.63 316.06 415.24 316.34 413 316.64C401.17 318.2 389.78 311.45 385.32 300.22C382.1 292.08 374.03 271.74 361.13 239.19C357.81 240.97 331.32 255.19 328 256.97C334.68 280.48 338.85 295.19 340.51 301.06C343.3 310.86 343.2 321.26 340.24 330.99C339.34 333.96 340.5 330.12 339.44 333.63C337.01 341.6 332.53 348.76 326.46 354.39C323.41 357.23 327.66 353.28 325.64 355.16C316.23 363.88 304.45 369.53 291.83 371.37C284.48 372.44 290.6 371.55 285.44 372.3C266.61 375.06 247.73 367.6 235.68 352.67C234.48 351.18 231.49 347.46 226.69 341.52C222.57 335.98 189.55 291.61 185.43 286.06C184.53 287.49 183.97 288.38 183.75 288.73C171.28 308.52 164.29 331.34 163.48 354.8C163.48 354.83 163.49 354.86 163.48 354.93C167.89 367.22 170.65 374.9 171.75 377.96C174.22 384.82 174.93 392.2 173.83 399.41C173.41 402.21 174.09 397.7 173.74 400.03C172.52 408.12 166.51 414.61 158.63 416.37C147.13 418.95 131.93 422.36 121.99 424.58C110.37 427.18 102.93 438.7 105.2 450.54C106.12 455.34 108.43 467.36 112.12 486.58C117.09 485.48 141.93 479.98 186.64 470.09C224.72 461.73 245.88 457.09 250.11 456.16C258.03 454.28 262.97 453.11 264.95 452.63C264.95 452.63 303.37 445.07 303.37 445.07C310.56 443.95 301.81 445.32 306.26 444.62C328.21 441.18 349.72 435.26 370.39 426.96C376.16 424.65 366.84 428.39 373.73 425.62C390.72 418.8 407.22 410.75 423.1 401.55C425.02 400.44 429.83 397.65 437.53 393.19C444.88 386.92 449.48 383 451.31 381.43C465.3 369.49 477.39 355.42 487.12 339.72C489.39 336.06 485.72 341.97 489.04 336.61C495.21 326.65 498.66 315.21 499.03 303.45C499.16 299.42 499.48 289.34 500 273.2C498.7 262.74 497.9 256.2 497.57 253.58Z" id="b88FXvtPLK"></path></defs><g><g><g><use xlink:href="#b88FXvtPLK" opacity="1" fill="#e1e1e1" fill-opacity="1"></use></g></g></g></svg>