<?xml version="1.0" encoding="UTF-8" standalone="no"?>
<!DOCTYPE svg PUBLIC "-//W3C//DTD SVG 1.1//EN" "http://www.w3.org/Graphics/SVG/1.1/DTD/svg11.dtd">
<svg version="1.1" xmlns="http://www.w3.org/2000/svg" xmlns:xlink="http://www.w3.org/1999/xlink" preserveAspectRatio="xMidYMid meet" viewBox="0 0 640 640" width="640" height="640"><defs><path d="M489.05 261.46C489.05 261.46 477.87 201.49 477.87 201.49C476.92 197.72 474.54 188.29 470.73 173.2C467 177.53 437.15 212.2 433.42 216.54C431.6 254.29 430.47 277.89 430.01 287.32C429.19 304.34 419.9 319.72 405.4 328.05C403.68 329.02 402.03 329.92 400.44 330.74C399.85 331.04 398.31 331.35 395.85 331.69C382.8 333.42 370.25 325.9 365.34 313.39C361.78 304.32 352.88 281.66 338.66 245.4C335.01 247.38 305.8 263.22 302.15 265.2C309.51 291.4 314.11 307.77 315.95 314.32C319.02 325.23 318.92 336.82 315.65 347.66C314.66 350.96 315.94 346.69 314.77 350.6C312.1 359.48 307.16 367.45 300.48 373.72C297.11 376.88 301.79 372.49 299.57 374.57C289.2 384.28 276.22 390.58 262.31 392.63C254.21 393.82 260.95 392.83 255.27 393.67C234.51 396.73 213.7 388.42 200.41 371.78C199.09 370.12 195.79 365.98 190.51 359.37C185.96 353.19 149.57 303.76 145.02 297.58C144.03 299.16 143.41 300.16 143.16 300.55C129.43 322.59 121.72 348 120.85 374.14C120.85 374.17 120.85 374.21 120.84 374.29C125.7 387.97 128.75 396.53 129.96 399.94C132.68 407.58 133.47 415.8 132.26 423.83C131.79 426.96 132.55 421.93 132.16 424.53C130.81 433.53 124.19 440.76 115.51 442.72C102.83 445.59 86.09 449.39 75.13 451.86C62.33 454.76 54.12 467.59 56.63 480.78C57.65 486.12 60.19 499.51 64.27 520.92C69.74 519.7 97.12 513.58 146.39 502.57C188.36 493.27 211.68 488.1 216.34 487.06C225.07 484.98 230.52 483.67 232.7 483.14C232.7 483.14 275.04 474.73 275.04 474.73C282.96 473.48 273.32 475 278.22 474.22C302.42 470.39 326.13 463.8 348.9 454.56C355.27 451.99 344.99 456.15 352.58 453.07C371.31 445.48 389.5 436.52 407 426.27C409.11 425.03 414.42 421.93 422.9 416.96C430.99 409.98 436.06 405.62 438.08 403.87C453.5 390.57 466.82 374.9 477.54 357.41C480.04 353.33 476 359.92 479.66 353.94C486.46 342.85 490.25 330.11 490.66 317.01C490.8 312.52 491.16 301.29 491.72 283.32C490.29 271.66 489.4 264.37 489.05 261.46Z" id="amsnQ7PMz"></path></defs><g><g><g><use xlink:href="#amsnQ7PMz" opacity="1" fill="#ffffff" fill-opacity="1"></use></g></g></g></svg>