<?xml version="1.0" encoding="UTF-8" standalone="no"?>
<!DOCTYPE svg PUBLIC "-//W3C//DTD SVG 1.1//EN" "http://www.w3.org/Graphics/SVG/1.1/DTD/svg11.dtd">
<svg version="1.1" xmlns="http://www.w3.org/2000/svg" xmlns:xlink="http://www.w3.org/1999/xlink" preserveAspectRatio="xMidYMid meet" viewBox="0 0 640 640" width="640" height="640"><defs><path d="M465.12 342.56L465.11 342.57L465.08 342.62L465.05 342.66L465.02 342.71L464.98 342.77L464.96 342.82L464.96 342.82L464.92 342.87L464.83 343.02L464.8 343.08L464.96 342.82L464.98 342.77L465.08 342.62L465.3 342.25L465.45 342.02L465.61 341.76L465.8 341.45L466.01 341.11L466.25 340.73L466.71 339.98L467.15 339.23L467.59 338.47L468.02 337.7L468.43 336.93L468.84 336.15L469.24 335.37L469.62 334.59L469.99 333.8L470.36 333L470.71 332.2L471.06 331.4L471.39 330.59L471.71 329.78L472.02 328.96L472.32 328.14L472.61 327.32L472.89 326.49L473.16 325.66L473.41 324.83L473.66 323.99L473.9 323.15L474.12 322.3L474.34 321.46L474.54 320.61L474.73 319.75L474.91 318.9L475.08 318.04L475.24 317.18L475.39 316.31L475.52 315.45L475.65 314.58L475.76 313.71L475.86 312.84L475.95 311.97L476.03 311.09L476.1 310.21L476.16 309.34L476.2 308.46L476.24 307.57L476.25 307.26L476.26 306.92L476.27 306.56L476.28 306.18L476.29 305.78L476.31 305.35L476.32 304.9L476.34 304.43L476.35 303.93L476.37 303.41L476.39 302.87L476.4 302.31L476.42 301.72L476.44 301.12L476.46 300.48L476.48 299.83L476.5 299.15L476.53 298.45L476.55 297.73L476.57 296.99L476.6 296.22L476.62 295.43L476.65 294.62L476.68 293.78L476.7 292.92L476.73 292.04L476.76 291.14L476.79 290.21L476.82 289.26L476.85 288.29L476.88 287.3L476.92 286.28L476.95 285.24L476.99 284.18L477.02 283.09L477.06 281.99L477.09 280.85L477.13 279.7L477.17 278.53L477.21 277.33L477.11 276.55L477.01 275.79L476.92 275.04L476.83 274.3L476.74 273.59L476.66 272.88L476.57 272.19L476.49 271.52L476.4 270.86L476.33 270.21L476.25 269.58L476.17 268.97L476.1 268.37L476.02 267.78L475.95 267.21L475.89 266.65L475.82 266.11L475.75 265.58L475.69 265.07L475.63 264.57L475.57 264.09L475.51 263.62L475.45 263.17L475.4 262.73L475.35 262.3L475.3 261.89L475.16 260.75L475.07 260.06L475.03 259.74L474.99 259.44L474.96 259.14L474.92 258.87L474.89 258.6L474.86 258.36L474.83 258.12L474.81 257.9L474.78 257.7L464.65 203.87L464.58 203.61L464.51 203.33L464.43 203.02L464.35 202.7L464.27 202.36L464.18 202L464.08 201.63L463.98 201.23L463.87 200.81L463.76 200.38L463.65 199.92L463.53 199.45L463.4 198.96L463.27 198.45L463.13 197.92L462.99 197.37L462.85 196.8L462.7 196.21L462.55 195.61L462.22 194.34L462.05 193.67L461.88 192.99L461.7 192.29L461.52 191.57L461.33 190.83L461.13 190.07L460.94 189.29L460.73 188.49L460.53 187.68L460.31 186.84L460.09 185.99L459.87 185.12L459.65 184.22L459.41 183.31L459.18 182.38L458.93 181.43L458.69 180.47L458.44 179.48L458.18 178.47L424.32 217.38L424.19 219.9L424.07 222.37L423.95 224.79L423.84 227.17L423.72 229.5L423.61 231.78L423.5 234.01L423.4 236.19L423.29 238.33L423.19 240.42L423.09 242.46L422.99 244.45L422.9 246.4L422.81 248.3L422.63 251.95L422.54 253.71L422.46 255.42L422.38 257.08L422.3 258.69L422.22 260.25L422.15 261.77L422.08 263.24L422.01 264.66L421.94 266.04L421.88 267.36L421.81 268.64L421.75 269.87L421.7 271.06L421.64 272.19L421.59 273.28L421.54 274.32L421.49 275.31L421.44 276.26L421.4 277.16L421.36 278.01L421.32 278.81L421.28 279.56L421.24 280.27L421.21 280.93L421.14 282.07L421.04 283.21L420.92 284.34L420.76 285.46L420.58 286.58L420.37 287.69L420.13 288.79L419.87 289.88L419.57 290.96L419.26 292.04L418.91 293.1L418.55 294.15L418.15 295.19L417.73 296.22L417.29 297.24L416.82 298.25L416.32 299.24L415.8 300.22L415.26 301.19L414.7 302.14L414.11 303.07L413.5 304L412.86 304.9L412.21 305.79L411.53 306.67L410.83 307.53L410.1 308.36L409.36 309.19L408.6 309.99L407.81 310.78L407 311.54L406.18 312.29L405.33 313.01L404.47 313.72L403.58 314.4L402.68 315.07L401.75 315.71L400.81 316.33L399.85 316.92L398.87 317.5L398.76 317.56L398.64 317.63L398.52 317.69L398.41 317.76L398.29 317.82L398.18 317.89L398.06 317.95L397.95 318.01L397.83 318.08L397.72 318.14L397.6 318.2L397.49 318.27L397.37 318.33L397.26 318.39L397.15 318.45L397.03 318.51L396.92 318.58L396.81 318.64L396.69 318.7L396.58 318.76L396.47 318.82L396.36 318.88L396.24 318.94L396.13 319L396.02 319.06L395.91 319.12L395.8 319.17L395.69 319.23L395.58 319.29L395.47 319.35L395.36 319.41L395.25 319.46L395.14 319.52L395.03 319.58L394.92 319.64L394.81 319.69L394.7 319.75L394.59 319.8L394.48 319.86L394.38 319.92L394.33 319.94L394.29 319.96L394.24 319.98L394.19 320L394.13 320.02L394.07 320.04L394.01 320.06L393.95 320.08L393.88 320.1L393.81 320.12L393.74 320.14L393.66 320.16L393.58 320.18L393.5 320.2L393.41 320.22L393.32 320.24L393.23 320.26L393.13 320.29L393.03 320.31L392.93 320.33L392.82 320.35L392.71 320.37L392.6 320.39L392.49 320.41L392.37 320.43L392.25 320.46L392.12 320.48L391.99 320.5L391.86 320.52L391.73 320.54L391.59 320.56L391.45 320.59L391.3 320.61L391.16 320.63L391.01 320.65L390.85 320.67L390.7 320.7L390.54 320.72L390.37 320.74L390.21 320.76L389.32 320.86L388.43 320.94L387.55 320.98L386.68 320.99L385.8 320.97L384.93 320.92L384.07 320.84L383.21 320.73L382.36 320.6L381.52 320.44L380.68 320.25L379.85 320.03L379.03 319.78L378.22 319.51L377.42 319.22L376.64 318.89L375.86 318.55L375.09 318.17L374.34 317.77L373.6 317.35L372.88 316.91L372.16 316.44L371.47 315.94L370.79 315.43L370.12 314.89L369.48 314.33L368.85 313.74L368.24 313.14L367.64 312.51L367.07 311.87L366.52 311.2L365.98 310.51L365.47 309.81L364.98 309.08L364.51 308.34L364.07 307.57L363.65 306.79L363.25 305.99L362.88 305.18L362.53 304.34L362.28 303.71L362.01 303.03L361.72 302.31L361.42 301.54L361.09 300.72L360.75 299.86L360.39 298.95L360.01 298L359.62 297L359.2 295.95L358.77 294.86L358.32 293.72L357.85 292.54L357.36 291.31L356.86 290.04L356.34 288.72L355.79 287.35L355.23 285.94L354.66 284.49L354.06 282.98L353.45 281.43L352.16 278.2L351.5 276.51L350.81 274.78L350.1 273L349.38 271.18L348.64 269.31L347.88 267.4L347.1 265.44L346.31 263.43L345.49 261.38L344.66 259.28L343.81 257.14L342.94 254.95L342.06 252.71L341.15 250.43L340.23 248.11L339.29 245.73L338.33 243.31L305.21 261.1L305.7 262.84L306.19 264.56L306.67 266.24L307.13 267.88L307.59 269.5L308.04 271.08L308.48 272.63L308.91 274.15L309.33 275.63L309.74 277.08L310.15 278.49L310.54 279.88L310.92 281.23L311.3 282.54L311.66 283.83L312.01 285.08L312.36 286.3L312.7 287.48L313.02 288.63L313.34 289.75L313.65 290.84L313.95 291.89L314.24 292.91L314.52 293.9L314.79 294.85L315.05 295.77L315.3 296.66L315.54 297.51L315.78 298.34L316 299.12L316.21 299.88L316.42 300.6L316.61 301.29L316.8 301.95L316.98 302.57L317.14 303.16L317.3 303.71L317.45 304.24L317.59 304.73L317.72 305.19L317.92 305.92L318.11 306.66L318.3 307.4L318.47 308.14L318.63 308.88L318.78 309.63L318.91 310.38L319.04 311.13L319.16 311.87L319.27 312.63L319.36 313.38L319.45 314.13L319.52 314.88L319.58 315.64L319.64 316.39L319.68 317.15L319.71 317.91L319.73 318.66L319.74 319.42L319.74 320.17L319.72 320.93L319.7 321.69L319.67 322.44L319.62 323.2L319.57 323.95L319.5 324.7L319.42 325.46L319.34 326.21L319.24 326.96L319.13 327.71L319.01 328.46L318.88 329.21L318.74 329.95L318.58 330.7L318.42 331.44L318.25 332.18L318.06 332.92L317.87 333.65L317.66 334.39L317.44 335.12L317.38 335.33L317.32 335.51L317.28 335.68L317.23 335.82L317.2 335.94L317.16 336.04L317.14 336.12L317.12 336.19L317.1 336.25L317.09 336.29L317.08 336.31L317.07 336.33L317.07 336.34L317.07 336.34L317.07 336.33L317.08 336.33L317.08 336.32L317.08 336.3L317.09 336.28L317.12 336.17L317.12 336.16L317.12 336.16L317.11 336.2L317.09 336.28L317.07 336.34L317.05 336.42L317.02 336.51L316.95 336.76L316.9 336.91L316.85 337.08L316.79 337.28L316.72 337.51L316.64 337.76L316.46 338.35L316.26 338.95L316.06 339.53L315.85 340.12L315.64 340.71L315.41 341.29L315.18 341.86L314.94 342.43L314.7 343L314.44 343.57L314.18 344.13L313.92 344.69L313.64 345.25L313.36 345.8L313.07 346.34L312.77 346.89L312.47 347.42L312.16 347.96L311.84 348.49L311.52 349.01L311.19 349.54L310.85 350.05L310.51 350.56L310.16 351.07L309.8 351.58L309.44 352.07L309.06 352.57L308.69 353.06L308.3 353.54L307.91 354.02L307.52 354.49L307.11 354.96L306.71 355.43L306.29 355.88L305.87 356.34L305.44 356.78L305.01 357.23L304.57 357.66L304.12 358.09L303.67 358.52L303.45 358.72L303.41 358.76L303.41 358.76L303.37 358.79L303.34 358.83L303.26 358.89L303.25 358.91L303.13 359.02L303.13 359.02L303.1 359.05L302.99 359.15L302.87 359.26L302.85 359.28L302.81 359.32L302.75 359.37L302.73 359.39L302.14 359.93L301.42 360.57L300.69 361.19L299.95 361.81L299.21 362.41L298.46 363L297.7 363.57L296.93 364.14L296.15 364.69L295.37 365.23L294.58 365.76L293.78 366.28L292.97 366.79L292.16 367.28L291.34 367.76L290.52 368.23L289.68 368.68L288.84 369.12L288 369.55L287.15 369.97L286.29 370.37L285.42 370.76L284.55 371.14L283.68 371.5L282.8 371.85L281.91 372.19L281.02 372.52L280.13 372.83L279.23 373.13L278.32 373.41L277.41 373.68L276.5 373.94L275.58 374.18L274.65 374.41L273.73 374.63L272.8 374.83L271.86 375.02L270.92 375.19L269.98 375.35L269.04 375.5L268.51 375.57L268.03 375.64L267.6 375.7L267.21 375.76L266.86 375.81L266.56 375.86L266.28 375.9L266.05 375.93L265.84 375.96L265.66 375.99L265.51 376.01L265.39 376.03L265.29 376.04L265.21 376.05L265.1 376.07L265.06 376.08L265.03 376.08L265.02 376.08L265.01 376.08L265 376.09L264.98 376.09L264.91 376.1L264.86 376.11L264.79 376.12L264.7 376.13L264.59 376.15L264.45 376.17L264.29 376.19L264.1 376.22L263.88 376.25L263.63 376.29L263.34 376.33L263.01 376.38L262.65 376.43L261.24 376.62L259.82 376.77L258.41 376.88L257 376.95L255.6 376.99L254.19 376.99L252.79 376.95L251.4 376.88L250.01 376.77L248.62 376.62L247.24 376.44L245.87 376.23L244.51 375.97L243.15 375.69L241.8 375.36L240.47 375.01L239.14 374.62L237.82 374.19L236.52 373.74L235.22 373.24L233.94 372.72L232.68 372.16L231.42 371.57L230.18 370.95L228.96 370.29L227.75 369.61L226.56 368.89L225.39 368.14L224.23 367.36L223.09 366.55L221.98 365.71L220.88 364.83L219.8 363.93L218.74 363L217.71 362.04L216.7 361.04L215.71 360.02L214.74 358.97L213.8 357.9L212.88 356.79L212.79 356.67L212.69 356.55L212.58 356.42L212.47 356.28L212.35 356.13L212.22 355.97L212.09 355.8L211.95 355.63L211.8 355.45L211.65 355.26L211.49 355.06L211.32 354.85L211.15 354.63L210.96 354.41L210.78 354.18L210.58 353.93L210.38 353.69L210.17 353.43L209.96 353.16L209.74 352.89L209.51 352.6L209.28 352.31L209.03 352.01L208.79 351.71L208.53 351.39L208.27 351.07L208 350.73L207.73 350.39L207.44 350.04L207.16 349.69L206.86 349.32L206.56 348.94L206.25 348.56L205.93 348.17L205.61 347.77L205.28 347.36L204.95 346.95L204.6 346.52L204.25 346.09L203.9 345.65L162.63 290.19L162.57 290.29L162.5 290.4L162.44 290.5L162.37 290.6L162.31 290.7L162.25 290.79L162.19 290.89L162.13 290.98L162.08 291.07L162.02 291.16L161.97 291.24L161.91 291.33L161.86 291.41L161.81 291.49L161.72 291.64L161.67 291.71L161.58 291.86L161.38 292.18L161.34 292.23L161.31 292.29L161.28 292.34L161.24 292.39L161.18 292.49L161.15 292.54L161.13 292.58L161.1 292.62L161.07 292.66L161.05 292.7L161.03 292.74L161.01 292.77L160.99 292.8L160.97 292.83L160.95 292.86L160.03 294.35L159.12 295.85L158.24 297.36L157.38 298.88L156.53 300.41L155.71 301.96L154.91 303.51L154.13 305.07L153.38 306.65L152.64 308.23L151.92 309.82L151.23 311.42L150.56 313.03L149.9 314.64L149.27 316.27L148.67 317.9L148.08 319.54L147.51 321.19L146.97 322.85L146.45 324.51L145.95 326.18L145.47 327.86L145.01 329.54L144.58 331.23L144.17 332.93L143.78 334.63L143.41 336.33L143.06 338.05L142.74 339.76L142.44 341.49L142.16 343.21L141.91 344.94L141.68 346.68L141.47 348.42L141.28 350.16L141.11 351.91L140.97 353.66L140.86 355.41L140.76 357.17L140.69 358.93L140.69 358.96L140.69 358.97L140.69 358.99L140.69 359.01L140.69 359.03L140.68 359.05L140.68 359.06L141.01 359.97L141.33 360.86L141.65 361.74L141.96 362.6L142.26 363.45L142.56 364.27L142.85 365.08L143.13 365.87L143.41 366.65L143.68 367.41L143.95 368.15L144.21 368.87L144.46 369.57L144.71 370.26L144.95 370.93L145.18 371.59L145.41 372.22L145.63 372.84L145.85 373.44L146.06 374.03L146.26 374.59L146.46 375.14L146.65 375.68L147.02 376.69L147.67 378.51L147.82 378.92L148.09 379.69L148.22 380.05L148.35 380.39L148.46 380.72L148.57 381.03L148.68 381.32L148.78 381.59L148.87 381.85L148.95 382.08L149.13 382.6L149.31 383.12L149.48 383.64L149.64 384.16L149.8 384.68L149.94 385.2L150.09 385.73L150.22 386.26L150.35 386.79L150.47 387.32L150.59 387.85L150.7 388.38L150.8 388.91L150.9 389.45L150.99 389.98L151.07 390.52L151.15 391.06L151.21 391.6L151.28 392.14L151.33 392.68L151.38 393.22L151.42 393.76L151.46 394.3L151.49 394.84L151.51 395.39L151.53 395.93L151.54 396.47L151.54 397.02L151.53 397.56L151.52 398.1L151.5 398.65L151.48 399.19L151.45 399.73L151.41 400.28L151.37 400.82L151.31 401.36L151.25 401.91L151.19 402.45L151.12 402.99L151.04 403.53L151.03 403.57L151.02 403.67L151.01 403.73L150.98 403.89L150.98 403.95L150.96 404.05L150.96 404.06L150.94 404.15L150.94 404.17L150.93 404.27L150.93 404.23L150.84 404.76L150.73 405.35L150.59 405.95L150.44 406.53L150.27 407.11L150.08 407.67L149.88 408.24L149.66 408.79L149.43 409.33L149.18 409.87L148.91 410.4L148.63 410.92L148.34 411.42L148.03 411.92L147.7 412.41L147.37 412.89L147.02 413.36L146.65 413.82L146.28 414.26L145.89 414.7L145.48 415.12L145.07 415.53L144.64 415.92L144.21 416.31L143.76 416.68L143.3 417.04L142.83 417.38L142.34 417.72L141.85 418.03L141.35 418.33L140.84 418.62L140.32 418.89L139.79 419.15L139.25 419.39L138.7 419.62L138.14 419.83L137.58 420.02L137.01 420.19L136.43 420.35L135.84 420.49L134.97 420.69L134.09 420.89L133.19 421.09L132.29 421.29L131.37 421.5L130.44 421.7L129.51 421.91L128.56 422.12L127.61 422.34L126.66 422.55L125.7 422.77L124.73 422.98L123.76 423.2L122.79 423.42L121.81 423.64L119.86 424.08L118.88 424.3L117.9 424.51L116.93 424.73L115.96 424.95L114.99 425.17L114.03 425.38L113.08 425.6L112.13 425.81L111.18 426.02L110.25 426.23L109.32 426.44L108.4 426.64L107.5 426.85L106.6 427.05L105.72 427.24L104.85 427.44L104 427.63L103.15 427.82L102.33 428L101.52 428.18L100.73 428.36L99.95 428.54L99.2 428.7L98.33 428.92L97.85 429.06L96.33 426.27L91.97 417.44L87.95 408.43L84.27 399.24L80.94 389.87L77.97 380.34L75.38 370.65L73.16 360.82L71.32 350.84L69.88 340.74L68.84 330.51L68.21 320.17L68 309.71L68.21 299.26L68.84 288.92L69.88 278.69L71.32 268.58L73.16 258.61L75.38 248.77L77.97 239.09L80.94 229.56L84.27 220.19L87.95 211L91.97 201.98L96.33 193.16L101.02 184.53L106.03 176.11L111.35 167.9L116.98 159.92L122.9 152.16L129.1 144.64L135.59 137.37L142.34 130.35L149.36 123.59L156.64 117.11L164.15 110.9L171.91 104.98L179.9 99.36L188.11 94.04L196.53 89.03L205.16 84.34L213.98 79.98L222.99 75.95L232.19 72.27L241.55 68.95L251.08 65.98L260.77 63.38L270.6 61.16L280.58 59.33L290.68 57.88L300.91 56.84L311.26 56.21L321.71 56L332.16 56.21L342.51 56.84L352.73 57.88L362.84 59.33L372.81 61.16L382.65 63.38L392.34 65.98L401.87 68.95L411.23 72.27L420.43 75.95L429.44 79.98L438.26 84.34L446.89 89.03L455.31 94.04L463.52 99.36L471.51 104.98L479.26 110.9L486.78 117.11L494.06 123.59L501.08 130.35L507.83 137.37L514.32 144.64L520.52 152.16L526.44 159.92L532.07 167.9L537.39 176.11L542.4 184.53L547.08 193.16L551.45 201.98L555.47 211L559.15 220.19L562.48 229.56L565.44 239.09L568.04 248.77L570.26 258.61L572.1 268.58L573.54 278.69L574.58 288.92L575.21 299.26L575.42 309.71L575.21 320.17L574.58 330.51L573.54 340.74L572.1 350.84L570.26 360.82L568.04 370.65L565.44 380.34L562.48 389.87L559.15 399.24L555.47 408.43L551.45 417.44L547.08 426.27L542.4 434.89L537.39 443.32L532.07 451.53L526.44 459.51L520.52 467.27L514.32 474.79L507.83 482.06L501.08 489.08L494.06 495.84L486.78 502.32L479.26 508.53L471.51 514.45L463.52 520.07L455.31 525.39L446.89 530.4L438.26 535.09L429.44 539.45L420.43 543.47L411.23 547.15L401.87 550.48L392.34 553.45L382.65 556.05L372.81 558.27L362.84 560.1L352.73 561.54L342.51 562.58L332.16 563.21L321.71 563.43L311.26 563.21L300.91 562.58L290.68 561.54L280.58 560.1L270.6 558.27L260.77 556.05L251.08 553.45L241.55 550.48L232.19 547.15L222.99 543.47L213.98 539.45L205.16 535.09L196.53 530.4L188.11 525.39L179.9 520.07L171.91 514.45L164.15 508.53L156.64 502.32L149.36 495.84L142.34 489.08L135.59 482.06L134.4 480.73L163.84 474.22L227.31 460.28L227.9 460.14L228.48 460.01L229.6 459.74L230.14 459.61L230.68 459.48L231.2 459.36L231.71 459.24L232.21 459.12L232.7 459.01L233.17 458.89L233.64 458.78L234.09 458.67L234.54 458.57L234.97 458.47L235.39 458.37L235.8 458.27L236.2 458.18L236.59 458.08L236.96 457.99L237.33 457.91L237.68 457.82L238.03 457.74L238.36 457.66L238.68 457.59L238.99 457.51L239.29 457.44L239.57 457.37L239.85 457.31L240.12 457.25L240.37 457.18L240.61 457.13L240.84 457.07L241.06 457.02L241.27 456.97L241.47 456.92L241.66 456.88L241.84 456.83L242 456.8L242.15 456.76L280.58 449.2L281.09 449.12L281.54 449.05L281.94 448.98L282.14 448.95L282.14 448.95L282.18 448.95L282.25 448.93L282.36 448.92L282.49 448.9L282.67 448.87L282.89 448.83L283.15 448.79L283.46 448.74L285.11 448.48L286.75 448.21L288.39 447.93L290.04 447.64L291.67 447.34L293.31 447.03L294.95 446.71L296.58 446.38L298.21 446.04L299.84 445.7L301.47 445.34L303.09 444.98L304.72 444.6L306.34 444.22L307.95 443.83L309.57 443.43L311.18 443.02L312.8 442.6L314.41 442.17L316.01 441.73L317.62 441.29L319.22 440.83L320.82 440.37L322.42 439.89L324.01 439.41L325.6 438.92L327.19 438.42L328.78 437.91L330.36 437.39L331.94 436.86L333.52 436.32L335.1 435.78L336.67 435.22L338.24 434.66L339.8 434.08L341.37 433.5L342.93 432.91L344.49 432.31L346.04 431.7L347.59 431.08L348 430.92L348.35 430.78L348.65 430.66L348.9 430.56L349.11 430.47L349.28 430.41L349.32 430.39L349.64 430.26L350.02 430.11L350.44 429.94L350.93 429.74L352.2 429.23L353.48 428.71L354.75 428.19L356.01 427.66L357.28 427.13L358.55 426.59L359.81 426.05L361.07 425.5L362.33 424.95L363.58 424.4L364.84 423.84L366.09 423.28L367.34 422.71L368.59 422.13L369.84 421.56L371.08 420.97L372.32 420.39L373.56 419.8L374.8 419.2L376.04 418.6L377.27 418L378.5 417.39L379.73 416.78L380.96 416.16L382.19 415.54L383.41 414.91L384.63 414.28L385.85 413.64L387.07 413L388.28 412.36L389.5 411.71L390.71 411.06L391.91 410.4L393.12 409.74L394.32 409.07L395.52 408.4L396.72 407.73L397.92 407.05L399.11 406.36L400.31 405.68L400.46 405.59L400.62 405.5L400.79 405.4L400.97 405.29L401.16 405.18L401.37 405.06L401.58 404.94L401.81 404.81L402.04 404.67L402.29 404.53L402.55 404.38L402.82 404.22L403.09 404.06L403.39 403.89L403.69 403.71L404 403.53L404.32 403.35L404.65 403.15L405 402.95L405.35 402.75L405.72 402.54L406.1 402.32L406.49 402.09L406.88 401.86L407.29 401.62L407.71 401.38L408.15 401.13L408.59 400.87L409.04 400.61L409.5 400.34L409.98 400.07L410.46 399.79L410.96 399.5L411.47 399.21L411.99 398.91L412.51 398.6L413.05 398.29L413.6 397.97L414.17 397.64L414.74 397.31L415.28 396.85L415.82 396.39L416.34 395.94L416.86 395.5L417.36 395.07L417.86 394.65L418.34 394.24L418.82 393.83L419.28 393.44L419.73 393.05L420.17 392.67L420.61 392.31L421.03 391.95L421.44 391.59L421.84 391.25L422.23 390.92L422.61 390.59L422.98 390.28L423.34 389.97L424.68 388.83L424.99 388.57L425.29 388.31L425.57 388.07L425.85 387.83L426.12 387.6L426.38 387.38L426.62 387.17L426.86 386.97L427.08 386.78L427.3 386.6L427.5 386.42L427.7 386.26L427.88 386.1L428.06 385.95L428.22 385.81L428.37 385.68L428.52 385.56L429.56 384.66L430.6 383.75L431.63 382.84L432.66 381.91L433.67 380.98L434.68 380.04L435.69 379.1L436.68 378.14L437.67 377.18L438.65 376.21L439.62 375.23L440.58 374.25L441.54 373.26L442.49 372.26L443.43 371.25L444.36 370.24L445.29 369.22L446.21 368.19L447.12 367.15L448.02 366.11L448.91 365.06L449.8 364.01L450.68 362.94L451.54 361.87L452.41 360.8L453.26 359.71L454.1 358.62L454.94 357.52L455.77 356.42L456.59 355.31L457.4 354.19L458.2 353.07L459 351.94L459.79 350.8L460.56 349.66L461.33 348.51L462.09 347.35L462.84 346.19L463.59 345.02L464.32 343.84L464.48 343.59L464.62 343.36L464.74 343.17L464.84 343.01L464.92 342.88L464.99 342.77L465.04 342.69L465.07 342.63L465.1 342.59L465.11 342.57L465.11 342.57L465.11 342.57L465.12 342.56ZM283.49 448.74L283.43 448.75L283.34 448.77L283.21 448.79L283.04 448.81L282.83 448.84L282.58 448.88L282.28 448.93L282.14 448.95L282.13 448.95L282.14 448.95L282.18 448.95L282.23 448.94L282.31 448.93L282.39 448.91L282.49 448.9L282.59 448.88L282.7 448.86L282.82 448.85L282.93 448.83L283.05 448.81L283.15 448.8L283.25 448.78L283.34 448.77L283.41 448.75L283.47 448.74L283.51 448.74L283.53 448.74L283.53 448.74L283.49 448.74ZM349.4 430.36L349.32 430.39L349.05 430.5L348.82 430.59L348.64 430.67L348.49 430.72L348.39 430.77L348.32 430.79L348.28 430.81L348.26 430.82L348.28 430.81L348.31 430.8L348.37 430.77L348.44 430.74L348.53 430.71L348.63 430.67L348.73 430.63L348.84 430.58L348.96 430.54L349.07 430.49L349.18 430.45L349.28 430.41L349.37 430.37L349.45 430.34L349.51 430.31L349.56 430.3L349.58 430.29L349.55 430.3L349.5 430.32L349.4 430.36ZM150.9 404.45L150.91 404.41L150.91 404.38L150.93 404.23L150.94 404.15L150.96 404.06L150.98 403.95L150.98 403.95L150.98 403.9L150.98 403.89L150.99 403.88L151.02 403.67L151.02 403.67L151.03 403.57L151.03 403.57L151.04 403.52L151.05 403.47L151.05 403.47L151.05 403.46L151.05 403.47L151.05 403.47L151.05 403.48L151.04 403.52L151.03 403.57L151.02 403.65L151.01 403.74L150.99 403.85L150.97 403.99L150.95 404.15L150.93 404.27L150.91 404.38L150.9 404.44L150.89 404.48L150.89 404.49L150.89 404.48L150.89 404.48L150.9 404.45ZM302.57 359.54L302.61 359.51L302.61 359.51L302.69 359.42L302.73 359.39L302.75 359.38L302.84 359.29L302.85 359.28L302.87 359.26L302.96 359.18L302.99 359.15L303 359.14L303.07 359.08L303.1 359.05L303.1 359.05L303.13 359.02L303.25 358.91L303.26 358.89L303.26 358.89L303.37 358.79L303.37 358.79L303.4 358.77L303.4 358.77L303.41 358.76L303.4 358.77L303.41 358.76L303.41 358.76L303.4 358.77L303.38 358.79L303.34 358.83L303.28 358.88L303.2 358.95L303.1 359.04L302.99 359.15L302.85 359.28L302.75 359.38L302.74 359.38L302.61 359.51L302.57 359.54L302.56 359.54L302.54 359.57L302.53 359.58L302.54 359.57L302.54 359.57L302.57 359.54Z" id="d3OqT54da"></path></defs><g><g><g><use xlink:href="#d3OqT54da" opacity="1" fill="#e1e1e1" fill-opacity="1"></use></g></g></g></svg>