<?xml version="1.0" encoding="UTF-8" standalone="no"?>
<!DOCTYPE svg PUBLIC "-//W3C//DTD SVG 1.1//EN" "http://www.w3.org/Graphics/SVG/1.1/DTD/svg11.dtd">
<svg version="1.1" xmlns="http://www.w3.org/2000/svg" xmlns:xlink="http://www.w3.org/1999/xlink" preserveAspectRatio="xMidYMid meet" viewBox="0 0 640 640" width="512" height="512"><defs><path d="M620 320C620 485.57 485.57 620 320 620C154.43 620 20 485.57 20 320C20 154.43 154.43 20 320 20C485.57 20 620 154.43 620 320Z" id="bdpTNCho"></path><path d="M538.21 358.16C537.32 357.46 535.1 355.72 531.56 352.94C531.56 352.94 531.56 352.94 531.56 352.94C505.66 361.88 477.69 362.98 451.17 356.07C450.05 355.78 447.25 355.06 442.77 353.89C442.77 353.89 442.77 353.89 442.77 353.89C418.4 348.87 401.14 327.11 401.8 302.24C402.25 285.31 403.38 242.99 405.18 175.27C399.63 175.27 396.16 175.27 394.77 175.27C383.32 175.27 374.05 184.55 374.05 195.99C374.05 208.37 374.05 239.31 374.05 288.83C372.31 307.46 371.24 319.1 370.8 323.76C368.99 343.28 348.42 355.15 330.62 346.95C328.12 345.8 328.26 345.86 318.56 341.39C318.29 341.27 318.04 341.09 317.83 340.88C314.43 337.44 317.9 340.95 317.83 340.88C306.79 329.71 299.82 315.14 298.04 299.52C296.29 284.05 295.14 273.97 293.73 261.55C291.18 239.11 272.2 222.16 249.61 222.16C248.79 222.16 246.71 222.16 243.39 222.16C240.75 222.75 239.09 223.13 238.42 223.28C215.73 228.41 195.81 241.9 182.61 261.06C182.29 261.53 181.49 262.69 180.2 264.56C180.54 256.66 183.22 193.43 183.56 185.53C184.09 174.6 184.41 167.77 184.54 165.04C185.01 155.16 179.8 145.89 171.13 141.17C169.6 140.34 165.82 138.28 159.75 134.98C159.91 148.87 161.25 260.04 161.42 273.93C161.85 278.31 162.12 281.05 162.23 282.15C165.99 320.13 190.23 353 225.41 367.81C225.83 367.98 214 363 225.41 367.81C225.41 367.81 229.72 369.29 229.72 369.29C234.77 370.66 229.69 369.28 230.24 369.43C246.62 373.89 263.65 375.58 280.58 374.43C281.08 374.4 282.32 374.31 284.29 374.18C277.1 361.36 272.6 353.35 270.8 350.14C266.81 343.03 258.79 339.19 250.74 340.53C245.61 341.39 255.19 339.78 252.95 340.16C235.85 343.03 218.57 336.22 208.01 322.47C201.98 314.61 209.59 324.53 205.71 319.46C190.51 299.67 194.83 271.2 215.21 256.79C217.67 255.05 212.34 258.82 220.96 252.73C225.3 249.66 230.16 247.41 235.3 246.11C241.07 244.65 232.18 246.9 233.35 246.61C250.6 242.23 268.25 252.16 273.48 269.16C273.66 269.77 274.13 271.27 274.87 273.67C281.83 304.12 286.18 323.15 287.92 330.76C295.1 362.19 325.84 382.31 357.51 376.32C365.6 374.8 352.29 377.31 365.17 374.88C386.74 370.81 408.96 371.72 430.13 377.53C438.59 379.86 425.25 376.19 432.07 378.07C458.75 385.4 486.59 387.57 514.09 384.46C514.82 384.38 505.77 385.4 514.09 384.46C516.49 384.19 518.91 384.36 521.25 384.97C528.44 386.85 518.87 384.35 519.16 384.42C538.73 389.52 548.61 411.38 539.5 429.44C537.42 433.55 536.32 435.73 531.1 446.09C530.52 447.24 531.8 448.43 532.92 447.79C537.77 444.93 546.43 439.86 550.75 437.32C554.84 434.91 557.64 430.82 558.41 426.15C559.9 416.9 559.64 418.51 560.26 414.76C563.75 393.29 555.3 371.61 538.21 358.16Z" id="gifgHeY3c"></path><path d="M282.8 177.05C283.47 211.39 313.9 237.5 347.94 232.94C347.94 232.94 347.94 232.94 347.94 232.94C348.31 235.06 350.14 245.69 353.43 264.81C328.17 259.92 314.14 257.2 311.33 256.66C311.33 256.66 311.33 256.66 311.33 256.66C306.11 238.67 292.95 224.05 275.61 216.97C272.12 215.55 275.37 216.88 268.45 214.05C262.35 211.56 258.59 205.39 259.18 198.83C260.32 186.04 261.67 171.01 262.54 161.29C262.54 161.29 265.95 108.49 265.95 108.49C266.18 102.8 266.73 88.6 267.63 65.86C273.36 69.71 276.94 72.13 278.38 73.09C282.89 76.12 285.45 81.32 285.11 86.75C284.7 93.3 283.66 109.67 282 135.87C282.43 157.83 282.7 171.56 282.8 177.05Z" id="aKOqsI9C4"></path><path d="M537.34 336.63C541.77 336.32 533.53 336.89 537.34 336.63C549.93 335.75 559.82 325.5 560.26 312.89C560.26 312.89 560.26 312.89 560.26 312.89C529.32 314.54 506.99 315 493.25 314.27C483.92 313.77 457.52 311.68 443.38 288.71C439.95 283.15 437.68 274.56 436.56 265.41C435.64 257.85 437.54 247.78 442.28 235.17C442.86 233.63 441.32 232.14 439.81 232.77C437.17 233.87 430.55 236.61 419.99 241C419.99 258.38 419.99 269.24 419.99 273.59C419.99 285.29 423.52 296.73 430.12 306.4C433.48 311.34 428.09 303.43 430.12 306.4C440.78 322.04 457.85 332.13 476.69 333.95C485.01 334.74 488.81 335.11 499.27 336.12C511.92 337.34 524.66 337.51 537.34 336.63Z" id="a1HuPXU3s1"></path><path d="M404.63 522.12C400.83 522.71 403.28 522.33 392.91 523.96C391.93 524.11 391.99 525.54 392.98 525.61C405.62 526.51 408.45 526.72 414.15 527.13C442.03 529.12 470.03 527.36 497.44 521.88C497.89 521.79 487.17 523.93 494.93 522.38C497.42 521.88 498.88 519.26 497.97 516.88C496.03 511.75 492.31 501.93 490.47 497.05C489.3 493.98 485.67 492.66 482.81 494.29C475.2 498.59 481.73 494.89 480.1 495.82C456.73 509.04 431.16 517.94 404.63 522.12Z" id="igADyz6C"></path><path d="M104.67 365.18C104.38 374.98 104.76 361.99 104.67 365.18C103.74 396.89 113.63 427.97 132.7 453.32C134.16 455.26 126.8 445.49 132.7 453.32C137.56 459.78 143.02 465.78 149 471.22C153.65 475.46 147.39 469.75 149.23 471.44C164.36 485.2 182.58 495.12 202.35 500.34C203.17 500.56 205.2 501.1 208.45 501.96C209.11 502.1 209.52 502.19 209.69 502.23C221.98 504.92 234.75 504.5 246.84 501C247.68 500.75 249.79 500.14 253.18 499.16C253.83 500.12 254.24 500.72 254.39 500.96C259.57 508.61 266.28 515.1 274.09 520.01C275.19 520.71 275.29 520.78 278.56 522.83C278.86 523.02 278.73 523.49 278.37 523.49C271.75 523.54 266.86 523.57 263.67 523.6C263.67 523.6 226.87 524.17 226.87 524.17C224.51 524.23 235.71 523.96 233.32 524.02C221.17 524.3 209.01 523.42 197.03 521.38C192.87 520.68 195.87 521.18 191.07 520.37C181.23 518.69 171.66 515.67 162.64 511.4C156.59 508.53 165.36 512.69 162.64 511.4C142.77 501.98 125.43 487.98 112.05 470.53C110.55 468.57 116.12 475.83 112.05 470.53C107.06 464.02 102.68 457.05 98.97 449.73C94.42 440.72 94.92 441.72 92.52 436.96C81.89 415.95 77.89 392.22 81.05 368.88C81.52 365.43 82.69 356.76 84.57 342.91C85.71 339.03 86.43 336.6 86.71 335.63C96.22 303.37 110.08 272.54 127.91 244.03C128.49 243.12 122.99 251.9 128.49 243.12C129.88 240.89 132.39 239.61 135.01 239.79C136 239.85 138.5 240.02 142.5 240.29C135.39 257.19 130.94 267.75 129.17 271.97C120.77 291.94 113.99 312.55 108.9 333.61C108.14 336.72 110.43 327.28 108.9 333.61C106.39 343.95 104.98 354.54 104.67 365.18Z" id="b1EXMOvFTf"></path><path d="M262.44 314.93C245.36 324.55 229.68 336.48 215.84 350.36C212.5 353.73 216.37 349.83 211.28 354.94C203.18 363.08 196 372.12 189.92 381.88C186.51 387.34 186.45 387.45 183.29 392.51C176.95 402.67 177.27 415.62 184.08 425.45C184.49 426.05 185.52 427.54 187.17 429.92C187.53 430.33 187.75 430.59 187.84 430.69C195.73 439.71 207.1 444.93 219.09 445.01C219.48 445.02 220.43 445.03 221.97 445.04C223.29 457.16 224.13 464.74 224.45 467.78C224.77 470.64 222.5 473.14 219.6 473.09C217.56 473.05 214.35 472.99 211.67 472.94C211.67 472.94 207.09 472.68 207.09 472.68C202.41 472.23 209.38 472.9 209.38 472.9C192.87 471.31 177.56 463.63 166.42 451.35C166.42 451.35 166.42 451.35 166.42 451.35C165.95 450.81 165.64 450.48 165.52 450.34C148.08 430.45 146.05 401.36 160.55 379.23C160.55 379.23 160.55 379.23 160.55 379.23C164.1 374.37 166.32 371.34 167.21 370.12C183.06 348.44 202.72 329.84 225.24 315.22C225.47 315.07 226.07 314.69 227.01 314.07C228.8 312.84 243.08 302.95 244.87 301.71C245.56 301.43 245.99 301.26 246.16 301.19C252.19 298.75 259.11 300.76 262.91 306.04C262.91 306.04 262.91 306.04 262.91 306.04C263.14 306.48 264.3 308.71 266.39 312.7C264.11 313.99 262.79 314.73 262.44 314.93Z" id="adcXJ5jN2"></path><path d="M276.32 448.04C291.22 439.35 303.49 426.77 311.81 411.65C312.99 409.52 315.92 404.18 320.62 395.64C316.82 394.39 314.44 393.6 313.49 393.28C306.26 390.9 298.34 393.82 294.39 400.33C291.09 405.75 295.74 398.1 294.39 400.33C283.55 418.17 268.86 433.35 251.39 444.77C249.96 445.7 256.7 441.31 251.39 444.77C248.61 446.6 249.26 450.85 252.46 451.76C254.55 452.35 250.82 451.3 252.46 451.76C259.2 453.66 266.4 452.98 272.67 449.86C273.15 449.62 274.37 449.01 276.32 448.04C276.32 448.04 276.32 448.04 276.32 448.04Z" id="aAjWr2xZ5"></path><path d="M515.27 486.08C521.74 468.14 520.04 448.27 510.62 431.7C510.13 430.84 508.92 428.71 506.98 425.3C506.98 425.3 506.98 425.3 506.98 425.3C500.98 418.99 492.97 414.98 484.33 413.95C481.64 413.63 487 414.27 484.33 413.95C475.43 412.9 466.41 413.29 457.63 415.14C455.36 415.61 449.69 416.8 440.63 418.7C442.11 425.35 443.03 429.5 443.39 431.17C443.87 433.31 445.84 434.8 448.04 434.66C452.86 434.38 453.42 434.34 455.72 434.21C466.65 433.57 477.61 434.01 488.45 435.53C489.31 435.65 483.42 434.82 486.24 435.22C490.32 435.79 493.85 438.36 495.65 442.07C496.68 444.21 492.77 436.14 492.77 436.14C498.09 447.13 501.28 459.04 502.16 471.22C502.38 474.4 502.54 476.61 502.97 482.56C503.16 485.14 505.25 487.17 507.83 487.27C508.75 487.31 511.05 487.4 514.74 487.55C515.02 486.77 515.2 486.28 515.27 486.08Z" id="d5rhcjgIqZ"></path><path d="M416.38 482.54C418.25 477.37 417.75 478.75 418.7 476.1C423.29 463.39 424.5 449.69 422.22 436.35C421.63 432.93 422.91 440.43 422.22 436.35C420.29 425.03 416.58 414.08 411.25 403.93C410.33 402.2 408.06 397.87 404.43 390.95C402.74 392.38 389.24 403.79 387.55 405.22C388.65 407.52 389.33 408.96 389.6 409.53C395.74 422.49 400.32 436.15 403.23 450.21C403.59 451.96 401.74 443.02 402.46 446.51C404.16 454.66 403.76 463.1 401.32 471.06C400.52 473.7 403.12 465.19 402.64 466.75C399.25 477.81 391.11 486.74 380.46 491.05C378.78 491.73 385.62 488.96 382.7 490.14C375.78 492.94 368.19 493.64 360.89 492.15C353.47 490.63 362.44 492.47 360.03 491.97C340.55 487.99 328.62 468.03 334.2 448.78C334.44 447.95 335.06 445.85 336.02 442.5C336.13 442.33 336.2 442.22 336.22 442.17C345.39 427.18 356.71 413.65 369.81 402.02C369.81 402.02 369.81 402.02 369.81 402.02C376.44 395.76 380.6 391.85 382.26 390.28C398.08 375.36 416.09 362.97 435.63 353.54C435.73 353.49 435.96 353.37 436.35 353.2C436.35 353.2 436.35 353.2 436.35 353.2C438.71 343.43 439.93 333.43 439.99 323.38C439.99 323.19 440 322.69 440 321.89C435.17 325.67 396.49 355.86 391.66 359.64C376.8 372.57 367.51 380.65 363.79 383.88C363.79 383.88 341.02 406.06 341.02 406.06C336.06 411.48 342.67 404.27 340.4 406.75C324.49 424.1 313.03 445.11 307.01 467.95C306.57 469.64 309.31 459.23 307.6 465.74C305.73 472.81 304.79 480.09 304.77 487.41C304.75 492.17 304.78 482.68 304.78 484.26C304.73 500.01 315.62 513.65 330.88 516.95C332.16 517.24 335.39 517.93 340.55 519.05C344.01 519.37 346.16 519.59 347.04 519.67C370.51 521.9 393.64 512.65 409.2 494.76C410.16 493.68 404.25 500.46 409.2 494.76C412.33 491.17 414.77 487.03 416.38 482.54Z" id="aveakJv0r"></path></defs><g><g><g><use xlink:href="#bdpTNCho" opacity="1" fill="#383636" fill-opacity="1"></use></g><g><use xlink:href="#gifgHeY3c" opacity="1" fill="#e1e1e1" fill-opacity="1"></use></g><g><use xlink:href="#aKOqsI9C4" opacity="1" fill="#e1e1e1" fill-opacity="1"></use></g><g><use xlink:href="#a1HuPXU3s1" opacity="1" fill="#e1e1e1" fill-opacity="1"></use></g><g><use xlink:href="#igADyz6C" opacity="1" fill="#e1e1e1" fill-opacity="1"></use></g><g><use xlink:href="#b1EXMOvFTf" opacity="1" fill="#e1e1e1" fill-opacity="1"></use></g><g><use xlink:href="#adcXJ5jN2" opacity="1" fill="#e1e1e1" fill-opacity="1"></use></g><g><use xlink:href="#aAjWr2xZ5" opacity="1" fill="#e1e1e1" fill-opacity="1"></use></g><g><use xlink:href="#d5rhcjgIqZ" opacity="1" fill="#e1e1e1" fill-opacity="1"></use></g><g><use xlink:href="#aveakJv0r" opacity="1" fill="#e1e1e1" fill-opacity="1"></use></g></g></g></svg>