<?xml version="1.0" encoding="UTF-8" standalone="no"?>
<!DOCTYPE svg PUBLIC "-//W3C//DTD SVG 1.1//EN" "http://www.w3.org/Graphics/SVG/1.1/DTD/svg11.dtd">
<svg version="1.1" xmlns="http://www.w3.org/2000/svg" xmlns:xlink="http://www.w3.org/1999/xlink" preserveAspectRatio="xMidYMid meet" viewBox="0 0 640 640" width="640" height="640"><defs><path d="M474.78 257.7C474.78 257.7 464.65 203.87 464.65 203.87C463.79 200.48 461.63 192.01 458.18 178.47C454.79 182.36 427.7 213.49 424.32 217.38C422.66 251.27 421.63 272.46 421.21 280.93C420.47 296.21 412.03 310.02 398.87 317.5C397.32 318.37 395.82 319.18 394.38 319.92C393.84 320.18 392.45 320.47 390.21 320.76C378.37 322.33 366.99 315.58 362.53 304.34C359.31 296.2 351.24 275.86 338.33 243.31C335.02 245.09 308.52 259.32 305.21 261.1C311.88 284.61 316.05 299.31 317.72 305.19C320.5 314.98 320.41 325.38 317.44 335.12C316.54 338.08 317.7 334.24 316.64 337.76C314.21 345.73 309.74 352.89 303.67 358.52C300.62 361.35 304.86 357.41 302.85 359.28C293.44 368 281.66 373.65 269.04 375.5C261.69 376.57 267.8 375.68 262.65 376.43C243.82 379.19 224.93 371.73 212.88 356.79C211.68 355.3 208.69 351.59 203.9 345.65C199.77 340.1 166.76 295.73 162.63 290.19C161.73 291.61 161.18 292.51 160.95 292.86C148.49 312.64 141.49 335.46 140.69 358.93C140.69 358.95 140.69 358.99 140.68 359.06C145.09 371.34 147.85 379.02 148.95 382.08C151.42 388.94 152.14 396.32 151.04 403.53C150.61 406.34 151.3 401.83 150.95 404.15C149.72 412.24 143.71 418.73 135.84 420.49C124.33 423.07 109.14 426.48 99.2 428.7C87.58 431.31 80.14 442.82 82.4 454.66C83.33 459.47 85.64 471.49 89.33 490.7C94.3 489.6 119.13 484.11 163.84 474.22C201.92 465.86 223.08 461.21 227.31 460.28C235.23 458.4 240.18 457.23 242.15 456.76C242.15 456.76 280.58 449.2 280.58 449.2C287.76 448.07 279.01 449.44 283.46 448.74C305.42 445.3 326.93 439.38 347.59 431.08C353.37 428.77 344.04 432.51 350.93 429.74C367.93 422.92 384.43 414.88 400.31 405.68C402.23 404.56 407.04 401.77 414.74 397.31C422.08 391.04 426.68 387.13 428.52 385.56C442.51 373.62 454.59 359.55 464.32 343.84C466.59 340.18 462.92 346.09 466.25 340.73C472.42 330.77 475.86 319.33 476.24 307.57C476.36 303.54 476.69 293.46 477.21 277.33C475.91 266.86 475.1 260.32 474.78 257.7Z" id="a11V2slnJT"></path></defs><g><g><g><use xlink:href="#a11V2slnJT" opacity="1" fill="#000000" fill-opacity="1"></use></g></g></g></svg>