<svg xmlns="http://www.w3.org/2000/svg" width="512" height="512" viewBox="0 0 512 512" fill="#FFFFFF"><path d="M452.542 155.638H419.09v-50.181c-.028-23.085-18.734-41.79-41.818-41.818h-34.996a25.047 25.047 0 0 0-23.549-16.727H302V30.185c-.015-13.85-11.24-25.076-25.09-25.09H176.545c-13.85.014-25.076 11.24-25.09 25.09v16.727h-16.728a25.05 25.05 0 0 0-23.55 16.728H76.184c-23.083.026-41.79 18.732-41.817 41.817v326.177c.027 23.084 18.734 41.79 41.818 41.818h100.362v8.363c.015 13.85 11.24 25.076 25.09 25.09h250.906c13.851-.014 25.076-11.24 25.09-25.09V180.728c-.015-13.85-11.24-25.076-25.09-25.09zM168.183 30.185a8.374 8.374 0 0 1 8.363-8.363h100.362a8.374 8.374 0 0 1 8.364 8.363v16.727H168.183V30.185zm-41.818 41.818a8.374 8.374 0 0 1 8.363-8.363h183.998a8.374 8.374 0 0 1 8.364 8.363v33.454a8.374 8.374 0 0 1-8.364 8.363H134.73a8.374 8.374 0 0 1-8.363-8.363V72.003zm50.181 108.725v275.996H76.184c-13.85-.014-25.076-11.24-25.09-25.09V105.457c.014-13.851 11.24-25.076 25.09-25.09h33.454v25.09c.014 13.85 11.24 25.075 25.09 25.09h183.998c13.851-.015 25.076-11.24 25.091-25.09v-25.09h33.454c13.85.014 25.076 11.239 25.09 25.09v50.18H201.637c-13.851.015-25.075 11.24-25.09 25.091zm284.36 301.087a8.374 8.374 0 0 1-8.363 8.363H201.638a8.374 8.374 0 0 1-8.363-8.363V180.728a8.374 8.374 0 0 1 8.363-8.363h250.905a8.374 8.374 0 0 1 8.364 8.363v301.087z" data-original="#000000" class="active-path" data-old_color="#D7D4D4"/><path d="M402.361 256H251.818c-4.62 0-8.363 3.744-8.363 8.363s3.744 8.363 8.363 8.363H402.36c4.62 0 8.363-3.744 8.363-8.363S406.98 256 402.361 256zM402.361 297.818H251.818c-4.62 0-8.363 3.744-8.363 8.363s3.744 8.363 8.363 8.363H402.36c4.62 0 8.363-3.744 8.363-8.363s-3.744-8.363-8.363-8.363zM402.361 339.635H251.818c-4.62 0-8.363 3.744-8.363 8.363s3.744 8.363 8.363 8.363H402.36c4.62 0 8.363-3.744 8.363-8.363s-3.744-8.363-8.363-8.363zM402.361 381.453H251.818a8.363 8.363 0 0 0 0 16.726H402.36a8.363 8.363 0 0 0 0-16.726z" data-original="#000000" class="active-path" data-old_color="#D7D4D4"/></svg>