<svg xmlns="http://www.w3.org/2000/svg" viewBox="0 0 55 55" width="512" height="512"><path d="M.622 24.444a.981.981 0 0 1 .212-1.07l11.76-11.758A.979.979 0 1 1 13.982 13L3.892 23.09h15.276V1.527a.98.98 0 0 1 .98-.98h33.324c.031 0 .059.015.089.018.055.005.103.018.155.031a.952.952 0 0 1 .254.106c.025.016.056.016.08.033.03.023.054.051.081.076.017.016.035.03.05.046.075.08.136.17.18.268.01.02.014.039.022.058.041.11.069.225.069.344v45.085a.967.967 0 0 1-.07.348c-.014.036-.035.067-.053.1a.943.943 0 0 1-.406.409c-.037.02-.07.04-.11.054-.016.006-.029.018-.045.024l-21.562 6.86a.982.982 0 0 1-1.276-.935v-5.88H20.147a.98.98 0 0 1-.98-.98V25.05H3.892l10.089 10.088a.979.979 0 1 1-1.386 1.386L.835 24.764a.986.986 0 0 1-.213-.32zM32.89 52.133l19.602-6.238V2.867L32.89 9.105v43.028zm-11.762-6.501h9.801V8.388a.98.98 0 0 1 .684-.934l15.546-4.947h-26.03v43.125z" data-original="#000000" class="active-path" data-old_color="#000000" fill="#FFF"/><path d="M34.486 31l4.9-1.96a.98.98 0 1 1 .728 1.82l-4.9 1.961A.98.98 0 0 1 34.486 31z" data-original="#000000" class="active-path" data-old_color="#000000" fill="#FFF"/></svg>