<svg xmlns="http://www.w3.org/2000/svg" height="512" width="512" viewBox="0 0 512 512" fill="#FFFFFF"><path data-old_color="#ffffff" class="active-path" data-original="#000000" d="M504.266 194.399a10.595 10.595 0 0 0-8.051-3.702h-22.016V71.977c0-8.127-6.621-14.739-14.749-14.739H203.665l-20.723-34.543a14.808 14.808 0 0 0-12.646-7.166H55.202a14.774 14.774 0 0 0-14.731 14.748v160.42H17.706a10.604 10.604 0 0 0-10.485 12.17l41.02 270.755a10.553 10.553 0 0 0 10.476 8.995h396.478a10.553 10.553 0 0 0 10.485-9.02L506.7 202.9a10.57 10.57 0 0 0-2.434-8.51zM57.15 32.209h112.047l20.73 34.543c2.64 4.426 7.49 7.166 12.647 7.166H457.52v116.77h-8.34v-33.36h-8.34v-25.02h-8.34v-25.02H82.162v25.02h-8.34v25.02h-8.34v33.36h-8.34V32.218zm25.02 141.799H432.49v16.68H82.17zm8.34-25.02H424.15v8.34H90.51zm325.299-16.68H98.852v-8.34H415.81zm34.168 333.638H63.951l-39.182-258.57h464.374l-39.165 258.587z"/><path data-old_color="#ffffff" class="active-path" data-original="#000000" d="M231.944 424.245h175.16v-116.77h-175.16zm16.68-100.09h141.8v83.401h-141.8z"/><path data-old_color="#ffffff" class="active-path" data-original="#000000" d="M273.645 357.516h33.36a8.34 8.34 0 1 0 0-16.68h-33.36a8.34 8.34 0 1 0 0 16.68zm66.73 0h8.34a8.34 8.34 0 1 0 0-16.68h-8.34a8.34 8.34 0 1 0 0 16.68zm25.02 16.68h-91.742a8.34 8.34 0 1 0 0 16.68h91.741a8.34 8.34 0 1 0 0-16.68z"/></svg>