<svg xmlns="http://www.w3.org/2000/svg" viewBox="0 0 59.911 59.911" width="512" height="512"><path d="M59.015 23.53a1.245 1.245 0 0 0-.946-.435h-2.587V9.145c0-.955-.778-1.732-1.733-1.732H23.693l-2.435-4.059a1.74 1.74 0 0 0-1.486-.842H6.248a1.736 1.736 0 0 0-1.731 1.733v18.85H1.842A1.246 1.246 0 0 0 .61 24.525l4.82 31.815a1.24 1.24 0 0 0 1.231 1.057h46.588a1.24 1.24 0 0 0 1.232-1.06l4.82-31.808a1.242 1.242 0 0 0-.286-1zM6.477 4.472h13.166l2.436 4.059c.31.52.88.842 1.486.842h29.957v13.721h-.98v-3.92h-.98v-2.94h-.98v-2.94H9.416v2.94h-.98v2.94h-.98v3.92h-.98V4.473zm2.94 16.662h41.164v1.96H9.417v-1.96zm.98-2.94h39.204v.98H10.397v-.98zm38.224-1.96H11.377v-.98h37.244v.98zm4.015 39.204H7.276L2.672 25.055h54.566L52.636 55.44z" data-original="#000000" class="active-path" data-old_color="#ffffff" fill="#fff"/><path d="M27.016 50.538h20.582V36.817H27.016v13.721zm1.96-11.761h16.662v9.8H28.976v-9.8z" data-original="#000000" class="active-path" data-old_color="#ffffff" fill="#fff"/><path d="M31.916 42.697h3.92a.98.98 0 1 0 0-1.96h-3.92a.98.98 0 1 0 0 1.96zM39.757 42.697h.98a.98.98 0 1 0 0-1.96h-.98a.98.98 0 1 0 0 1.96zM42.697 44.657h-10.78a.98.98 0 1 0 0 1.96h10.78a.98.98 0 1 0 0-1.96z" data-original="#000000" class="active-path" data-old_color="#ffffff" fill="#fff"/></svg>