<svg xmlns="http://www.w3.org/2000/svg" viewBox="0 0 58 58" width="512" height="512"><path d="M56.443 6.458H1.557a.98.98 0 0 0-.98.98v43.124c0 .542.44.98.98.98h54.886a.98.98 0 0 0 .98-.98V7.438a.98.98 0 0 0-.98-.98zm-.98 43.124H2.537V8.418h52.926v41.164z" data-original="#000000" class="active-path" data-old_color="#000000" fill="#FFF"/><path d="M16.259 28.155a5.464 5.464 0 0 0 5.458-5.457c0-3.01-2.448-5.46-5.458-5.46s-5.458 2.45-5.458 5.459a5.464 5.464 0 0 0 5.458 5.458zm0-8.956c1.929 0 3.498 1.57 3.498 3.498s-1.57 3.498-3.498 3.498-3.498-1.57-3.498-3.497 1.569-3.499 3.498-3.499zM7.438 45.662c.23 0 .46-.08.647-.244L24.073 31.34 34.17 41.437a.979.979 0 1 0 1.386-1.385l-4.711-4.712 8.998-9.854L50.88 35.604a.98.98 0 0 0 1.324-1.446l-11.761-10.78a1.01 1.01 0 0 0-.706-.258.982.982 0 0 0-.68.319l-9.6 10.513-4.648-4.648a.981.981 0 0 0-1.34-.043L6.79 43.946a.98.98 0 0 0 .648 1.716z" data-original="#000000" class="active-path" data-old_color="#000000" fill="#FFF"/></svg>