<svg xmlns="http://www.w3.org/2000/svg" viewBox="0 0 58 58" width="512" height="512"><path d="M50.256 47.84c4.454-5.02 7.167-11.618 7.167-18.84 0-7.514-2.936-14.352-7.715-19.44-.004-.006-.01-.008-.013-.013C44.717 4.255 37.742.868 29.985.603l-.001-.001-.554-.015c-.143-.005-.286-.01-.43-.01s-.287.005-.43.01l-.552.015h-.001c-7.758.266-14.732 3.653-19.71 8.945-.004.005-.01.007-.013.013v.002C3.513 14.648.576 21.486.576 29c0 7.222 2.713 13.82 7.167 18.84.005.008.005.018.012.027.018.024.043.036.062.059 5.004 5.594 12.185 9.198 20.198 9.472l.001.001.552.015c.144.004.287.009.431.009s.287-.005.43-.01l.552-.015h.001c8.022-.276 15.21-3.887 20.215-9.493.012-.017.033-.021.045-.04.008-.007.008-.017.013-.026zM2.562 29.98h11.764a36.22 36.22 0 0 0 2.367 11.974 36.14 36.14 0 0 0-7.95 4.049A26.34 26.34 0 0 1 2.562 29.98zm6.716-18.6a36.051 36.051 0 0 0 7.743 3.805 36.192 36.192 0 0 0-2.695 12.835H2.562a26.347 26.347 0 0 1 6.716-16.64zm46.16 16.64H43.674a36.192 36.192 0 0 0-2.695-12.835 36.051 36.051 0 0 0 7.743-3.804 26.347 26.347 0 0 1 6.716 16.639zM28.02 15.242a34.263 34.263 0 0 1-8.303-1.257A34.291 34.291 0 0 1 28.02 3.168v12.074zm0 1.96V28.02H16.286A34.23 34.23 0 0 1 18.9 15.793a36.213 36.213 0 0 0 9.12 1.41zm1.96 0a36.183 36.183 0 0 0 9.122-1.409 34.23 34.23 0 0 1 2.613 12.227H29.98V17.203zm0-1.96V3.168a34.291 34.291 0 0 1 8.303 10.817 34.263 34.263 0 0 1-8.303 1.257zm10.202-1.853a36.195 36.195 0 0 0-7.731-10.62 26.386 26.386 0 0 1 14.88 7.173 34.09 34.09 0 0 1-7.149 3.447zm-22.364 0a34.06 34.06 0 0 1-7.149-3.447A26.383 26.383 0 0 1 25.55 2.77a36.18 36.18 0 0 0-7.732 10.619zM16.286 29.98H28.02v9.838a36.15 36.15 0 0 0-9.469 1.51 34.23 34.23 0 0 1-2.265-11.348zM28.02 41.78v13.053a34.274 34.274 0 0 1-8.707-11.68 34.173 34.173 0 0 1 8.707-1.373zm1.96 13.053V41.779c2.979.083 5.897.544 8.707 1.372a34.269 34.269 0 0 1-8.707 11.68zm0-15.014V29.98h11.734a34.216 34.216 0 0 1-2.266 11.35 36.096 36.096 0 0 0-9.468-1.512zm13.694-9.838h11.764a26.335 26.335 0 0 1-6.181 16.023 36.14 36.14 0 0 0-7.95-4.049 36.196 36.196 0 0 0 2.367-11.974zM10.075 47.471a34.157 34.157 0 0 1 7.368-3.706 36.166 36.166 0 0 0 8.106 11.465 26.406 26.406 0 0 1-15.474-7.759zm22.376 7.76a36.144 36.144 0 0 0 8.106-11.466 34.18 34.18 0 0 1 7.368 3.706 26.406 26.406 0 0 1-15.474 7.76z" data-original="#000000" class="active-path" data-old_color="#000000" fill="#FFF"/></svg>