<svg xmlns="http://www.w3.org/2000/svg" viewBox="0 0 60 60" width="512" height="512"><path d="M30 16.281c4.322 0 7.84-3.517 7.84-7.839S34.321.602 30 .602s-7.84 3.518-7.84 7.84 3.518 7.84 7.84 7.84zm0-13.718c3.243 0 5.88 2.637 5.88 5.88s-2.637 5.879-5.88 5.879-5.88-2.637-5.88-5.88 2.637-5.88 5.88-5.88zM30 43.719c-4.322 0-7.84 3.517-7.84 7.839s3.518 7.84 7.84 7.84 7.84-3.518 7.84-7.84-3.518-7.84-7.84-7.84zm0 13.718c-3.243 0-5.88-2.637-5.88-5.88s2.637-5.879 5.88-5.879 5.88 2.637 5.88 5.88-2.637 5.88-5.88 5.88zM30 22.16c-4.322 0-7.84 3.518-7.84 7.84s3.518 7.84 7.84 7.84 7.84-3.518 7.84-7.84-3.518-7.84-7.84-7.84zm0 13.72c-3.243 0-5.88-2.637-5.88-5.88s2.637-5.88 5.88-5.88 5.88 2.637 5.88 5.88-2.637 5.88-5.88 5.88z" data-original="#000000" class="active-path" data-old_color="#ffffff" fill="#fff"/></svg>