<svg xmlns="http://www.w3.org/2000/svg" viewBox="0 0 52.495 52.495" width="512" height="512"><path d="M50.467 24.238L29.814 3.473v12.413c-11.752-.114-17.315 4.967-17.512 5.153C-.455 31.653 2.26 46.5 2.289 46.648l.461 2.374 1.238-2.078c9.51-15.979 22.622-15.035 25.826-14.531v12.59l20.653-20.765zM3.877 43.692c-.116-4.498.835-13.938 9.644-21.268.052-.049 5.21-4.693 16.029-4.693.379 0 .766.006 1.16.018l.95.028V7.945l16.204 16.293L31.66 40.53v-9.606l-.706-.171c-.163-.042-15.75-3.58-27.077 12.939z" data-original="#000000" class="active-path" data-old_color="#ffffff" fill="#fff"/></svg>