<?xml version="1.0" encoding="UTF-8" standalone="no"?>
<svg
   xmlns:osb="http://www.openswatchbook.org/uri/2009/osb"
   xmlns:dc="http://purl.org/dc/elements/1.1/"
   xmlns:cc="http://creativecommons.org/ns#"
   xmlns:rdf="http://www.w3.org/1999/02/22-rdf-syntax-ns#"
   xmlns:svg="http://www.w3.org/2000/svg"
   xmlns="http://www.w3.org/2000/svg"
   class=""
   height="512px"
   width="512px"
   xml:space="preserve"
   style="enable-background:new 0 0 56 56;"
   viewBox="0 0 56 56"
   y="0px"
   x="0px"
   id="Capa_1"
   version="1.1"><metadata
   id="metadata797"><rdf:RDF><cc:Work
       rdf:about=""><dc:format>image/svg+xml</dc:format><dc:type
         rdf:resource="http://purl.org/dc/dcmitype/StillImage" /><dc:title></dc:title></cc:Work></rdf:RDF></metadata><defs
   id="defs795"><linearGradient
   osb:paint="solid"
   id="linearGradient6095"><stop
     id="stop6093"
     offset="0"
     style="stop-color:#ffff00;stop-opacity:1;" /></linearGradient>
	
	
	
	
	
</defs><g
   id="g1235"
   transform="matrix(0.10719844,0,0,0.10719844,0.5709859,0.93891857)"
   style="fill:#ffffff;paint-order:markers fill stroke;stroke-linecap:square"><g
     id="g1233"
     transform="translate(1,1)"
     style="fill:#ffffff;paint-order:markers fill stroke;stroke-linecap:square">
	<g
   id="g1231"
   style="fill:#ffffff;paint-order:markers fill stroke;stroke-linecap:square">
		<g
   id="g1229"
   style="fill:#ffffff;paint-order:markers fill stroke;stroke-linecap:square">
			<path
   id="path1221"
   data-old_color="#000000"
   class="active-path"
   data-original="#000000"
   d="M 58.733,24.6 C 39.96,24.6 24.6,39.96 24.6,58.733 c 0,18.773 15.36,34.133 34.133,34.133 18.773,0 34.133,-15.36 34.133,-34.133 C 92.866,39.96 77.507,24.6 58.733,24.6 Z m 0,51.2 c -9.387,0 -17.067,-7.68 -17.067,-17.067 0,-9.387 7.68,-17.067 17.067,-17.067 9.387,0 17.067,7.681 17.067,17.067 0,9.386 -7.68,17.067 -17.067,17.067 z"
   style="fill:#ffffff;paint-order:markers fill stroke;stroke-linecap:square" />
			<path
   id="path1223"
   data-old_color="#000000"
   class="active-path"
   data-original="#000000"
   d="m 135.533,24.6 c -18.773,0 -34.133,15.36 -34.133,34.133 0,18.773 15.36,34.133 34.133,34.133 18.773,0 34.133,-15.36 34.133,-34.133 0,-18.773 -15.359,-34.133 -34.133,-34.133 z m 0,51.2 c -9.387,0 -17.067,-7.68 -17.067,-17.067 0,-9.387 7.68,-17.067 17.067,-17.067 9.387,0 17.067,7.68 17.067,17.067 0,9.387 -7.68,17.067 -17.067,17.067 z"
   style="fill:#ffffff;paint-order:markers fill stroke;stroke-linecap:square" />
			<path
   id="path1225"
   data-old_color="#000000"
   class="active-path"
   data-original="#000000"
   d="m 212.333,24.6 c -18.773,0 -34.133,15.36 -34.133,34.133 0,18.773 15.36,34.133 34.133,34.133 18.773,0 34.133,-15.36 34.133,-34.133 0,-18.773 -15.359,-34.133 -34.133,-34.133 z m 0,51.2 c -9.387,0 -17.067,-7.68 -17.067,-17.067 0,-9.387 7.68,-17.067 17.067,-17.067 9.387,0 17.067,7.68 17.067,17.067 0,9.387 -7.68,17.067 -17.067,17.067 z"
   style="fill:#ffffff;paint-order:markers fill stroke;stroke-linecap:square" />
			<path
   id="path1227"
   data-old_color="#000000"
   class="active-path"
   data-original="#000000"
   d="M 487.107,-1 H 23.747 C 10.093,-1 -1,10.093 -1,23.747 V 101.4 118.467 355.694 C -1,371.053 10.947,383 26.307,383 h 92.437 272.514 92.437 c 15.36,0 27.307,-11.947 27.307,-27.307 V 118.467 101.4 23.747 C 511,10.093 499.907,-1 487.107,-1 Z M 246.467,365.934 H 196.33 Z m 68.009,0 h -50.943 z m -135.196,0 H 135.844 Z M 196.437,383 h 50.03 z m 67.096,0 h 50.943 z m 68.065,0 h 42.558 z m -0.068,-17.067 h 42.626 z m 162.403,-10.24 c 0,5.973 -4.267,10.24 -10.24,10.24 h -92.16 -273.068 -92.16 c -5.973,0 -10.24,-4.267 -10.24,-10.24 V 118.467 H 493.932 V 355.693 Z M 16.067,101.4 V 23.747 c 0,-4.267 3.413,-7.68 7.68,-7.68 h 462.507 c 4.267,0 7.68,3.413 7.68,7.68 V 101.4 Z"
   style="fill:#ffffff;paint-order:markers fill stroke;stroke-linecap:square" />
		</g>
	</g>
</g></g> <g
   style="stroke:#ffff00;stroke-opacity:1"
   id="g6412" /><g
   transform="matrix(1.5187286,0,0,1.3863914,-16.425355,-14.729027)"
   style="stroke:#ffffff;stroke-width:1.50752687;stroke-linecap:butt;stroke-linejoin:miter;stroke-miterlimit:4;stroke-dasharray:none;stroke-opacity:1"
   id="g6457"><path
     style="fill:none;stroke:#ffffff;stroke-width:1.50752687;stroke-linecap:butt;stroke-linejoin:miter;stroke-miterlimit:4;stroke-dasharray:none;stroke-opacity:1"
     d="M 29.542373,45.20339 V 24.79661"
     id="path6451" /><path
     style="fill:none;stroke:#ffffff;stroke-width:1.50752687;stroke-linecap:butt;stroke-linejoin:miter;stroke-miterlimit:4;stroke-dasharray:none;stroke-opacity:1"
     d="M 21.24081,36.079023 29.542373,24.79661 37.64706,36.079023"
     id="path6453" /></g></svg>