<svg xmlns="http://www.w3.org/2000/svg" height="512" width="512" viewBox="0 0 56 56" stroke="FFFFFF"><g paint-order="markers fill stroke" stroke-linecap="square"><path data-old_color="#000000" class="active-path" data-original="#000000" d="M6.974 3.683a3.67 3.67 0 0 0-3.659 3.66A3.67 3.67 0 0 0 6.975 11a3.67 3.67 0 0 0 3.658-3.659 3.67 3.67 0 0 0-3.659-3.659zm0 5.489a1.835 1.835 0 0 1-1.83-1.83c0-1.006.824-1.83 1.83-1.83 1.007 0 1.83.824 1.83 1.83 0 1.006-.823 1.83-1.83 1.83zM15.207 3.683a3.67 3.67 0 0 0-3.659 3.66A3.67 3.67 0 0 0 15.208 11a3.67 3.67 0 0 0 3.658-3.659 3.67 3.67 0 0 0-3.659-3.659zm0 5.489a1.835 1.835 0 0 1-1.83-1.83c0-1.006.824-1.83 1.83-1.83 1.006 0 1.83.824 1.83 1.83 0 1.006-.824 1.83-1.83 1.83zM23.44 3.683a3.67 3.67 0 0 0-3.66 3.66A3.67 3.67 0 0 0 23.44 11a3.67 3.67 0 0 0 3.659-3.659 3.67 3.67 0 0 0-3.659-3.659zm0 5.489a1.835 1.835 0 0 1-1.83-1.83c0-1.006.824-1.83 1.83-1.83 1.006 0 1.83.824 1.83 1.83 0 1.006-.824 1.83-1.83 1.83z" paint-order="markers fill stroke"/><path data-old_color="#000000" class="active-path" data-original="#000000" d="M52.895.939H3.224A2.655 2.655 0 0 0 .57 3.592v35.584a2.89 2.89 0 0 0 2.927 2.927H52.53a2.89 2.89 0 0 0 2.927-2.927V3.592c0-1.464-1.19-2.653-2.562-2.653zM27.1 40.274h-5.375zm7.29 0h-5.46zm-14.492 0H15.24zm1.839 1.83h5.363zm7.193 0h5.46zm7.296 0h4.562zm-.007-1.83h4.57zm17.409-1.098c0 .64-.457 1.098-1.098 1.098H3.498c-.64 0-1.098-.458-1.098-1.098v-25.43h51.227v25.43zM2.401 11.916V3.592a.82.82 0 0 1 .823-.824h49.58a.82.82 0 0 1 .823.824v8.324z" paint-order="markers fill stroke"/></g><g stroke-width="1.508" fill="none"><path d="M29.542 45.203V24.797M21.24 36.079l8.302-11.282 8.105 11.282" transform="matrix(1.51873 0 0 1.3864 -16.425 -14.729)"/></g></svg>