<?xml version="1.0" encoding="UTF-8" standalone="no"?>
<svg
   xmlns:dc="http://purl.org/dc/elements/1.1/"
   xmlns:cc="http://creativecommons.org/ns#"
   xmlns:rdf="http://www.w3.org/1999/02/22-rdf-syntax-ns#"
   xmlns:svg="http://www.w3.org/2000/svg"
   xmlns="http://www.w3.org/2000/svg"
   height="512px"
   width="512px"
   xml:space="preserve"
   style="enable-background:new 0 0 512 512;"
   viewBox="0 0 512 512"
   y="0px"
   x="0px"
   id="Layer_1"
   version="1.1"><metadata
   id="metadata19"><rdf:RDF><cc:Work
       rdf:about=""><dc:format>image/svg+xml</dc:format><dc:type
         rdf:resource="http://purl.org/dc/dcmitype/StillImage" /><dc:title></dc:title></cc:Work></rdf:RDF></metadata><defs
   id="defs17" /><g
   style="fill:#ffffff"
   id="g12"
   transform="matrix(0.9801 0 0 0.9801 5.0944 5.0944)"><g
     style="fill:#ffffff"
     id="g10">
	<g
   style="fill:#ffffff"
   id="g8">
		<g
   style="fill:#ffffff"
   id="g6">
			<path
   style="fill:#ffffff;stroke-width:0.78637677"
   id="path2"
   data-old_color="#AAAAAA"
   class="active-path"
   data-original="#000000"
   d="M 299.17359,133.71074 H 84.440035 c -3.70383,0 -6.71015,2.99924 -6.71015,6.71015 v 60.39374 c 0,2.71064 1.63724,5.16728 4.14027,6.20058 2.50933,1.04038 5.38826,0.46318 7.31409,-1.45637 l 23.728145,-23.72106 c 5.06662,-5.07291 11.80351,-7.86455 18.97684,-7.86455 h 33.07579 c 3.69755,0 6.71016,3.00632 6.71016,6.71015 v 174.47106 h -53.68359 c -3.70383,0 -6.71015,2.99924 -6.71015,6.71015 v 26.8414 c 0,3.71091 3.00632,6.71015 6.71015,6.71015 h 147.62888 c 3.70383,0 6.71015,-2.99924 6.71015,-6.71015 v -26.8414 c 0,-3.71091 -3.00632,-6.71015 -6.71015,-6.71015 H 211.93845 V 180.68338 c 0,-3.70383 3.01261,-6.71015 6.71016,-6.71015 h 33.07579 c 7.17333,0 13.91101,2.79164 18.97685,7.86455 l 23.72813,23.72106 c 1.92583,1.92584 4.81105,2.50304 7.31409,1.45637 2.50304,-1.0333 4.14027,-3.48915 4.14027,-6.20058 v -60.39374 c 0,-3.71091 -3.00632,-6.71015 -6.71015,-6.71015 z m -6.71015,50.90531 -12.2667,-12.26669 c -7.60347,-7.60977 -17.71549,-11.79722 -28.47234,-11.79722 h -33.07579 c -11.09892,0 -20.13125,9.03232 -20.13125,20.13124 v 181.18121 c 0,3.71091 3.00632,6.71016 6.71016,6.71016 h 53.68358 v 13.42109 H 124.70253 v -13.42109 h 53.68359 c 3.70383,0 6.71015,-2.99925 6.71015,-6.71016 V 180.68338 c 0,-11.09892 -9.03232,-20.13124 -20.13125,-20.13124 h -33.07579 c -10.75685,0 -20.86965,4.18745 -28.46527,11.79722 L 91.150975,184.61605 V 147.13183 H 292.46344 Z" />
			<path
   style="fill:#ffffff"
   id="path4"
   fill="#FFFFFF"
   data-old_color="#AAAAAA"
   class="active-path"
   data-original="#000000"
   d="M469.333,410.324V101.676C493.519,97.601,512,76.529,512,51.2C512,22.963,489.036,0,460.8,0     c-25.329,0-46.401,18.481-50.476,42.667H101.676C97.601,18.481,76.529,0,51.2,0C22.964,0,0,22.963,0,51.2     c0,25.329,18.481,46.401,42.667,50.476v308.649C18.481,414.399,0,435.471,0,460.8C0,489.037,22.964,512,51.2,512     c25.328,0,46.401-18.481,50.476-42.667h308.648C414.399,493.519,435.471,512,460.8,512c28.237,0,51.2-22.963,51.2-51.2     C512,435.472,493.519,414.399,469.333,410.324z M410.324,452.267H101.676c-3.607-21.409-20.534-38.336-41.942-41.942V101.676     c21.409-3.607,38.336-20.534,41.942-41.942h308.648c3.607,21.409,20.534,38.336,41.942,41.942v308.649     C430.858,413.931,413.931,430.858,410.324,452.267z M460.8,17.067c18.825,0,34.133,15.309,34.133,34.133     S479.624,85.333,460.8,85.333c-18.825,0-34.133-15.309-34.133-34.133S441.975,17.067,460.8,17.067z M17.067,51.2     c0-18.825,15.309-34.133,34.133-34.133c18.821,0,34.127,15.303,34.133,34.122c0,0.004-0.001,0.008-0.001,0.011     s0.001,0.008,0.001,0.011C85.327,70.031,70.021,85.333,51.2,85.333C32.376,85.333,17.067,70.025,17.067,51.2z M51.2,494.933     c-18.825,0-34.133-15.309-34.133-34.133c0-18.825,15.309-34.133,34.133-34.133c18.821,0,34.127,15.303,34.133,34.122     c0,0.004-0.001,0.008-0.001,0.011s0.001,0.008,0.001,0.011C85.327,479.631,70.021,494.933,51.2,494.933z M460.8,494.933     c-18.825,0-34.133-15.309-34.133-34.133c0-18.825,15.309-34.133,34.133-34.133c18.825,0,34.133,15.309,34.133,34.133     C494.933,479.625,479.624,494.933,460.8,494.933z" />
		</g>
	</g>
</g></g> <path
   style="fill:#ffffff;stroke-width:0.45666969"
   id="path2-3"
   data-old_color="#AAAAAA"
   class="active-path"
   data-original="#000000"
   d="M 422.48631,236.6085 H 297.78488 c -2.15091,0 -3.89676,1.74173 -3.89676,3.89676 v 35.07223 c 0,1.57414 0.95079,3.00078 2.40436,3.60084 1.45724,0.60418 3.12911,0.26898 4.24749,-0.84575 l 13.77956,-13.77544 c 2.94232,-2.94598 6.85461,-4.56716 11.02035,-4.56716 h 19.20798 c 2.14726,0 3.89677,1.74585 3.89677,3.89676 v 101.31994 h -31.17548 c -2.15091,0 -3.89676,1.74174 -3.89676,3.89676 v 15.58751 c 0,2.15503 1.74585,3.89676 3.89676,3.89676 h 85.73198 c 2.15092,0 3.89676,-1.74173 3.89676,-3.89676 v -15.58751 c 0,-2.15502 -1.74584,-3.89676 -3.89676,-3.89676 H 371.82657 V 263.88674 c 0,-2.15091 1.7495,-3.89676 3.89676,-3.89676 h 19.20799 c 4.16574,0 8.07849,1.62118 11.02035,4.56716 l 13.77956,13.77544 c 1.11837,1.11839 2.7939,1.45358 4.24748,0.84575 1.45358,-0.60006 2.40436,-2.02624 2.40436,-3.60084 v -35.07223 c 0,-2.15503 -1.74585,-3.89676 -3.89676,-3.89676 z m -3.89676,29.56205 -7.1236,-7.12359 c -4.41553,-4.4192 -10.28785,-6.85096 -16.53463,-6.85096 h -19.20799 c -6.44543,0 -11.69074,5.24531 -11.69074,11.69074 v 105.2167 c 0,2.15503 1.74585,3.89677 3.89676,3.89677 h 31.17547 v 7.79398 h -77.93845 v -7.79398 h 31.17548 c 2.15091,0 3.89676,-1.74174 3.89676,-3.89677 v -105.2167 c 0,-6.44543 -5.24531,-11.69074 -11.69075,-11.69074 h -19.20798 c -6.24679,0 -12.11955,2.43176 -16.53053,6.85096 l -7.12725,7.12359 v -21.76807 h 116.90745 z" /></svg>