<svg xmlns="http://www.w3.org/2000/svg" viewBox="0 0 58 58" width="512" height="512"><path d="M36.387 28.173l-10.781-6.86a.985.985 0 0 0-.999-.033.982.982 0 0 0-.508.86v13.72a.981.981 0 0 0 1.507.828l10.781-6.86a.982.982 0 0 0 0-1.655zM26.06 34.076V23.924L34.035 29l-7.975 5.076z" data-original="#000000" class="active-path" data-old_color="#000000" fill="#FFF"/><path d="M56.443 6.458H1.558a.98.98 0 0 0-.98.98V50.562c0 .542.438.98.98.98h54.884a.98.98 0 0 0 .98-.98V7.438a.98.98 0 0 0-.98-.98zM10.378 28.02h-7.84v-8.821h7.84v8.82zm-7.84 1.96h7.84v8.821h-7.84v-8.82zm9.8 9.801V8.418h33.324v41.164H12.338v-9.8zM55.463 28.02h-7.841v-8.821h7.84v8.82zm-7.841 1.96h7.84v8.821h-7.84v-8.82zm7.84-21.562v8.82h-7.84v-8.82h7.84zm-52.925 0h7.841v8.82h-7.84v-8.82zm0 41.164v-8.82h7.841v8.82h-7.84zm52.926 0h-7.841v-8.82h7.84v8.82z" data-original="#000000" class="active-path" data-old_color="#000000" fill="#FFF"/></svg>