<svg xmlns="http://www.w3.org/2000/svg" viewBox="0 0 58 58" width="512" height="512"><path d="M43.701 28.02a.98.98 0 0 0-.98.98v5.88c0 7.567-6.155 13.722-13.721 13.722s-13.721-6.155-13.721-13.721V29a.98.98 0 1 0-1.96 0v5.88c0 8.317 6.511 15.123 14.7 15.632v4.95h-4.9a.98.98 0 1 0 0 1.96h11.762a.98.98 0 1 0 0-1.96h-4.9v-4.95c8.189-.51 14.7-7.316 14.7-15.631V29a.98.98 0 0 0-.98-.98z" data-original="#000000" class="active-path" data-old_color="#ffffff" fill="#fff"/><path d="M29 45.662c5.944 0 10.781-4.837 10.781-10.781V11.358C39.781 5.414 34.944.578 29 .578s-10.781 4.836-10.781 10.78v23.523c0 5.944 4.837 10.78 10.781 10.78zm-8.82-34.304c0-4.864 3.957-8.82 8.82-8.82s8.82 3.956 8.82 8.82v23.523c0 4.864-3.957 8.82-8.82 8.82s-8.82-3.956-8.82-8.82V11.358z" data-original="#000000" class="active-path" data-old_color="#ffffff" fill="#fff"/></svg>