<svg xmlns="http://www.w3.org/2000/svg" width="512" height="512" viewBox="0 0 512 512" preserveAspectRatio="xMidYMid meet" fill="#FFFFFF"><path d="M63.639 30.185c-18.4 0-33.454 15.054-33.454 33.454s15.054 33.453 33.454 33.453S97.092 82.038 97.092 63.64 82.04 30.185 63.64 30.185zm0 50.181c-9.2 0-16.728-7.527-16.728-16.727S54.44 46.91 63.64 46.91 80.366 54.44 80.366 63.64 72.84 80.366 63.64 80.366zM138.91 30.185c-18.399 0-33.453 15.054-33.453 33.454s15.054 33.453 33.453 33.453c18.4 0 33.454-15.054 33.454-33.453s-15.053-33.454-33.454-33.454zm0 50.181c-9.2 0-16.727-7.527-16.727-16.727S129.71 46.91 138.91 46.91s16.728 7.528 16.728 16.728-7.527 16.727-16.728 16.727zM214.182 30.185c-18.4 0-33.454 15.054-33.454 33.454s15.055 33.453 33.454 33.453c18.4 0 33.454-15.054 33.454-33.453s-15.054-33.454-33.454-33.454zm0 50.181c-9.2 0-16.727-7.527-16.727-16.727s7.527-16.728 16.727-16.728S230.91 54.44 230.91 63.64s-7.527 16.727-16.727 16.727z" data-original="#000000" class="active-path" data-old_color="#000000"/><path d="M483.488 5.094H29.348c-13.381 0-24.254 10.873-24.254 24.255V354.69c0 15.054 11.71 26.763 26.764 26.763h90.597c4.356 69.742 62.756 125.453 133.546 125.453s129.19-55.711 133.545-125.453h90.598c15.054 0 26.764-11.71 26.764-26.764V29.35c-.002-13.382-10.875-24.255-23.42-24.255zM139.215 381.453h42.445c.555 14.114 3.154 28.113 7.64 41.818h-39.016a115.916 115.916 0 0 1-11.069-41.818zm108.422-75.272h-33.365c8.142-16.344 19.327-32.025 33.365-46.754v46.754zm0 16.727v41.818h-49.14c.757-14.207 3.66-28.197 8.6-41.818h40.54zm16.726 0h41.075c5.028 13.617 8.013 27.608 8.854 41.818h-49.929v-41.818zm0-16.727v-46.785c14.188 14.73 25.505 30.421 33.772 46.785h-33.772zm23.078-45.86c26.406 7.41 49.111 23.905 64.497 45.86h-35.43c-7.17-15.945-16.896-31.297-29.067-45.86zm-91.484 45.86h-35.895c15.419-22.001 38.187-38.518 64.664-45.907-12.074 14.583-21.694 29.952-28.769 45.907zm-45.673 16.727h39.265c-4.412 13.616-7.028 27.592-7.762 41.818h-42.572a115.906 115.906 0 0 1 11.07-41.818zm48.318 58.545h49.035v41.818H207.59c-5.05-13.656-8.071-27.668-8.989-41.818zm49.035 58.544v45.91c-13.694-14.403-24.661-29.832-32.75-45.91h32.75zm16.726 0h33.84c-8.274 16.51-19.615 32.425-33.84 47.509v-47.509zm0-16.726v-41.818h49.93c-.84 14.193-3.819 28.173-8.835 41.818h-41.095zm66.71-41.818h41.712a115.916 115.916 0 0 1-11.07 41.818H323.24c4.502-13.759 7.14-27.768 7.835-41.818zm-.066-16.728c-.809-14.229-3.5-28.204-7.99-41.817h38.699a115.916 115.916 0 0 1 11.069 41.817h-41.778zm-170.945 75.272h35.717c7.14 15.928 16.854 31.334 28.937 45.904-26.473-7.39-49.238-23.906-64.654-45.904zm128.243 45.617c11.93-14.511 21.453-29.832 28.482-45.617h35.151c-15.218 21.715-37.595 38.09-63.633 45.617zm201.873-130.925c0 5.854-4.182 10.036-10.036 10.036h-90.326c-4.108-69.012-60.676-123.492-130.061-125.397-.114-.002-.227-.01-.341-.012a136.366 136.366 0 0 0-6.83 0l-.34.012c-69.386 1.904-125.954 56.385-130.062 125.397H31.856c-5.854 0-10.036-4.182-10.036-10.036V122.184h468.357v232.505zM21.822 105.457V29.349a7.495 7.495 0 0 1 7.527-7.527h453.303a7.495 7.495 0 0 1 7.527 7.527v76.108H21.822z" data-original="#000000" class="active-path" data-old_color="#000000"/></svg>