<svg xmlns="http://www.w3.org/2000/svg" width="512" height="512" viewBox="0 0 512 512" fill="#FFFFFF"><path d="M321.697 244.97l-94.72-60.27a8.654 8.654 0 0 0-8.776-.29 8.628 8.628 0 0 0-4.464 7.556v120.541a8.619 8.619 0 0 0 13.24 7.275l94.72-60.27a8.628 8.628 0 0 0 0-14.541zm-90.73 51.863V207.64l70.066 44.596z" data-original="#000000" class="active-path" data-old_color="#000000"/><path d="M497.905 54.187H15.697a8.61 8.61 0 0 0-8.61 8.61v378.879a8.602 8.602 0 0 0 8.61 8.61h482.2a8.61 8.61 0 0 0 8.61-8.61V62.796a8.61 8.61 0 0 0-8.61-8.61zM93.187 243.627h-68.88v-77.5h68.88v77.49zm-68.88 17.22h68.88v77.5h-68.88v-77.492zm86.1 86.11V71.406h292.779v361.659H110.408v-86.101zm378.888-103.33h-68.89v-77.5h68.882v77.49zm-68.89 17.22h68.882v77.5h-68.881v-77.492zm68.882-189.44v77.49h-68.881v-77.49zm-464.99 0h68.89v77.49h-68.88v-77.49zm0 361.659v-77.491h68.89v77.49h-68.88zm464.998 0h-68.89v-77.491h68.882v77.49z" data-original="#000000" class="active-path" data-old_color="#000000"/></svg>